<svg width="1500" height="1200" viewBox="0 0 1500 1200" fill="none" xmlns="http://www.w3.org/2000/svg">
<rect width="1500" height="1200" fill="black" fill-opacity="0.9"/>
<path d="M115 593.5C115 591.5 115.25 587.5 115.75 581.5C116.5 575.5 117.375 568.75 118.375 561.25C119.625 553.5 121.125 545.5 122.875 537.25C124.625 528.75 126.75 521 129.25 514C132 507 135 501.25 138.25 496.75C141.5 492.25 145.25 490 149.5 490C154.75 490 158.875 492 161.875 496C164.875 500 167.125 504.75 168.625 510.25C170.375 515.5 171.5 521 172 526.75C172.75 532.25 173.125 536.625 173.125 539.875C167.875 539.875 164.5 539 163 537.25C161.5 535.5 160.375 533.375 159.625 530.875C159.125 528.375 158.5 525.875 157.75 523.375C157 520.625 154.875 518.25 151.375 516.25C145.625 519.75 141.25 524.75 138.25 531.25C135.25 537.5 132.875 544.375 131.125 551.875C129.625 559.375 128.75 566.75 128.5 574C128.25 581.25 128.125 587.75 128.125 593.5C128.125 600.5 129.375 606.375 131.875 611.125C134.625 615.875 140 618.25 148 618.25C154.25 618.25 160.25 617 166 614.5C171.75 612 177.25 608.875 182.5 605.125C187.75 601.125 192.625 596.875 197.125 592.375C201.875 587.625 206.25 583.125 210.25 578.875H217.375C217.375 578.875 217.25 579.375 217 580.375C217 581.125 216.875 581.75 216.625 582.25C213.125 589.5 208.75 596.125 203.5 602.125C198.25 608.125 192.5 613.25 186.25 617.5C180 621.75 173.125 625.125 165.625 627.625C158.375 630.125 150.75 631.375 142.75 631.375C137 631.375 132.25 630.5 128.5 628.75C125 626.75 122.25 624.125 120.25 620.875C118.25 617.375 116.875 613.375 116.125 608.875C115.375 604.125 115 599 115 593.5ZM297.625 585.25C293.875 589.75 289.5 594.5 284.5 599.5C279.75 604.5 274.5 609.125 268.75 613.375C263.25 617.625 257.375 621.25 251.125 624.25C245.125 627 238.875 628.375 232.375 628.375C219.125 628.375 212.5 622 212.5 609.25C212.5 604 214.625 597.125 218.875 588.625C223.375 579.875 229.125 570.75 236.125 561.25C243.125 551.75 250.875 542.625 259.375 533.875C267.875 524.875 276.375 517.5 284.875 511.75C293.375 505.75 301.125 502 308.125 500.5C315.375 499 321.25 501.125 325.75 506.875C325.75 513.625 325.25 520.375 324.25 527.125C323.25 533.875 322.25 540.625 321.25 547.375C320.25 553.875 319.25 560.375 318.25 566.875C317.25 573.375 316.75 580 316.75 586.75C316.75 588.25 316.875 590.625 317.125 593.875C317.625 596.875 318.25 600 319 603.25C320 606.25 321.25 609 322.75 611.5C324.25 613.75 326.25 614.875 328.75 614.875C334.75 614.875 339.625 614.125 343.375 612.625C347.375 611.125 350.75 609.375 353.5 607.375C356.5 605.125 359 602.625 361 599.875C363.25 597.125 365.5 594.375 367.75 591.625C370.25 588.875 373 586.25 376 583.75C379 581.25 382.875 579.25 387.625 577.75C387.625 577.75 387.625 578.125 387.625 578.875C387.625 579.625 387.625 580.25 387.625 580.75C387.625 587 385.75 593.25 382 599.5C378.25 605.5 373.5 610.875 367.75 615.625C362 620.375 355.5 624.25 348.25 627.25C341.25 630 334.375 631.375 327.625 631.375C321.875 631.375 317.25 629.75 313.75 626.5C310.25 623.25 307.375 619.375 305.125 614.875C303.125 610.375 301.625 605.5 300.625 600.25C299.625 594.75 298.625 589.75 297.625 585.25ZM304.375 536.125C306.875 527.875 307.75 522.25 307 519.25C306.5 516.25 304.75 515.125 301.75 515.875C298.75 516.375 294.875 518.5 290.125 522.25C285.375 525.75 280.25 530.125 274.75 535.375C269.25 540.375 263.75 546 258.25 552.25C252.75 558.5 247.625 564.5 242.875 570.25C238.125 575.75 234.25 580.75 231.25 585.25C228.25 589.75 226.375 593 225.625 595C224.125 600.75 223.875 605.125 224.875 608.125C226.125 611.125 227.875 613.25 230.125 614.5C232.625 615.5 235.25 615.625 238 614.875C241 614.125 243.5 613 245.5 611.5C249.75 607.75 255.125 602.75 261.625 596.5C268.125 590 274.375 583.125 280.375 575.875C286.625 568.625 292 561.5 296.5 554.5C301 547.25 303.625 541.125 304.375 536.125ZM396.25 718C396.25 709.5 396.625 700.75 397.375 691.75C398.125 682.75 399 673.625 400 664.375C401.25 655.375 402.625 646.375 404.125 637.375C405.875 628.375 407.625 619.75 409.375 611.5L386.5 634C386.25 634.25 386.125 634.375 386.125 634.375C385.875 634.625 385.5 634.75 385 634.75C384.5 634.75 384.125 634.625 383.875 634.375C383.875 634.375 383.625 634.25 383.125 634C382.875 634 382.25 633.5 381.25 632.5C380.5 631.5 380 631 379.75 631C379.5 631 378.75 631.125 377.5 631.375C376.25 631.625 374.875 631.875 373.375 632.125C371.875 632.625 370.5 633 369.25 633.25C367.75 633.75 367 634 367 634H365.125C363.625 634 362.625 633.625 362.125 632.875C361.375 632.375 360.875 631.625 360.625 630.625C360.375 629.625 360.25 628.5 360.25 627.25C360.25 626 360.25 624.875 360.25 623.875C360.25 621.375 360.5 619 361 616.75C361.25 614.5 363.25 612.75 367 611.5C367 611.5 367.75 611.5 369.25 611.5C370.5 611.5 371.875 611.5 373.375 611.5C374.875 611.5 376.25 611.5 377.5 611.5C378.75 611.5 379.5 611.5 379.75 611.5C383 610.75 387.125 608.375 392.125 604.375C397.375 600.125 402.375 595.25 407.125 589.75C411.875 584 415.75 578.125 418.75 572.125C422 565.875 423.25 560.5 422.5 556C423.25 553 424.625 547.875 426.625 540.625C428.875 533.125 431.125 525.125 433.375 516.625C435.875 508.125 438.25 500.25 440.5 493C442.75 485.5 444.375 480.25 445.375 477.25C445.875 476 446.75 473.625 448 470.125C449.5 466.375 451.25 462.625 453.25 458.875C455.25 454.875 457.625 451.375 460.375 448.375C463.375 445.375 466.625 443.875 470.125 443.875C472.375 443.875 474 444.5 475 445.75C476.25 447 477.125 448.5 477.625 450.25C478.125 452 478.375 453.875 478.375 455.875C478.375 457.875 478.375 459.5 478.375 460.75C478.375 461.75 478.375 463.5 478.375 466C478.375 468.5 478.25 470.125 478 470.875C477 473.625 475.25 478.625 472.75 485.875C470.5 493.125 468 500.75 465.25 508.75C462.5 516.5 459.875 524 457.375 531.25C454.875 538.25 453 543.25 451.75 546.25C451.5 547 450.875 548.25 449.875 550C449.125 551.75 448.25 553.75 447.25 556C446.25 558 445.125 560 443.875 562C442.875 563.75 442.25 565 442 565.75H443.5H445.375C446.375 565.5 448.5 564.75 451.75 563.5C455.25 562 459 560.5 463 559C467.25 557.5 471.125 556.125 474.625 554.875C478.125 553.625 480.375 552.75 481.375 552.25C481.625 552.25 482.625 552.25 484.375 552.25C486.375 552 487.875 551.875 488.875 551.875C497.875 551.875 505.625 553.75 512.125 557.5C518.875 561 524.25 565.75 528.25 571.75C532.5 577.5 535.625 584.25 537.625 592C539.625 599.75 540.625 607.75 540.625 616C540.625 619.25 540.375 623.875 539.875 629.875C539.375 635.625 538.5 642.125 537.25 649.375C536.25 656.875 535 664.5 533.5 672.25C532 680.25 530.25 687.75 528.25 694.75C526.25 701.75 524 708 521.5 713.5C519 719.25 516.5 723.5 514 726.25L475 765.25C472.75 767.5 470 769.25 466.75 770.5C463.5 772 460.125 773 456.625 773.5C453.375 774.25 450 774.75 446.5 775C443 775.25 439.875 775.375 437.125 775.375C428.625 775.375 421.75 773.75 416.5 770.5C411.25 767.5 407.125 763.375 404.125 758.125C401.125 752.875 399 746.75 397.75 739.75C396.75 733 396.25 725.75 396.25 718ZM409 715C409 721.25 409.125 727.25 409.375 733C409.625 738.75 410.625 743.75 412.375 748C414.375 752.25 417.375 755.625 421.375 758.125C425.625 760.875 431.5 762.25 439 762.25C449.5 762.25 459 759.875 467.5 755.125C476 750.625 483.5 744.5 490 736.75C496.5 729 502.125 720.125 506.875 710.125C511.625 700.375 515.5 690.25 518.5 679.75C521.75 669.25 524 658.875 525.25 648.625C526.75 638.375 527.5 629.125 527.5 620.875C527.5 614.375 527.125 607.875 526.375 601.375C525.875 594.625 524.375 588.625 521.875 583.375C519.375 578.125 515.75 573.875 511 570.625C506.5 567.125 500.375 565.375 492.625 565.375C479.625 565.375 468.5 567.75 459.25 572.5C450.25 577.25 442.625 583.5 436.375 591.25C430.125 599 425.25 608 421.75 618.25C418.25 628.5 415.5 639.125 413.5 650.125C411.75 661.125 410.5 672.25 409.75 683.5C409.25 694.75 409 705.25 409 715ZM455.125 490C454.625 490 453.875 491.125 452.875 493.375C451.875 495.375 450.875 498 449.875 501.25C449.125 504.25 448.25 507.625 447.25 511.375C446.25 514.875 445.5 518.25 445 521.5C444.5 524.5 444.125 527 443.875 529C443.875 531 444.125 532 444.625 532C445.375 532 446.125 531 446.875 529C447.625 527 448.5 524.5 449.5 521.5C450.5 518.25 451.375 514.875 452.125 511.375C453.125 507.625 453.875 504.25 454.375 501.25C455.125 498 455.5 495.375 455.5 493.375C455.75 491.125 455.625 490 455.125 490ZM556.375 584.125C554.625 585.125 553.25 585.375 552.25 584.875C551.25 584.375 550.5 583.625 550 582.625C549.75 581.625 549.5 580.5 549.25 579.25C549.25 577.75 549.25 576.75 549.25 576.25C549.25 571.25 549.875 568.25 551.125 567.25C552.375 566 554 565.25 556 565C558 564.5 560.125 563.875 562.375 563.125C564.625 562.375 566.75 560 568.75 556C571.75 549.75 574.375 543.25 576.625 536.5C579.125 529.5 582.125 523 585.625 517C589.125 511 593.5 506.125 598.75 502.375C604.25 498.625 611.75 496.75 621.25 496.75C622.75 496.75 624.375 496.875 626.125 497.125C628.125 497.375 629.875 497.875 631.375 498.625C633.125 499.125 634.5 500.125 635.5 501.625C636.75 502.875 637.375 504.625 637.375 506.875C637.375 512.125 636 516.875 633.25 521.125C630.75 525.125 627.5 528.875 623.5 532.375C619.75 535.625 615.625 538.75 611.125 541.75C606.625 544.75 602.5 547.625 598.75 550.375C595 553.125 591.75 556 589 559C586.5 562 585.25 565.25 585.25 568.75V604.75C585.25 607.5 586.25 609.75 588.25 611.5C590.5 613 593 614.25 595.75 615.25C598.5 616.25 601.375 617 604.375 617.5C607.375 618 609.625 618.25 611.125 618.25C617.125 618.25 623.125 617.25 629.125 615.25C635.125 613 640.875 610.25 646.375 607C652.125 603.75 657.5 600.25 662.5 596.5C667.5 592.5 672.25 588.75 676.75 585.25C678.25 584 679.5 582.75 680.5 581.5C681.75 580 682.875 578.625 683.875 577.375C685.125 576.125 686.375 575.125 687.625 574.375C689.125 573.375 691 572.625 693.25 572.125C693.25 572.375 693.25 572.875 693.25 573.625C693.25 574.375 693.25 575 693.25 575.5C693.25 577.5 693 579.25 692.5 580.75C692.25 582.25 691.375 583.75 689.875 585.25C684.375 591.5 678.5 597.375 672.25 602.875C666 608.375 659.375 613.25 652.375 617.5C645.375 621.75 638 625.125 630.25 627.625C622.5 630.125 614.25 631.375 605.5 631.375C596.75 631.375 590 630.125 585.25 627.625C580.5 625.125 576.75 621.5 574 616.75C571.5 612 569.75 606.375 568.75 599.875C567.75 593.375 566.625 586.375 565.375 578.875L556.375 584.125ZM604.75 526C604.75 525.5 604.25 525.625 603.25 526.375C602.5 526.875 601.5 527.625 600.25 528.625C599.25 529.625 598.5 530.625 598 531.625C597.5 532.375 597.5 532.75 598 532.75C599.25 533 600.75 532.25 602.5 530.5C604.25 528.75 605 527.25 604.75 526ZM916.375 585.25C912.625 589.75 908.25 594.5 903.25 599.5C898.5 604.5 893.25 609.125 887.5 613.375C882 617.625 876.125 621.25 869.875 624.25C863.875 627 857.625 628.375 851.125 628.375C837.875 628.375 831.25 622 831.25 609.25C831.25 604 833.375 597.125 837.625 588.625C842.125 579.875 847.875 570.75 854.875 561.25C861.875 551.75 869.625 542.625 878.125 533.875C886.625 524.875 895.125 517.5 903.625 511.75C912.125 505.75 919.875 502 926.875 500.5C934.125 499 940 501.125 944.5 506.875C944.5 513.625 944 520.375 943 527.125C942 533.875 941 540.625 940 547.375C939 553.875 938 560.375 937 566.875C936 573.375 935.5 580 935.5 586.75C935.5 588.25 935.625 590.625 935.875 593.875C936.375 596.875 937 600 937.75 603.25C938.75 606.25 940 609 941.5 611.5C943 613.75 945 614.875 947.5 614.875C953.5 614.875 958.375 614.125 962.125 612.625C966.125 611.125 969.5 609.375 972.25 607.375C975.25 605.125 977.75 602.625 979.75 599.875C982 597.125 984.25 594.375 986.5 591.625C989 588.875 991.75 586.25 994.75 583.75C997.75 581.25 1001.62 579.25 1006.38 577.75C1006.38 577.75 1006.38 578.125 1006.38 578.875C1006.38 579.625 1006.38 580.25 1006.38 580.75C1006.38 587 1004.5 593.25 1000.75 599.5C997 605.5 992.25 610.875 986.5 615.625C980.75 620.375 974.25 624.25 967 627.25C960 630 953.125 631.375 946.375 631.375C940.625 631.375 936 629.75 932.5 626.5C929 623.25 926.125 619.375 923.875 614.875C921.875 610.375 920.375 605.5 919.375 600.25C918.375 594.75 917.375 589.75 916.375 585.25ZM923.125 536.125C925.625 527.875 926.5 522.25 925.75 519.25C925.25 516.25 923.5 515.125 920.5 515.875C917.5 516.375 913.625 518.5 908.875 522.25C904.125 525.75 899 530.125 893.5 535.375C888 540.375 882.5 546 877 552.25C871.5 558.5 866.375 564.5 861.625 570.25C856.875 575.75 853 580.75 850 585.25C847 589.75 845.125 593 844.375 595C842.875 600.75 842.625 605.125 843.625 608.125C844.875 611.125 846.625 613.25 848.875 614.5C851.375 615.5 854 615.625 856.75 614.875C859.75 614.125 862.25 613 864.25 611.5C868.5 607.75 873.875 602.75 880.375 596.5C886.875 590 893.125 583.125 899.125 575.875C905.375 568.625 910.75 561.5 915.25 554.5C919.75 547.25 922.375 541.125 923.125 536.125ZM1035.62 529.75L1032.25 516.25L1025.5 520L986.5 559C986.25 559.25 985.375 559 983.875 558.25C982.125 557.25 980.875 556.5 980.125 556C979.625 555.5 979 554.875 978.25 554.125C977.25 553.125 976.75 552.5 976.75 552.25V550.75C976.75 549.25 977.875 546.875 980.125 543.625C982.125 540.375 984.875 536.75 988.375 532.75C991.875 528.75 995.75 524.625 1000 520.375C1004.5 515.875 1008.88 512 1013.12 508.75C1017.62 505.25 1021.88 502.375 1025.88 500.125C1029.88 497.875 1033.25 496.75 1036 496.75C1040.75 496.75 1044.25 499 1046.5 503.5C1049 507.75 1050.62 512.875 1051.38 518.875C1052.38 524.625 1052.75 530.5 1052.5 536.5C1052.25 542.25 1052.12 546.5 1052.12 549.25C1052.88 548 1054.5 545.875 1057 542.875C1059.5 539.625 1062.12 536.25 1064.88 532.75C1067.62 529 1070.25 525.625 1072.75 522.625C1075.25 519.625 1077 517.5 1078 516.25C1078.75 515.5 1080.38 513.75 1082.88 511C1085.62 508 1088.5 505 1091.5 502C1094.74 498.75 1098.12 496 1101.62 493.75C1105.12 491.25 1108.12 490 1110.62 490C1115.12 490 1118.38 491.375 1120.38 494.125C1122.38 496.625 1123.62 499.75 1124.12 503.5C1124.88 507.25 1125.12 511.25 1124.88 515.5C1124.62 519.5 1124.51 522.875 1124.51 525.625C1124.51 535.125 1123.88 544.5 1122.62 553.75C1121.38 563 1120.74 572.5 1120.74 582.25V585.25C1126 579.25 1130.5 572.625 1134.24 565.375C1138.24 558.125 1142.24 551 1146.24 544C1150.24 536.75 1154.51 529.875 1159.01 523.375C1163.75 516.875 1169.5 511.375 1176.24 506.875C1176.74 506.625 1177.51 506.5 1178.51 506.5C1179.75 506.25 1180.62 506.125 1181.12 506.125C1183.88 506.125 1185.88 507 1187.12 508.75C1188.62 510.25 1189.5 512.25 1189.74 514.75C1190.24 517 1190.38 519.375 1190.12 521.875C1189.88 524.375 1189.74 526.5 1189.74 528.25C1189.74 539 1189.12 549.625 1187.88 560.125C1186.62 570.375 1186.01 580.875 1186.01 591.625C1186.01 597.375 1187.24 601.125 1189.74 602.875C1192.5 604.625 1196.75 605.5 1202.51 605.5C1205.25 605.5 1207.62 605.125 1209.62 604.375C1211.88 603.375 1214.01 602.375 1216.01 601.375C1218.01 600.125 1220.01 599.125 1222.01 598.375C1224.25 597.375 1226.62 596.875 1229.12 596.875C1229.12 600.625 1228.12 604.125 1226.12 607.375C1224.12 610.375 1221.62 613 1218.62 615.25C1215.62 617.25 1212.25 618.875 1208.51 620.125C1204.75 621.125 1201.25 621.625 1198.01 621.625C1195.25 621.625 1192.38 621.25 1189.38 620.5C1186.62 619.75 1184.01 618.625 1181.51 617.125C1179.25 615.375 1177.25 613.25 1175.51 610.75C1174.01 608.25 1173.24 605.25 1173.24 601.75V529.75C1170.5 531.75 1167.38 535.375 1163.88 540.625C1160.62 545.875 1157.12 551.875 1153.38 558.625C1149.88 565.375 1146.25 572.5 1142.51 580C1139.01 587.5 1135.51 594.25 1132.01 600.25C1128.51 606.25 1125.12 611.375 1121.88 615.625C1118.62 619.625 1115.62 621.625 1112.88 621.625C1110.12 621.625 1108.12 620.375 1106.88 617.875C1105.62 615.375 1104.74 612.625 1104.24 609.625C1104 606.375 1103.88 603.375 1103.88 600.625C1103.88 597.875 1103.88 596 1103.88 595C1103.88 589 1104.25 583 1105.01 577C1105.75 571 1106.62 565 1107.62 559C1108.62 552.75 1109.5 546.625 1110.24 540.625C1111 534.625 1111.38 528.625 1111.38 522.625C1111.38 521.875 1111.38 520.75 1111.38 519.25C1111.38 517.75 1111.12 516.375 1110.62 515.125C1110.38 513.625 1109.88 512.375 1109.12 511.375C1108.38 510.125 1107.38 509.5 1106.12 509.5C1105.88 509.5 1105.62 509.625 1105.38 509.875C1105.38 509.875 1105.25 509.875 1105.01 509.875C1105.01 510.125 1104.74 510.25 1104.24 510.25C1104 510.25 1103.5 510.625 1102.74 511.375C1102 512.125 1101.5 512.75 1101.24 513.25C1098.5 516.75 1094.88 521.25 1090.38 526.75C1085.88 532.25 1081.5 537.625 1077.25 542.875C1073 548.125 1069.38 552.625 1066.38 556.375C1063.38 560.125 1061.75 562 1061.5 562C1060.75 563.5 1059.38 567.125 1057.38 572.875C1055.62 578.625 1053.62 584.875 1051.38 591.625C1049.38 598.125 1047.5 604.375 1045.75 610.375C1044 616.125 1042.75 619.75 1042 621.25C1040.75 625.25 1039.12 628 1037.12 629.5C1035.12 631 1032.12 631.75 1028.12 631.75C1028.12 623.25 1028.5 614.875 1029.25 606.625C1030 598.375 1030.88 590.125 1031.88 581.875C1032.88 573.375 1033.75 565 1034.5 556.75C1035.25 548.25 1035.62 539.625 1035.62 530.875V529.75ZM1309.01 585.25C1305.25 589.75 1300.88 594.5 1295.88 599.5C1291.12 604.5 1285.88 609.125 1280.12 613.375C1274.62 617.625 1268.75 621.25 1262.51 624.25C1256.51 627 1250.24 628.375 1243.74 628.375C1230.5 628.375 1223.88 622 1223.88 609.25C1223.88 604 1226 597.125 1230.24 588.625C1234.74 579.875 1240.51 570.75 1247.51 561.25C1254.51 551.75 1262.24 542.625 1270.74 533.875C1279.24 524.875 1287.74 517.5 1296.24 511.75C1304.74 505.75 1312.51 502 1319.51 500.5C1326.75 499 1332.62 501.125 1337.12 506.875C1337.12 513.625 1336.62 520.375 1335.62 527.125C1334.62 533.875 1333.62 540.625 1332.62 547.375C1331.62 553.875 1330.62 560.375 1329.62 566.875C1328.62 573.375 1328.12 580 1328.12 586.75C1328.12 588.25 1328.25 590.625 1328.51 593.875C1329.01 596.875 1329.62 600 1330.38 603.25C1331.38 606.25 1332.62 609 1334.12 611.5C1335.62 613.75 1337.62 614.875 1340.12 614.875C1346.12 614.875 1351 614.125 1354.74 612.625C1358.74 611.125 1362.12 609.375 1364.88 607.375C1367.88 605.125 1370.38 602.625 1372.38 599.875C1374.62 597.125 1376.88 594.375 1379.12 591.625C1381.62 588.875 1384.38 586.25 1387.38 583.75C1390.38 581.25 1394.25 579.25 1399.01 577.75C1399.01 577.75 1399.01 578.125 1399.01 578.875C1399.01 579.625 1399.01 580.25 1399.01 580.75C1399.01 587 1397.12 593.25 1393.38 599.5C1389.62 605.5 1384.88 610.875 1379.12 615.625C1373.38 620.375 1366.88 624.25 1359.62 627.25C1352.62 630 1345.75 631.375 1339.01 631.375C1333.25 631.375 1328.62 629.75 1325.12 626.5C1321.62 623.25 1318.75 619.375 1316.51 614.875C1314.51 610.375 1313.01 605.5 1312.01 600.25C1311.01 594.75 1310.01 589.75 1309.01 585.25ZM1315.74 536.125C1318.24 527.875 1319.12 522.25 1318.38 519.25C1317.88 516.25 1316.12 515.125 1313.12 515.875C1310.12 516.375 1306.25 518.5 1301.51 522.25C1296.75 525.75 1291.62 530.125 1286.12 535.375C1280.62 540.375 1275.12 546 1269.62 552.25C1264.12 558.5 1259 564.5 1254.24 570.25C1249.5 575.75 1245.62 580.75 1242.62 585.25C1239.62 589.75 1237.75 593 1237.01 595C1235.51 600.75 1235.24 605.125 1236.24 608.125C1237.5 611.125 1239.25 613.25 1241.51 614.5C1244.01 615.5 1246.62 615.625 1249.38 614.875C1252.38 614.125 1254.88 613 1256.88 611.5C1261.12 607.75 1266.51 602.75 1273.01 596.5C1279.51 590 1285.74 583.125 1291.74 575.875C1298 568.625 1303.38 561.5 1307.88 554.5C1312.38 547.25 1315 541.125 1315.74 536.125Z" fill="white" fill-opacity="0.2"/>
<path d="M101 588.5C101 586.5 101.25 582.5 101.75 576.5C102.5 570.5 103.375 563.75 104.375 556.25C105.625 548.5 107.125 540.5 108.875 532.25C110.625 523.75 112.75 516 115.25 509C118 502 121 496.25 124.25 491.75C127.5 487.25 131.25 485 135.5 485C140.75 485 144.875 487 147.875 491C150.875 495 153.125 499.75 154.625 505.25C156.375 510.5 157.5 516 158 521.75C158.75 527.25 159.125 531.625 159.125 534.875C153.875 534.875 150.5 534 149 532.25C147.5 530.5 146.375 528.375 145.625 525.875C145.125 523.375 144.5 520.875 143.75 518.375C143 515.625 140.875 513.25 137.375 511.25C131.625 514.75 127.25 519.75 124.25 526.25C121.25 532.5 118.875 539.375 117.125 546.875C115.625 554.375 114.75 561.75 114.5 569C114.25 576.25 114.125 582.75 114.125 588.5C114.125 595.5 115.375 601.375 117.875 606.125C120.625 610.875 126 613.25 134 613.25C140.25 613.25 146.25 612 152 609.5C157.75 607 163.25 603.875 168.5 600.125C173.75 596.125 178.625 591.875 183.125 587.375C187.875 582.625 192.25 578.125 196.25 573.875H203.375C203.375 573.875 203.25 574.375 203 575.375C203 576.125 202.875 576.75 202.625 577.25C199.125 584.5 194.75 591.125 189.5 597.125C184.25 603.125 178.5 608.25 172.25 612.5C166 616.75 159.125 620.125 151.625 622.625C144.375 625.125 136.75 626.375 128.75 626.375C123 626.375 118.25 625.5 114.5 623.75C111 621.75 108.25 619.125 106.25 615.875C104.25 612.375 102.875 608.375 102.125 603.875C101.375 599.125 101 594 101 588.5ZM283.625 580.25C279.875 584.75 275.5 589.5 270.5 594.5C265.75 599.5 260.5 604.125 254.75 608.375C249.25 612.625 243.375 616.25 237.125 619.25C231.125 622 224.875 623.375 218.375 623.375C205.125 623.375 198.5 617 198.5 604.25C198.5 599 200.625 592.125 204.875 583.625C209.375 574.875 215.125 565.75 222.125 556.25C229.125 546.75 236.875 537.625 245.375 528.875C253.875 519.875 262.375 512.5 270.875 506.75C279.375 500.75 287.125 497 294.125 495.5C301.375 494 307.25 496.125 311.75 501.875C311.75 508.625 311.25 515.375 310.25 522.125C309.25 528.875 308.25 535.625 307.25 542.375C306.25 548.875 305.25 555.375 304.25 561.875C303.25 568.375 302.75 575 302.75 581.75C302.75 583.25 302.875 585.625 303.125 588.875C303.625 591.875 304.25 595 305 598.25C306 601.25 307.25 604 308.75 606.5C310.25 608.75 312.25 609.875 314.75 609.875C320.75 609.875 325.625 609.125 329.375 607.625C333.375 606.125 336.75 604.375 339.5 602.375C342.5 600.125 345 597.625 347 594.875C349.25 592.125 351.5 589.375 353.75 586.625C356.25 583.875 359 581.25 362 578.75C365 576.25 368.875 574.25 373.625 572.75C373.625 572.75 373.625 573.125 373.625 573.875C373.625 574.625 373.625 575.25 373.625 575.75C373.625 582 371.75 588.25 368 594.5C364.25 600.5 359.5 605.875 353.75 610.625C348 615.375 341.5 619.25 334.25 622.25C327.25 625 320.375 626.375 313.625 626.375C307.875 626.375 303.25 624.75 299.75 621.5C296.25 618.25 293.375 614.375 291.125 609.875C289.125 605.375 287.625 600.5 286.625 595.25C285.625 589.75 284.625 584.75 283.625 580.25ZM290.375 531.125C292.875 522.875 293.75 517.25 293 514.25C292.5 511.25 290.75 510.125 287.75 510.875C284.75 511.375 280.875 513.5 276.125 517.25C271.375 520.75 266.25 525.125 260.75 530.375C255.25 535.375 249.75 541 244.25 547.25C238.75 553.5 233.625 559.5 228.875 565.25C224.125 570.75 220.25 575.75 217.25 580.25C214.25 584.75 212.375 588 211.625 590C210.125 595.75 209.875 600.125 210.875 603.125C212.125 606.125 213.875 608.25 216.125 609.5C218.625 610.5 221.25 610.625 224 609.875C227 609.125 229.5 608 231.5 606.5C235.75 602.75 241.125 597.75 247.625 591.5C254.125 585 260.375 578.125 266.375 570.875C272.625 563.625 278 556.5 282.5 549.5C287 542.25 289.625 536.125 290.375 531.125ZM382.25 713C382.25 704.5 382.625 695.75 383.375 686.75C384.125 677.75 385 668.625 386 659.375C387.25 650.375 388.625 641.375 390.125 632.375C391.875 623.375 393.625 614.75 395.375 606.5L372.5 629C372.25 629.25 372.125 629.375 372.125 629.375C371.875 629.625 371.5 629.75 371 629.75C370.5 629.75 370.125 629.625 369.875 629.375C369.875 629.375 369.625 629.25 369.125 629C368.875 629 368.25 628.5 367.25 627.5C366.5 626.5 366 626 365.75 626C365.5 626 364.75 626.125 363.5 626.375C362.25 626.625 360.875 626.875 359.375 627.125C357.875 627.625 356.5 628 355.25 628.25C353.75 628.75 353 629 353 629H351.125C349.625 629 348.625 628.625 348.125 627.875C347.375 627.375 346.875 626.625 346.625 625.625C346.375 624.625 346.25 623.5 346.25 622.25C346.25 621 346.25 619.875 346.25 618.875C346.25 616.375 346.5 614 347 611.75C347.25 609.5 349.25 607.75 353 606.5C353 606.5 353.75 606.5 355.25 606.5C356.5 606.5 357.875 606.5 359.375 606.5C360.875 606.5 362.25 606.5 363.5 606.5C364.75 606.5 365.5 606.5 365.75 606.5C369 605.75 373.125 603.375 378.125 599.375C383.375 595.125 388.375 590.25 393.125 584.75C397.875 579 401.75 573.125 404.75 567.125C408 560.875 409.25 555.5 408.5 551C409.25 548 410.625 542.875 412.625 535.625C414.875 528.125 417.125 520.125 419.375 511.625C421.875 503.125 424.25 495.25 426.5 488C428.75 480.5 430.375 475.25 431.375 472.25C431.875 471 432.75 468.625 434 465.125C435.5 461.375 437.25 457.625 439.25 453.875C441.25 449.875 443.625 446.375 446.375 443.375C449.375 440.375 452.625 438.875 456.125 438.875C458.375 438.875 460 439.5 461 440.75C462.25 442 463.125 443.5 463.625 445.25C464.125 447 464.375 448.875 464.375 450.875C464.375 452.875 464.375 454.5 464.375 455.75C464.375 456.75 464.375 458.5 464.375 461C464.375 463.5 464.25 465.125 464 465.875C463 468.625 461.25 473.625 458.75 480.875C456.5 488.125 454 495.75 451.25 503.75C448.5 511.5 445.875 519 443.375 526.25C440.875 533.25 439 538.25 437.75 541.25C437.5 542 436.875 543.25 435.875 545C435.125 546.75 434.25 548.75 433.25 551C432.25 553 431.125 555 429.875 557C428.875 558.75 428.25 560 428 560.75H429.5H431.375C432.375 560.5 434.5 559.75 437.75 558.5C441.25 557 445 555.5 449 554C453.25 552.5 457.125 551.125 460.625 549.875C464.125 548.625 466.375 547.75 467.375 547.25C467.625 547.25 468.625 547.25 470.375 547.25C472.375 547 473.875 546.875 474.875 546.875C483.875 546.875 491.625 548.75 498.125 552.5C504.875 556 510.25 560.75 514.25 566.75C518.5 572.5 521.625 579.25 523.625 587C525.625 594.75 526.625 602.75 526.625 611C526.625 614.25 526.375 618.875 525.875 624.875C525.375 630.625 524.5 637.125 523.25 644.375C522.25 651.875 521 659.5 519.5 667.25C518 675.25 516.25 682.75 514.25 689.75C512.25 696.75 510 703 507.5 708.5C505 714.25 502.5 718.5 500 721.25L461 760.25C458.75 762.5 456 764.25 452.75 765.5C449.5 767 446.125 768 442.625 768.5C439.375 769.25 436 769.75 432.5 770C429 770.25 425.875 770.375 423.125 770.375C414.625 770.375 407.75 768.75 402.5 765.5C397.25 762.5 393.125 758.375 390.125 753.125C387.125 747.875 385 741.75 383.75 734.75C382.75 728 382.25 720.75 382.25 713ZM395 710C395 716.25 395.125 722.25 395.375 728C395.625 733.75 396.625 738.75 398.375 743C400.375 747.25 403.375 750.625 407.375 753.125C411.625 755.875 417.5 757.25 425 757.25C435.5 757.25 445 754.875 453.5 750.125C462 745.625 469.5 739.5 476 731.75C482.5 724 488.125 715.125 492.875 705.125C497.625 695.375 501.5 685.25 504.5 674.75C507.75 664.25 510 653.875 511.25 643.625C512.75 633.375 513.5 624.125 513.5 615.875C513.5 609.375 513.125 602.875 512.375 596.375C511.875 589.625 510.375 583.625 507.875 578.375C505.375 573.125 501.75 568.875 497 565.625C492.5 562.125 486.375 560.375 478.625 560.375C465.625 560.375 454.5 562.75 445.25 567.5C436.25 572.25 428.625 578.5 422.375 586.25C416.125 594 411.25 603 407.75 613.25C404.25 623.5 401.5 634.125 399.5 645.125C397.75 656.125 396.5 667.25 395.75 678.5C395.25 689.75 395 700.25 395 710ZM441.125 485C440.625 485 439.875 486.125 438.875 488.375C437.875 490.375 436.875 493 435.875 496.25C435.125 499.25 434.25 502.625 433.25 506.375C432.25 509.875 431.5 513.25 431 516.5C430.5 519.5 430.125 522 429.875 524C429.875 526 430.125 527 430.625 527C431.375 527 432.125 526 432.875 524C433.625 522 434.5 519.5 435.5 516.5C436.5 513.25 437.375 509.875 438.125 506.375C439.125 502.625 439.875 499.25 440.375 496.25C441.125 493 441.5 490.375 441.5 488.375C441.75 486.125 441.625 485 441.125 485ZM542.375 579.125C540.625 580.125 539.25 580.375 538.25 579.875C537.25 579.375 536.5 578.625 536 577.625C535.75 576.625 535.5 575.5 535.25 574.25C535.25 572.75 535.25 571.75 535.25 571.25C535.25 566.25 535.875 563.25 537.125 562.25C538.375 561 540 560.25 542 560C544 559.5 546.125 558.875 548.375 558.125C550.625 557.375 552.75 555 554.75 551C557.75 544.75 560.375 538.25 562.625 531.5C565.125 524.5 568.125 518 571.625 512C575.125 506 579.5 501.125 584.75 497.375C590.25 493.625 597.75 491.75 607.25 491.75C608.75 491.75 610.375 491.875 612.125 492.125C614.125 492.375 615.875 492.875 617.375 493.625C619.125 494.125 620.5 495.125 621.5 496.625C622.75 497.875 623.375 499.625 623.375 501.875C623.375 507.125 622 511.875 619.25 516.125C616.75 520.125 613.5 523.875 609.5 527.375C605.75 530.625 601.625 533.75 597.125 536.75C592.625 539.75 588.5 542.625 584.75 545.375C581 548.125 577.75 551 575 554C572.5 557 571.25 560.25 571.25 563.75V599.75C571.25 602.5 572.25 604.75 574.25 606.5C576.5 608 579 609.25 581.75 610.25C584.5 611.25 587.375 612 590.375 612.5C593.375 613 595.625 613.25 597.125 613.25C603.125 613.25 609.125 612.25 615.125 610.25C621.125 608 626.875 605.25 632.375 602C638.125 598.75 643.5 595.25 648.5 591.5C653.5 587.5 658.25 583.75 662.75 580.25C664.25 579 665.5 577.75 666.5 576.5C667.75 575 668.875 573.625 669.875 572.375C671.125 571.125 672.375 570.125 673.625 569.375C675.125 568.375 677 567.625 679.25 567.125C679.25 567.375 679.25 567.875 679.25 568.625C679.25 569.375 679.25 570 679.25 570.5C679.25 572.5 679 574.25 678.5 575.75C678.25 577.25 677.375 578.75 675.875 580.25C670.375 586.5 664.5 592.375 658.25 597.875C652 603.375 645.375 608.25 638.375 612.5C631.375 616.75 624 620.125 616.25 622.625C608.5 625.125 600.25 626.375 591.5 626.375C582.75 626.375 576 625.125 571.25 622.625C566.5 620.125 562.75 616.5 560 611.75C557.5 607 555.75 601.375 554.75 594.875C553.75 588.375 552.625 581.375 551.375 573.875L542.375 579.125ZM590.75 521C590.75 520.5 590.25 520.625 589.25 521.375C588.5 521.875 587.5 522.625 586.25 523.625C585.25 524.625 584.5 525.625 584 526.625C583.5 527.375 583.5 527.75 584 527.75C585.25 528 586.75 527.25 588.5 525.5C590.25 523.75 591 522.25 590.75 521ZM902.375 580.25C898.625 584.75 894.25 589.5 889.25 594.5C884.5 599.5 879.25 604.125 873.5 608.375C868 612.625 862.125 616.25 855.875 619.25C849.875 622 843.625 623.375 837.125 623.375C823.875 623.375 817.25 617 817.25 604.25C817.25 599 819.375 592.125 823.625 583.625C828.125 574.875 833.875 565.75 840.875 556.25C847.875 546.75 855.625 537.625 864.125 528.875C872.625 519.875 881.125 512.5 889.625 506.75C898.125 500.75 905.875 497 912.875 495.5C920.125 494 926 496.125 930.5 501.875C930.5 508.625 930 515.375 929 522.125C928 528.875 927 535.625 926 542.375C925 548.875 924 555.375 923 561.875C922 568.375 921.5 575 921.5 581.75C921.5 583.25 921.625 585.625 921.875 588.875C922.375 591.875 923 595 923.75 598.25C924.75 601.25 926 604 927.5 606.5C929 608.75 931 609.875 933.5 609.875C939.5 609.875 944.375 609.125 948.125 607.625C952.125 606.125 955.5 604.375 958.25 602.375C961.25 600.125 963.75 597.625 965.75 594.875C968 592.125 970.25 589.375 972.5 586.625C975 583.875 977.75 581.25 980.75 578.75C983.75 576.25 987.625 574.25 992.375 572.75C992.375 572.75 992.375 573.125 992.375 573.875C992.375 574.625 992.375 575.25 992.375 575.75C992.375 582 990.5 588.25 986.75 594.5C983 600.5 978.25 605.875 972.5 610.625C966.75 615.375 960.25 619.25 953 622.25C946 625 939.125 626.375 932.375 626.375C926.625 626.375 922 624.75 918.5 621.5C915 618.25 912.125 614.375 909.875 609.875C907.875 605.375 906.375 600.5 905.375 595.25C904.375 589.75 903.375 584.75 902.375 580.25ZM909.125 531.125C911.625 522.875 912.5 517.25 911.75 514.25C911.25 511.25 909.5 510.125 906.5 510.875C903.5 511.375 899.625 513.5 894.875 517.25C890.125 520.75 885 525.125 879.5 530.375C874 535.375 868.5 541 863 547.25C857.5 553.5 852.375 559.5 847.625 565.25C842.875 570.75 839 575.75 836 580.25C833 584.75 831.125 588 830.375 590C828.875 595.75 828.625 600.125 829.625 603.125C830.875 606.125 832.625 608.25 834.875 609.5C837.375 610.5 840 610.625 842.75 609.875C845.75 609.125 848.25 608 850.25 606.5C854.5 602.75 859.875 597.75 866.375 591.5C872.875 585 879.125 578.125 885.125 570.875C891.375 563.625 896.75 556.5 901.25 549.5C905.75 542.25 908.375 536.125 909.125 531.125ZM1021.62 524.75L1018.25 511.25L1011.5 515L972.5 554C972.25 554.25 971.375 554 969.875 553.25C968.125 552.25 966.875 551.5 966.125 551C965.625 550.5 965 549.875 964.25 549.125C963.25 548.125 962.75 547.5 962.75 547.25V545.75C962.75 544.25 963.875 541.875 966.125 538.625C968.125 535.375 970.875 531.75 974.375 527.75C977.875 523.75 981.75 519.625 986 515.375C990.5 510.875 994.875 507 999.125 503.75C1003.62 500.25 1007.88 497.375 1011.88 495.125C1015.88 492.875 1019.25 491.75 1022 491.75C1026.75 491.75 1030.25 494 1032.5 498.5C1035 502.75 1036.62 507.875 1037.38 513.875C1038.38 519.625 1038.75 525.5 1038.5 531.5C1038.25 537.25 1038.12 541.5 1038.12 544.25C1038.88 543 1040.5 540.875 1043 537.875C1045.5 534.625 1048.12 531.25 1050.88 527.75C1053.62 524 1056.25 520.625 1058.75 517.625C1061.25 514.625 1063 512.5 1064 511.25C1064.75 510.5 1066.38 508.75 1068.88 506C1071.62 503 1074.5 500 1077.5 497C1080.75 493.75 1084.12 491 1087.62 488.75C1091.12 486.25 1094.12 485 1096.62 485C1101.12 485 1104.38 486.375 1106.38 489.125C1108.38 491.625 1109.62 494.75 1110.12 498.5C1110.88 502.25 1111.12 506.25 1110.88 510.5C1110.62 514.5 1110.51 517.875 1110.51 520.625C1110.51 530.125 1109.88 539.5 1108.62 548.75C1107.38 558 1106.74 567.5 1106.74 577.25V580.25C1112 574.25 1116.5 567.625 1120.24 560.375C1124.24 553.125 1128.24 546 1132.24 539C1136.24 531.75 1140.51 524.875 1145.01 518.375C1149.75 511.875 1155.5 506.375 1162.24 501.875C1162.74 501.625 1163.51 501.5 1164.51 501.5C1165.75 501.25 1166.62 501.125 1167.12 501.125C1169.88 501.125 1171.88 502 1173.12 503.75C1174.62 505.25 1175.5 507.25 1175.74 509.75C1176.24 512 1176.38 514.375 1176.12 516.875C1175.88 519.375 1175.74 521.5 1175.74 523.25C1175.74 534 1175.12 544.625 1173.88 555.125C1172.62 565.375 1172.01 575.875 1172.01 586.625C1172.01 592.375 1173.24 596.125 1175.74 597.875C1178.5 599.625 1182.75 600.5 1188.51 600.5C1191.25 600.5 1193.62 600.125 1195.62 599.375C1197.88 598.375 1200.01 597.375 1202.01 596.375C1204.01 595.125 1206.01 594.125 1208.01 593.375C1210.25 592.375 1212.62 591.875 1215.12 591.875C1215.12 595.625 1214.12 599.125 1212.12 602.375C1210.12 605.375 1207.62 608 1204.62 610.25C1201.62 612.25 1198.25 613.875 1194.51 615.125C1190.75 616.125 1187.25 616.625 1184.01 616.625C1181.25 616.625 1178.38 616.25 1175.38 615.5C1172.62 614.75 1170.01 613.625 1167.51 612.125C1165.25 610.375 1163.25 608.25 1161.51 605.75C1160.01 603.25 1159.24 600.25 1159.24 596.75V524.75C1156.5 526.75 1153.38 530.375 1149.88 535.625C1146.62 540.875 1143.12 546.875 1139.38 553.625C1135.88 560.375 1132.25 567.5 1128.51 575C1125.01 582.5 1121.51 589.25 1118.01 595.25C1114.51 601.25 1111.12 606.375 1107.88 610.625C1104.62 614.625 1101.62 616.625 1098.88 616.625C1096.12 616.625 1094.12 615.375 1092.88 612.875C1091.62 610.375 1090.75 607.625 1090.25 604.625C1090 601.375 1089.88 598.375 1089.88 595.625C1089.88 592.875 1089.88 591 1089.88 590C1089.88 584 1090.25 578 1091 572C1091.75 566 1092.62 560 1093.62 554C1094.62 547.75 1095.5 541.625 1096.24 535.625C1097 529.625 1097.38 523.625 1097.38 517.625C1097.38 516.875 1097.38 515.75 1097.38 514.25C1097.38 512.75 1097.12 511.375 1096.62 510.125C1096.38 508.625 1095.88 507.375 1095.12 506.375C1094.38 505.125 1093.38 504.5 1092.12 504.5C1091.88 504.5 1091.62 504.625 1091.38 504.875C1091.38 504.875 1091.25 504.875 1091 504.875C1091 505.125 1090.75 505.25 1090.25 505.25C1090 505.25 1089.5 505.625 1088.75 506.375C1088 507.125 1087.5 507.75 1087.25 508.25C1084.5 511.75 1080.88 516.25 1076.38 521.75C1071.88 527.25 1067.5 532.625 1063.25 537.875C1059 543.125 1055.38 547.625 1052.38 551.375C1049.38 555.125 1047.75 557 1047.5 557C1046.75 558.5 1045.38 562.125 1043.38 567.875C1041.62 573.625 1039.62 579.875 1037.38 586.625C1035.38 593.125 1033.5 599.375 1031.75 605.375C1030 611.125 1028.75 614.75 1028 616.25C1026.75 620.25 1025.12 623 1023.12 624.5C1021.12 626 1018.12 626.75 1014.12 626.75C1014.12 618.25 1014.5 609.875 1015.25 601.625C1016 593.375 1016.88 585.125 1017.88 576.875C1018.88 568.375 1019.75 560 1020.5 551.75C1021.25 543.25 1021.62 534.625 1021.62 525.875V524.75ZM1295.01 580.25C1291.25 584.75 1286.88 589.5 1281.88 594.5C1277.12 599.5 1271.88 604.125 1266.12 608.375C1260.62 612.625 1254.75 616.25 1248.51 619.25C1242.51 622 1236.24 623.375 1229.74 623.375C1216.5 623.375 1209.88 617 1209.88 604.25C1209.88 599 1212 592.125 1216.24 583.625C1220.74 574.875 1226.51 565.75 1233.51 556.25C1240.51 546.75 1248.24 537.625 1256.74 528.875C1265.24 519.875 1273.74 512.5 1282.24 506.75C1290.74 500.75 1298.51 497 1305.51 495.5C1312.75 494 1318.62 496.125 1323.12 501.875C1323.12 508.625 1322.62 515.375 1321.62 522.125C1320.62 528.875 1319.62 535.625 1318.62 542.375C1317.62 548.875 1316.62 555.375 1315.62 561.875C1314.62 568.375 1314.12 575 1314.12 581.75C1314.12 583.25 1314.25 585.625 1314.51 588.875C1315.01 591.875 1315.62 595 1316.38 598.25C1317.38 601.25 1318.62 604 1320.12 606.5C1321.62 608.75 1323.62 609.875 1326.12 609.875C1332.12 609.875 1337 609.125 1340.74 607.625C1344.74 606.125 1348.12 604.375 1350.88 602.375C1353.88 600.125 1356.38 597.625 1358.38 594.875C1360.62 592.125 1362.88 589.375 1365.12 586.625C1367.62 583.875 1370.38 581.25 1373.38 578.75C1376.38 576.25 1380.25 574.25 1385.01 572.75C1385.01 572.75 1385.01 573.125 1385.01 573.875C1385.01 574.625 1385.01 575.25 1385.01 575.75C1385.01 582 1383.12 588.25 1379.38 594.5C1375.62 600.5 1370.88 605.875 1365.12 610.625C1359.38 615.375 1352.88 619.25 1345.62 622.25C1338.62 625 1331.75 626.375 1325.01 626.375C1319.25 626.375 1314.62 624.75 1311.12 621.5C1307.62 618.25 1304.75 614.375 1302.51 609.875C1300.51 605.375 1299.01 600.5 1298.01 595.25C1297.01 589.75 1296.01 584.75 1295.01 580.25ZM1301.74 531.125C1304.24 522.875 1305.12 517.25 1304.38 514.25C1303.88 511.25 1302.12 510.125 1299.12 510.875C1296.12 511.375 1292.25 513.5 1287.51 517.25C1282.75 520.75 1277.62 525.125 1272.12 530.375C1266.62 535.375 1261.12 541 1255.62 547.25C1250.12 553.5 1245 559.5 1240.24 565.25C1235.5 570.75 1231.62 575.75 1228.62 580.25C1225.62 584.75 1223.75 588 1223.01 590C1221.51 595.75 1221.24 600.125 1222.24 603.125C1223.5 606.125 1225.25 608.25 1227.51 609.5C1230.01 610.5 1232.62 610.625 1235.38 609.875C1238.38 609.125 1240.88 608 1242.88 606.5C1247.12 602.75 1252.51 597.75 1259.01 591.5C1265.51 585 1271.74 578.125 1277.74 570.875C1284 563.625 1289.38 556.5 1293.88 549.5C1298.38 542.25 1301 536.125 1301.74 531.125Z" fill="white"/>
<path d="M609.5 468.875C607.75 467.375 605.375 465.375 602.375 462.875C599.625 460.125 597 457.25 594.5 454.25C592.25 451 590.625 447.875 589.625 444.875C588.875 441.625 589.75 438.875 592.25 436.625C594.25 434.875 595.875 434 597.125 434C598.375 434 600 434.75 602 436.25C604.5 439 607.5 442.25 611 446C614.75 449.5 617.375 453.125 618.875 456.875L635 480.125C632.75 482.625 630.375 483.75 627.875 483.5C625.375 483 623 482 620.75 480.5C618.75 478.75 616.75 476.75 614.75 474.5C612.75 472.25 611 470.375 609.5 468.875Z" fill="white" fill-opacity="0.2"/>
<path d="M589.5 458.875C587.75 457.375 585.375 455.375 582.375 452.875C579.625 450.125 577 447.25 574.5 444.25C572.25 441 570.625 437.875 569.625 434.875C568.875 431.625 569.75 428.875 572.25 426.625C574.25 424.875 575.875 424 577.125 424C578.375 424 580 424.75 582 426.25C584.5 429 587.5 432.25 591 436C594.75 439.5 597.375 443.125 598.875 446.875L615 470.125C612.75 472.625 610.375 473.75 607.875 473.5C605.375 473 603 472 600.75 470.5C598.75 468.75 596.75 466.75 594.75 464.5C592.75 462.25 591 460.375 589.5 458.875Z" fill="#5A1F1F"/>
</svg>
