<svg width="1305" height="661" viewBox="0 0 1305 661" fill="none" xmlns="http://www.w3.org/2000/svg">
<path d="M20.375 317.5C20.375 315.5 20.625 311.5 21.125 305.5C21.875 299.5 22.75 292.75 23.75 285.25C25 277.5 26.5 269.5 28.25 261.25C30 252.75 32.125 245 34.625 238C37.375 231 40.375 225.25 43.625 220.75C46.875 216.25 50.625 214 54.875 214C60.125 214 64.25 216 67.25 220C70.25 224 72.5 228.75 74 234.25C75.75 239.5 76.875 245 77.375 250.75C78.125 256.25 78.5 260.625 78.5 263.875C73.25 263.875 69.875 263 68.375 261.25C66.875 259.5 65.75 257.375 65 254.875C64.5 252.375 63.875 249.875 63.125 247.375C62.375 244.625 60.25 242.25 56.75 240.25C51 243.75 46.625 248.75 43.625 255.25C40.625 261.5 38.25 268.375 36.5 275.875C35 283.375 34.125 290.75 33.875 298C33.625 305.25 33.5 311.75 33.5 317.5C33.5 324.5 34.75 330.375 37.25 335.125C40 339.875 45.375 342.25 53.375 342.25C59.625 342.25 65.625 341 71.375 338.5C77.125 336 82.625 332.875 87.875 329.125C93.125 325.125 98 320.875 102.5 316.375C107.25 311.625 111.625 307.125 115.625 302.875H122.75C122.75 302.875 122.625 303.375 122.375 304.375C122.375 305.125 122.25 305.75 122 306.25C118.5 313.5 114.125 320.125 108.875 326.125C103.625 332.125 97.875 337.25 91.625 341.5C85.375 345.75 78.5 349.125 71 351.625C63.75 354.125 56.125 355.375 48.125 355.375C42.375 355.375 37.625 354.5 33.875 352.75C30.375 350.75 27.625 348.125 25.625 344.875C23.625 341.375 22.25 337.375 21.5 332.875C20.75 328.125 20.375 323 20.375 317.5ZM203 309.25C199.25 313.75 194.875 318.5 189.875 323.5C185.125 328.5 179.875 333.125 174.125 337.375C168.625 341.625 162.75 345.25 156.5 348.25C150.5 351 144.25 352.375 137.75 352.375C124.5 352.375 117.875 346 117.875 333.25C117.875 328 120 321.125 124.25 312.625C128.75 303.875 134.5 294.75 141.5 285.25C148.5 275.75 156.25 266.625 164.75 257.875C173.25 248.875 181.75 241.5 190.25 235.75C198.75 229.75 206.5 226 213.5 224.5C220.75 223 226.625 225.125 231.125 230.875C231.125 237.625 230.625 244.375 229.625 251.125C228.625 257.875 227.625 264.625 226.625 271.375C225.625 277.875 224.625 284.375 223.625 290.875C222.625 297.375 222.125 304 222.125 310.75C222.125 312.25 222.25 314.625 222.5 317.875C223 320.875 223.625 324 224.375 327.25C225.375 330.25 226.625 333 228.125 335.5C229.625 337.75 231.625 338.875 234.125 338.875C240.125 338.875 245 338.125 248.75 336.625C252.75 335.125 256.125 333.375 258.875 331.375C261.875 329.125 264.375 326.625 266.375 323.875C268.625 321.125 270.875 318.375 273.125 315.625C275.625 312.875 278.375 310.25 281.375 307.75C284.375 305.25 288.25 303.25 293 301.75C293 301.75 293 302.125 293 302.875C293 303.625 293 304.25 293 304.75C293 311 291.125 317.25 287.375 323.5C283.625 329.5 278.875 334.875 273.125 339.625C267.375 344.375 260.875 348.25 253.625 351.25C246.625 354 239.75 355.375 233 355.375C227.25 355.375 222.625 353.75 219.125 350.5C215.625 347.25 212.75 343.375 210.5 338.875C208.5 334.375 207 329.5 206 324.25C205 318.75 204 313.75 203 309.25ZM209.75 260.125C212.25 251.875 213.125 246.25 212.375 243.25C211.875 240.25 210.125 239.125 207.125 239.875C204.125 240.375 200.25 242.5 195.5 246.25C190.75 249.75 185.625 254.125 180.125 259.375C174.625 264.375 169.125 270 163.625 276.25C158.125 282.5 153 288.5 148.25 294.25C143.5 299.75 139.625 304.75 136.625 309.25C133.625 313.75 131.75 317 131 319C129.5 324.75 129.25 329.125 130.25 332.125C131.5 335.125 133.25 337.25 135.5 338.5C138 339.5 140.625 339.625 143.375 338.875C146.375 338.125 148.875 337 150.875 335.5C155.125 331.75 160.5 326.75 167 320.5C173.5 314 179.75 307.125 185.75 299.875C192 292.625 197.375 285.5 201.875 278.5C206.375 271.25 209 265.125 209.75 260.125ZM301.625 442C301.625 433.5 302 424.75 302.75 415.75C303.5 406.75 304.375 397.625 305.375 388.375C306.625 379.375 308 370.375 309.5 361.375C311.25 352.375 313 343.75 314.75 335.5L291.875 358C291.625 358.25 291.5 358.375 291.5 358.375C291.25 358.625 290.875 358.75 290.375 358.75C289.875 358.75 289.5 358.625 289.25 358.375C289.25 358.375 289 358.25 288.5 358C288.25 358 287.625 357.5 286.625 356.5C285.875 355.5 285.375 355 285.125 355C284.875 355 284.125 355.125 282.875 355.375C281.625 355.625 280.25 355.875 278.75 356.125C277.25 356.625 275.875 357 274.625 357.25C273.125 357.75 272.375 358 272.375 358H270.5C269 358 268 357.625 267.5 356.875C266.75 356.375 266.25 355.625 266 354.625C265.75 353.625 265.625 352.5 265.625 351.25C265.625 350 265.625 348.875 265.625 347.875C265.625 345.375 265.875 343 266.375 340.75C266.625 338.5 268.625 336.75 272.375 335.5C272.375 335.5 273.125 335.5 274.625 335.5C275.875 335.5 277.25 335.5 278.75 335.5C280.25 335.5 281.625 335.5 282.875 335.5C284.125 335.5 284.875 335.5 285.125 335.5C288.375 334.75 292.5 332.375 297.5 328.375C302.75 324.125 307.75 319.25 312.5 313.75C317.25 308 321.125 302.125 324.125 296.125C327.375 289.875 328.625 284.5 327.875 280C328.625 277 330 271.875 332 264.625C334.25 257.125 336.5 249.125 338.75 240.625C341.25 232.125 343.625 224.25 345.875 217C348.125 209.5 349.75 204.25 350.75 201.25C351.25 200 352.125 197.625 353.375 194.125C354.875 190.375 356.625 186.625 358.625 182.875C360.625 178.875 363 175.375 365.75 172.375C368.75 169.375 372 167.875 375.5 167.875C377.75 167.875 379.375 168.5 380.375 169.75C381.625 171 382.5 172.5 383 174.25C383.5 176 383.75 177.875 383.75 179.875C383.75 181.875 383.75 183.5 383.75 184.75C383.75 185.75 383.75 187.5 383.75 190C383.75 192.5 383.625 194.125 383.375 194.875C382.375 197.625 380.625 202.625 378.125 209.875C375.875 217.125 373.375 224.75 370.625 232.75C367.875 240.5 365.25 248 362.75 255.25C360.25 262.25 358.375 267.25 357.125 270.25C356.875 271 356.25 272.25 355.25 274C354.5 275.75 353.625 277.75 352.625 280C351.625 282 350.5 284 349.25 286C348.25 287.75 347.625 289 347.375 289.75H348.875H350.75C351.75 289.5 353.875 288.75 357.125 287.5C360.625 286 364.375 284.5 368.375 283C372.625 281.5 376.5 280.125 380 278.875C383.5 277.625 385.75 276.75 386.75 276.25C387 276.25 388 276.25 389.75 276.25C391.75 276 393.25 275.875 394.25 275.875C403.25 275.875 411 277.75 417.5 281.5C424.25 285 429.625 289.75 433.625 295.75C437.875 301.5 441 308.25 443 316C445 323.75 446 331.75 446 340C446 343.25 445.75 347.875 445.25 353.875C444.75 359.625 443.875 366.125 442.625 373.375C441.625 380.875 440.375 388.5 438.875 396.25C437.375 404.25 435.625 411.75 433.625 418.75C431.625 425.75 429.375 432 426.875 437.5C424.375 443.25 421.875 447.5 419.375 450.25L380.375 489.25C378.125 491.5 375.375 493.25 372.125 494.5C368.875 496 365.5 497 362 497.5C358.75 498.25 355.375 498.75 351.875 499C348.375 499.25 345.25 499.375 342.5 499.375C334 499.375 327.125 497.75 321.875 494.5C316.625 491.5 312.5 487.375 309.5 482.125C306.5 476.875 304.375 470.75 303.125 463.75C302.125 457 301.625 449.75 301.625 442ZM314.375 439C314.375 445.25 314.5 451.25 314.75 457C315 462.75 316 467.75 317.75 472C319.75 476.25 322.75 479.625 326.75 482.125C331 484.875 336.875 486.25 344.375 486.25C354.875 486.25 364.375 483.875 372.875 479.125C381.375 474.625 388.875 468.5 395.375 460.75C401.875 453 407.5 444.125 412.25 434.125C417 424.375 420.875 414.25 423.875 403.75C427.125 393.25 429.375 382.875 430.625 372.625C432.125 362.375 432.875 353.125 432.875 344.875C432.875 338.375 432.5 331.875 431.75 325.375C431.25 318.625 429.75 312.625 427.25 307.375C424.75 302.125 421.125 297.875 416.375 294.625C411.875 291.125 405.75 289.375 398 289.375C385 289.375 373.875 291.75 364.625 296.5C355.625 301.25 348 307.5 341.75 315.25C335.5 323 330.625 332 327.125 342.25C323.625 352.5 320.875 363.125 318.875 374.125C317.125 385.125 315.875 396.25 315.125 407.5C314.625 418.75 314.375 429.25 314.375 439ZM360.5 214C360 214 359.25 215.125 358.25 217.375C357.25 219.375 356.25 222 355.25 225.25C354.5 228.25 353.625 231.625 352.625 235.375C351.625 238.875 350.875 242.25 350.375 245.5C349.875 248.5 349.5 251 349.25 253C349.25 255 349.5 256 350 256C350.75 256 351.5 255 352.25 253C353 251 353.875 248.5 354.875 245.5C355.875 242.25 356.75 238.875 357.5 235.375C358.5 231.625 359.25 228.25 359.75 225.25C360.5 222 360.875 219.375 360.875 217.375C361.125 215.125 361 214 360.5 214ZM461.75 308.125C460 309.125 458.625 309.375 457.625 308.875C456.625 308.375 455.875 307.625 455.375 306.625C455.125 305.625 454.875 304.5 454.625 303.25C454.625 301.75 454.625 300.75 454.625 300.25C454.625 295.25 455.25 292.25 456.5 291.25C457.75 290 459.375 289.25 461.375 289C463.375 288.5 465.5 287.875 467.75 287.125C470 286.375 472.125 284 474.125 280C477.125 273.75 479.75 267.25 482 260.5C484.5 253.5 487.5 247 491 241C494.5 235 498.875 230.125 504.125 226.375C509.625 222.625 517.125 220.75 526.625 220.75C528.125 220.75 529.75 220.875 531.5 221.125C533.5 221.375 535.25 221.875 536.75 222.625C538.5 223.125 539.875 224.125 540.875 225.625C542.125 226.875 542.75 228.625 542.75 230.875C542.75 236.125 541.375 240.875 538.625 245.125C536.125 249.125 532.875 252.875 528.875 256.375C525.125 259.625 521 262.75 516.5 265.75C512 268.75 507.875 271.625 504.125 274.375C500.375 277.125 497.125 280 494.375 283C491.875 286 490.625 289.25 490.625 292.75V328.75C490.625 331.5 491.625 333.75 493.625 335.5C495.875 337 498.375 338.25 501.125 339.25C503.875 340.25 506.75 341 509.75 341.5C512.75 342 515 342.25 516.5 342.25C522.5 342.25 528.5 341.25 534.5 339.25C540.5 337 546.25 334.25 551.75 331C557.5 327.75 562.875 324.25 567.875 320.5C572.875 316.5 577.625 312.75 582.125 309.25C583.625 308 584.875 306.75 585.875 305.5C587.125 304 588.25 302.625 589.25 301.375C590.5 300.125 591.75 299.125 593 298.375C594.5 297.375 596.375 296.625 598.625 296.125C598.625 296.375 598.625 296.875 598.625 297.625C598.625 298.375 598.625 299 598.625 299.5C598.625 301.5 598.375 303.25 597.875 304.75C597.625 306.25 596.75 307.75 595.25 309.25C589.75 315.5 583.875 321.375 577.625 326.875C571.375 332.375 564.75 337.25 557.75 341.5C550.75 345.75 543.375 349.125 535.625 351.625C527.875 354.125 519.625 355.375 510.875 355.375C502.125 355.375 495.375 354.125 490.625 351.625C485.875 349.125 482.125 345.5 479.375 340.75C476.875 336 475.125 330.375 474.125 323.875C473.125 317.375 472 310.375 470.75 302.875L461.75 308.125ZM510.125 250C510.125 249.5 509.625 249.625 508.625 250.375C507.875 250.875 506.875 251.625 505.625 252.625C504.625 253.625 503.875 254.625 503.375 255.625C502.875 256.375 502.875 256.75 503.375 256.75C504.625 257 506.125 256.25 507.875 254.5C509.625 252.75 510.375 251.25 510.125 250ZM821.75 309.25C818 313.75 813.625 318.5 808.625 323.5C803.875 328.5 798.625 333.125 792.875 337.375C787.375 341.625 781.5 345.25 775.25 348.25C769.25 351 763 352.375 756.5 352.375C743.25 352.375 736.625 346 736.625 333.25C736.625 328 738.75 321.125 743 312.625C747.5 303.875 753.25 294.75 760.25 285.25C767.25 275.75 775 266.625 783.5 257.875C792 248.875 800.5 241.5 809 235.75C817.5 229.75 825.25 226 832.25 224.5C839.5 223 845.375 225.125 849.875 230.875C849.875 237.625 849.375 244.375 848.375 251.125C847.375 257.875 846.375 264.625 845.375 271.375C844.375 277.875 843.375 284.375 842.375 290.875C841.375 297.375 840.875 304 840.875 310.75C840.875 312.25 841 314.625 841.25 317.875C841.75 320.875 842.375 324 843.125 327.25C844.125 330.25 845.375 333 846.875 335.5C848.375 337.75 850.375 338.875 852.875 338.875C858.875 338.875 863.75 338.125 867.5 336.625C871.5 335.125 874.875 333.375 877.625 331.375C880.625 329.125 883.125 326.625 885.125 323.875C887.375 321.125 889.625 318.375 891.875 315.625C894.375 312.875 897.125 310.25 900.125 307.75C903.125 305.25 907 303.25 911.75 301.75C911.75 301.75 911.75 302.125 911.75 302.875C911.75 303.625 911.75 304.25 911.75 304.75C911.75 311 909.875 317.25 906.125 323.5C902.375 329.5 897.625 334.875 891.875 339.625C886.125 344.375 879.625 348.25 872.375 351.25C865.375 354 858.5 355.375 851.75 355.375C846 355.375 841.375 353.75 837.875 350.5C834.375 347.25 831.5 343.375 829.25 338.875C827.25 334.375 825.75 329.5 824.75 324.25C823.75 318.75 822.75 313.75 821.75 309.25ZM828.5 260.125C831 251.875 831.875 246.25 831.125 243.25C830.625 240.25 828.875 239.125 825.875 239.875C822.875 240.375 819 242.5 814.25 246.25C809.5 249.75 804.375 254.125 798.875 259.375C793.375 264.375 787.875 270 782.375 276.25C776.875 282.5 771.75 288.5 767 294.25C762.25 299.75 758.375 304.75 755.375 309.25C752.375 313.75 750.5 317 749.75 319C748.25 324.75 748 329.125 749 332.125C750.25 335.125 752 337.25 754.25 338.5C756.75 339.5 759.375 339.625 762.125 338.875C765.125 338.125 767.625 337 769.625 335.5C773.875 331.75 779.25 326.75 785.75 320.5C792.25 314 798.5 307.125 804.5 299.875C810.75 292.625 816.125 285.5 820.625 278.5C825.125 271.25 827.75 265.125 828.5 260.125ZM941 253.75L937.625 240.25L930.875 244L891.875 283C891.625 283.25 890.75 283 889.25 282.25C887.5 281.25 886.25 280.5 885.5 280C885 279.5 884.375 278.875 883.625 278.125C882.625 277.125 882.125 276.5 882.125 276.25V274.75C882.125 273.25 883.25 270.875 885.5 267.625C887.5 264.375 890.25 260.75 893.75 256.75C897.25 252.75 901.125 248.625 905.375 244.375C909.875 239.875 914.25 236 918.5 232.75C923 229.25 927.25 226.375 931.25 224.125C935.25 221.875 938.625 220.75 941.375 220.75C946.125 220.75 949.625 223 951.875 227.5C954.375 231.75 956 236.875 956.75 242.875C957.75 248.625 958.125 254.5 957.875 260.5C957.625 266.25 957.5 270.5 957.5 273.25C958.25 272 959.875 269.875 962.375 266.875C964.875 263.625 967.5 260.25 970.25 256.75C973 253 975.625 249.625 978.125 246.625C980.625 243.625 982.375 241.5 983.375 240.25C984.125 239.5 985.75 237.75 988.25 235C991 232 993.875 229 996.875 226C1000.12 222.75 1003.5 220 1007 217.75C1010.5 215.25 1013.5 214 1016 214C1020.5 214 1023.75 215.375 1025.75 218.125C1027.75 220.625 1029 223.75 1029.5 227.5C1030.25 231.25 1030.5 235.25 1030.25 239.5C1030 243.5 1029.88 246.875 1029.88 249.625C1029.88 259.125 1029.25 268.5 1028 277.75C1026.75 287 1026.12 296.5 1026.12 306.25V309.25C1031.38 303.25 1035.88 296.625 1039.62 289.375C1043.62 282.125 1047.62 275 1051.62 268C1055.62 260.75 1059.88 253.875 1064.38 247.375C1069.12 240.875 1074.88 235.375 1081.62 230.875C1082.12 230.625 1082.88 230.5 1083.88 230.5C1085.12 230.25 1086 230.125 1086.5 230.125C1089.25 230.125 1091.25 231 1092.5 232.75C1094 234.25 1094.88 236.25 1095.12 238.75C1095.62 241 1095.75 243.375 1095.5 245.875C1095.25 248.375 1095.12 250.5 1095.12 252.25C1095.12 263 1094.5 273.625 1093.25 284.125C1092 294.375 1091.38 304.875 1091.38 315.625C1091.38 321.375 1092.62 325.125 1095.12 326.875C1097.88 328.625 1102.12 329.5 1107.88 329.5C1110.62 329.5 1113 329.125 1115 328.375C1117.25 327.375 1119.38 326.375 1121.38 325.375C1123.38 324.125 1125.38 323.125 1127.38 322.375C1129.62 321.375 1132 320.875 1134.5 320.875C1134.5 324.625 1133.5 328.125 1131.5 331.375C1129.5 334.375 1127 337 1124 339.25C1121 341.25 1117.62 342.875 1113.88 344.125C1110.12 345.125 1106.62 345.625 1103.38 345.625C1100.62 345.625 1097.75 345.25 1094.75 344.5C1092 343.75 1089.38 342.625 1086.88 341.125C1084.62 339.375 1082.62 337.25 1080.88 334.75C1079.38 332.25 1078.62 329.25 1078.62 325.75V253.75C1075.88 255.75 1072.75 259.375 1069.25 264.625C1066 269.875 1062.5 275.875 1058.75 282.625C1055.25 289.375 1051.62 296.5 1047.88 304C1044.38 311.5 1040.88 318.25 1037.38 324.25C1033.88 330.25 1030.5 335.375 1027.25 339.625C1024 343.625 1021 345.625 1018.25 345.625C1015.5 345.625 1013.5 344.375 1012.25 341.875C1011 339.375 1010.12 336.625 1009.62 333.625C1009.38 330.375 1009.25 327.375 1009.25 324.625C1009.25 321.875 1009.25 320 1009.25 319C1009.25 313 1009.62 307 1010.38 301C1011.12 295 1012 289 1013 283C1014 276.75 1014.88 270.625 1015.62 264.625C1016.38 258.625 1016.75 252.625 1016.75 246.625C1016.75 245.875 1016.75 244.75 1016.75 243.25C1016.75 241.75 1016.5 240.375 1016 239.125C1015.75 237.625 1015.25 236.375 1014.5 235.375C1013.75 234.125 1012.75 233.5 1011.5 233.5C1011.25 233.5 1011 233.625 1010.75 233.875C1010.75 233.875 1010.62 233.875 1010.38 233.875C1010.38 234.125 1010.12 234.25 1009.62 234.25C1009.38 234.25 1008.88 234.625 1008.12 235.375C1007.38 236.125 1006.88 236.75 1006.62 237.25C1003.88 240.75 1000.25 245.25 995.75 250.75C991.25 256.25 986.875 261.625 982.625 266.875C978.375 272.125 974.75 276.625 971.75 280.375C968.75 284.125 967.125 286 966.875 286C966.125 287.5 964.75 291.125 962.75 296.875C961 302.625 959 308.875 956.75 315.625C954.75 322.125 952.875 328.375 951.125 334.375C949.375 340.125 948.125 343.75 947.375 345.25C946.125 349.25 944.5 352 942.5 353.5C940.5 355 937.5 355.75 933.5 355.75C933.5 347.25 933.875 338.875 934.625 330.625C935.375 322.375 936.25 314.125 937.25 305.875C938.25 297.375 939.125 289 939.875 280.75C940.625 272.25 941 263.625 941 254.875V253.75ZM1214.38 309.25C1210.62 313.75 1206.25 318.5 1201.25 323.5C1196.5 328.5 1191.25 333.125 1185.5 337.375C1180 341.625 1174.12 345.25 1167.88 348.25C1161.88 351 1155.62 352.375 1149.12 352.375C1135.88 352.375 1129.25 346 1129.25 333.25C1129.25 328 1131.38 321.125 1135.62 312.625C1140.12 303.875 1145.88 294.75 1152.88 285.25C1159.88 275.75 1167.62 266.625 1176.12 257.875C1184.62 248.875 1193.12 241.5 1201.62 235.75C1210.12 229.75 1217.88 226 1224.88 224.5C1232.12 223 1238 225.125 1242.5 230.875C1242.5 237.625 1242 244.375 1241 251.125C1240 257.875 1239 264.625 1238 271.375C1237 277.875 1236 284.375 1235 290.875C1234 297.375 1233.5 304 1233.5 310.75C1233.5 312.25 1233.62 314.625 1233.88 317.875C1234.38 320.875 1235 324 1235.75 327.25C1236.75 330.25 1238 333 1239.5 335.5C1241 337.75 1243 338.875 1245.5 338.875C1251.5 338.875 1256.38 338.125 1260.12 336.625C1264.12 335.125 1267.5 333.375 1270.25 331.375C1273.25 329.125 1275.75 326.625 1277.75 323.875C1280 321.125 1282.25 318.375 1284.5 315.625C1287 312.875 1289.75 310.25 1292.75 307.75C1295.75 305.25 1299.62 303.25 1304.38 301.75C1304.38 301.75 1304.38 302.125 1304.38 302.875C1304.38 303.625 1304.38 304.25 1304.38 304.75C1304.38 311 1302.5 317.25 1298.75 323.5C1295 329.5 1290.25 334.875 1284.5 339.625C1278.75 344.375 1272.25 348.25 1265 351.25C1258 354 1251.12 355.375 1244.38 355.375C1238.62 355.375 1234 353.75 1230.5 350.5C1227 347.25 1224.12 343.375 1221.88 338.875C1219.88 334.375 1218.38 329.5 1217.38 324.25C1216.38 318.75 1215.38 313.75 1214.38 309.25ZM1221.12 260.125C1223.62 251.875 1224.5 246.25 1223.75 243.25C1223.25 240.25 1221.5 239.125 1218.5 239.875C1215.5 240.375 1211.62 242.5 1206.88 246.25C1202.12 249.75 1197 254.125 1191.5 259.375C1186 264.375 1180.5 270 1175 276.25C1169.5 282.5 1164.38 288.5 1159.62 294.25C1154.88 299.75 1151 304.75 1148 309.25C1145 313.75 1143.12 317 1142.38 319C1140.88 324.75 1140.62 329.125 1141.62 332.125C1142.88 335.125 1144.62 337.25 1146.88 338.5C1149.38 339.5 1152 339.625 1154.75 338.875C1157.75 338.125 1160.25 337 1162.25 335.5C1166.5 331.75 1171.88 326.75 1178.38 320.5C1184.88 314 1191.12 307.125 1197.12 299.875C1203.38 292.625 1208.75 285.5 1213.25 278.5C1217.75 271.25 1220.38 265.125 1221.12 260.125Z" fill="white" fill-opacity="0.2"/>
<path d="M6.375 312.5C6.375 310.5 6.625 306.5 7.125 300.5C7.875 294.5 8.75 287.75 9.75 280.25C11 272.5 12.5 264.5 14.25 256.25C16 247.75 18.125 240 20.625 233C23.375 226 26.375 220.25 29.625 215.75C32.875 211.25 36.625 209 40.875 209C46.125 209 50.25 211 53.25 215C56.25 219 58.5 223.75 60 229.25C61.75 234.5 62.875 240 63.375 245.75C64.125 251.25 64.5 255.625 64.5 258.875C59.25 258.875 55.875 258 54.375 256.25C52.875 254.5 51.75 252.375 51 249.875C50.5 247.375 49.875 244.875 49.125 242.375C48.375 239.625 46.25 237.25 42.75 235.25C37 238.75 32.625 243.75 29.625 250.25C26.625 256.5 24.25 263.375 22.5 270.875C21 278.375 20.125 285.75 19.875 293C19.625 300.25 19.5 306.75 19.5 312.5C19.5 319.5 20.75 325.375 23.25 330.125C26 334.875 31.375 337.25 39.375 337.25C45.625 337.25 51.625 336 57.375 333.5C63.125 331 68.625 327.875 73.875 324.125C79.125 320.125 84 315.875 88.5 311.375C93.25 306.625 97.625 302.125 101.625 297.875H108.75C108.75 297.875 108.625 298.375 108.375 299.375C108.375 300.125 108.25 300.75 108 301.25C104.5 308.5 100.125 315.125 94.875 321.125C89.625 327.125 83.875 332.25 77.625 336.5C71.375 340.75 64.5 344.125 57 346.625C49.75 349.125 42.125 350.375 34.125 350.375C28.375 350.375 23.625 349.5 19.875 347.75C16.375 345.75 13.625 343.125 11.625 339.875C9.625 336.375 8.25 332.375 7.5 327.875C6.75 323.125 6.375 318 6.375 312.5ZM189 304.25C185.25 308.75 180.875 313.5 175.875 318.5C171.125 323.5 165.875 328.125 160.125 332.375C154.625 336.625 148.75 340.25 142.5 343.25C136.5 346 130.25 347.375 123.75 347.375C110.5 347.375 103.875 341 103.875 328.25C103.875 323 106 316.125 110.25 307.625C114.75 298.875 120.5 289.75 127.5 280.25C134.5 270.75 142.25 261.625 150.75 252.875C159.25 243.875 167.75 236.5 176.25 230.75C184.75 224.75 192.5 221 199.5 219.5C206.75 218 212.625 220.125 217.125 225.875C217.125 232.625 216.625 239.375 215.625 246.125C214.625 252.875 213.625 259.625 212.625 266.375C211.625 272.875 210.625 279.375 209.625 285.875C208.625 292.375 208.125 299 208.125 305.75C208.125 307.25 208.25 309.625 208.5 312.875C209 315.875 209.625 319 210.375 322.25C211.375 325.25 212.625 328 214.125 330.5C215.625 332.75 217.625 333.875 220.125 333.875C226.125 333.875 231 333.125 234.75 331.625C238.75 330.125 242.125 328.375 244.875 326.375C247.875 324.125 250.375 321.625 252.375 318.875C254.625 316.125 256.875 313.375 259.125 310.625C261.625 307.875 264.375 305.25 267.375 302.75C270.375 300.25 274.25 298.25 279 296.75C279 296.75 279 297.125 279 297.875C279 298.625 279 299.25 279 299.75C279 306 277.125 312.25 273.375 318.5C269.625 324.5 264.875 329.875 259.125 334.625C253.375 339.375 246.875 343.25 239.625 346.25C232.625 349 225.75 350.375 219 350.375C213.25 350.375 208.625 348.75 205.125 345.5C201.625 342.25 198.75 338.375 196.5 333.875C194.5 329.375 193 324.5 192 319.25C191 313.75 190 308.75 189 304.25ZM195.75 255.125C198.25 246.875 199.125 241.25 198.375 238.25C197.875 235.25 196.125 234.125 193.125 234.875C190.125 235.375 186.25 237.5 181.5 241.25C176.75 244.75 171.625 249.125 166.125 254.375C160.625 259.375 155.125 265 149.625 271.25C144.125 277.5 139 283.5 134.25 289.25C129.5 294.75 125.625 299.75 122.625 304.25C119.625 308.75 117.75 312 117 314C115.5 319.75 115.25 324.125 116.25 327.125C117.5 330.125 119.25 332.25 121.5 333.5C124 334.5 126.625 334.625 129.375 333.875C132.375 333.125 134.875 332 136.875 330.5C141.125 326.75 146.5 321.75 153 315.5C159.5 309 165.75 302.125 171.75 294.875C178 287.625 183.375 280.5 187.875 273.5C192.375 266.25 195 260.125 195.75 255.125ZM287.625 437C287.625 428.5 288 419.75 288.75 410.75C289.5 401.75 290.375 392.625 291.375 383.375C292.625 374.375 294 365.375 295.5 356.375C297.25 347.375 299 338.75 300.75 330.5L277.875 353C277.625 353.25 277.5 353.375 277.5 353.375C277.25 353.625 276.875 353.75 276.375 353.75C275.875 353.75 275.5 353.625 275.25 353.375C275.25 353.375 275 353.25 274.5 353C274.25 353 273.625 352.5 272.625 351.5C271.875 350.5 271.375 350 271.125 350C270.875 350 270.125 350.125 268.875 350.375C267.625 350.625 266.25 350.875 264.75 351.125C263.25 351.625 261.875 352 260.625 352.25C259.125 352.75 258.375 353 258.375 353H256.5C255 353 254 352.625 253.5 351.875C252.75 351.375 252.25 350.625 252 349.625C251.75 348.625 251.625 347.5 251.625 346.25C251.625 345 251.625 343.875 251.625 342.875C251.625 340.375 251.875 338 252.375 335.75C252.625 333.5 254.625 331.75 258.375 330.5C258.375 330.5 259.125 330.5 260.625 330.5C261.875 330.5 263.25 330.5 264.75 330.5C266.25 330.5 267.625 330.5 268.875 330.5C270.125 330.5 270.875 330.5 271.125 330.5C274.375 329.75 278.5 327.375 283.5 323.375C288.75 319.125 293.75 314.25 298.5 308.75C303.25 303 307.125 297.125 310.125 291.125C313.375 284.875 314.625 279.5 313.875 275C314.625 272 316 266.875 318 259.625C320.25 252.125 322.5 244.125 324.75 235.625C327.25 227.125 329.625 219.25 331.875 212C334.125 204.5 335.75 199.25 336.75 196.25C337.25 195 338.125 192.625 339.375 189.125C340.875 185.375 342.625 181.625 344.625 177.875C346.625 173.875 349 170.375 351.75 167.375C354.75 164.375 358 162.875 361.5 162.875C363.75 162.875 365.375 163.5 366.375 164.75C367.625 166 368.5 167.5 369 169.25C369.5 171 369.75 172.875 369.75 174.875C369.75 176.875 369.75 178.5 369.75 179.75C369.75 180.75 369.75 182.5 369.75 185C369.75 187.5 369.625 189.125 369.375 189.875C368.375 192.625 366.625 197.625 364.125 204.875C361.875 212.125 359.375 219.75 356.625 227.75C353.875 235.5 351.25 243 348.75 250.25C346.25 257.25 344.375 262.25 343.125 265.25C342.875 266 342.25 267.25 341.25 269C340.5 270.75 339.625 272.75 338.625 275C337.625 277 336.5 279 335.25 281C334.25 282.75 333.625 284 333.375 284.75H334.875H336.75C337.75 284.5 339.875 283.75 343.125 282.5C346.625 281 350.375 279.5 354.375 278C358.625 276.5 362.5 275.125 366 273.875C369.5 272.625 371.75 271.75 372.75 271.25C373 271.25 374 271.25 375.75 271.25C377.75 271 379.25 270.875 380.25 270.875C389.25 270.875 397 272.75 403.5 276.5C410.25 280 415.625 284.75 419.625 290.75C423.875 296.5 427 303.25 429 311C431 318.75 432 326.75 432 335C432 338.25 431.75 342.875 431.25 348.875C430.75 354.625 429.875 361.125 428.625 368.375C427.625 375.875 426.375 383.5 424.875 391.25C423.375 399.25 421.625 406.75 419.625 413.75C417.625 420.75 415.375 427 412.875 432.5C410.375 438.25 407.875 442.5 405.375 445.25L366.375 484.25C364.125 486.5 361.375 488.25 358.125 489.5C354.875 491 351.5 492 348 492.5C344.75 493.25 341.375 493.75 337.875 494C334.375 494.25 331.25 494.375 328.5 494.375C320 494.375 313.125 492.75 307.875 489.5C302.625 486.5 298.5 482.375 295.5 477.125C292.5 471.875 290.375 465.75 289.125 458.75C288.125 452 287.625 444.75 287.625 437ZM300.375 434C300.375 440.25 300.5 446.25 300.75 452C301 457.75 302 462.75 303.75 467C305.75 471.25 308.75 474.625 312.75 477.125C317 479.875 322.875 481.25 330.375 481.25C340.875 481.25 350.375 478.875 358.875 474.125C367.375 469.625 374.875 463.5 381.375 455.75C387.875 448 393.5 439.125 398.25 429.125C403 419.375 406.875 409.25 409.875 398.75C413.125 388.25 415.375 377.875 416.625 367.625C418.125 357.375 418.875 348.125 418.875 339.875C418.875 333.375 418.5 326.875 417.75 320.375C417.25 313.625 415.75 307.625 413.25 302.375C410.75 297.125 407.125 292.875 402.375 289.625C397.875 286.125 391.75 284.375 384 284.375C371 284.375 359.875 286.75 350.625 291.5C341.625 296.25 334 302.5 327.75 310.25C321.5 318 316.625 327 313.125 337.25C309.625 347.5 306.875 358.125 304.875 369.125C303.125 380.125 301.875 391.25 301.125 402.5C300.625 413.75 300.375 424.25 300.375 434ZM346.5 209C346 209 345.25 210.125 344.25 212.375C343.25 214.375 342.25 217 341.25 220.25C340.5 223.25 339.625 226.625 338.625 230.375C337.625 233.875 336.875 237.25 336.375 240.5C335.875 243.5 335.5 246 335.25 248C335.25 250 335.5 251 336 251C336.75 251 337.5 250 338.25 248C339 246 339.875 243.5 340.875 240.5C341.875 237.25 342.75 233.875 343.5 230.375C344.5 226.625 345.25 223.25 345.75 220.25C346.5 217 346.875 214.375 346.875 212.375C347.125 210.125 347 209 346.5 209ZM447.75 303.125C446 304.125 444.625 304.375 443.625 303.875C442.625 303.375 441.875 302.625 441.375 301.625C441.125 300.625 440.875 299.5 440.625 298.25C440.625 296.75 440.625 295.75 440.625 295.25C440.625 290.25 441.25 287.25 442.5 286.25C443.75 285 445.375 284.25 447.375 284C449.375 283.5 451.5 282.875 453.75 282.125C456 281.375 458.125 279 460.125 275C463.125 268.75 465.75 262.25 468 255.5C470.5 248.5 473.5 242 477 236C480.5 230 484.875 225.125 490.125 221.375C495.625 217.625 503.125 215.75 512.625 215.75C514.125 215.75 515.75 215.875 517.5 216.125C519.5 216.375 521.25 216.875 522.75 217.625C524.5 218.125 525.875 219.125 526.875 220.625C528.125 221.875 528.75 223.625 528.75 225.875C528.75 231.125 527.375 235.875 524.625 240.125C522.125 244.125 518.875 247.875 514.875 251.375C511.125 254.625 507 257.75 502.5 260.75C498 263.75 493.875 266.625 490.125 269.375C486.375 272.125 483.125 275 480.375 278C477.875 281 476.625 284.25 476.625 287.75V323.75C476.625 326.5 477.625 328.75 479.625 330.5C481.875 332 484.375 333.25 487.125 334.25C489.875 335.25 492.75 336 495.75 336.5C498.75 337 501 337.25 502.5 337.25C508.5 337.25 514.5 336.25 520.5 334.25C526.5 332 532.25 329.25 537.75 326C543.5 322.75 548.875 319.25 553.875 315.5C558.875 311.5 563.625 307.75 568.125 304.25C569.625 303 570.875 301.75 571.875 300.5C573.125 299 574.25 297.625 575.25 296.375C576.5 295.125 577.75 294.125 579 293.375C580.5 292.375 582.375 291.625 584.625 291.125C584.625 291.375 584.625 291.875 584.625 292.625C584.625 293.375 584.625 294 584.625 294.5C584.625 296.5 584.375 298.25 583.875 299.75C583.625 301.25 582.75 302.75 581.25 304.25C575.75 310.5 569.875 316.375 563.625 321.875C557.375 327.375 550.75 332.25 543.75 336.5C536.75 340.75 529.375 344.125 521.625 346.625C513.875 349.125 505.625 350.375 496.875 350.375C488.125 350.375 481.375 349.125 476.625 346.625C471.875 344.125 468.125 340.5 465.375 335.75C462.875 331 461.125 325.375 460.125 318.875C459.125 312.375 458 305.375 456.75 297.875L447.75 303.125ZM496.125 245C496.125 244.5 495.625 244.625 494.625 245.375C493.875 245.875 492.875 246.625 491.625 247.625C490.625 248.625 489.875 249.625 489.375 250.625C488.875 251.375 488.875 251.75 489.375 251.75C490.625 252 492.125 251.25 493.875 249.5C495.625 247.75 496.375 246.25 496.125 245ZM807.75 304.25C804 308.75 799.625 313.5 794.625 318.5C789.875 323.5 784.625 328.125 778.875 332.375C773.375 336.625 767.5 340.25 761.25 343.25C755.25 346 749 347.375 742.5 347.375C729.25 347.375 722.625 341 722.625 328.25C722.625 323 724.75 316.125 729 307.625C733.5 298.875 739.25 289.75 746.25 280.25C753.25 270.75 761 261.625 769.5 252.875C778 243.875 786.5 236.5 795 230.75C803.5 224.75 811.25 221 818.25 219.5C825.5 218 831.375 220.125 835.875 225.875C835.875 232.625 835.375 239.375 834.375 246.125C833.375 252.875 832.375 259.625 831.375 266.375C830.375 272.875 829.375 279.375 828.375 285.875C827.375 292.375 826.875 299 826.875 305.75C826.875 307.25 827 309.625 827.25 312.875C827.75 315.875 828.375 319 829.125 322.25C830.125 325.25 831.375 328 832.875 330.5C834.375 332.75 836.375 333.875 838.875 333.875C844.875 333.875 849.75 333.125 853.5 331.625C857.5 330.125 860.875 328.375 863.625 326.375C866.625 324.125 869.125 321.625 871.125 318.875C873.375 316.125 875.625 313.375 877.875 310.625C880.375 307.875 883.125 305.25 886.125 302.75C889.125 300.25 893 298.25 897.75 296.75C897.75 296.75 897.75 297.125 897.75 297.875C897.75 298.625 897.75 299.25 897.75 299.75C897.75 306 895.875 312.25 892.125 318.5C888.375 324.5 883.625 329.875 877.875 334.625C872.125 339.375 865.625 343.25 858.375 346.25C851.375 349 844.5 350.375 837.75 350.375C832 350.375 827.375 348.75 823.875 345.5C820.375 342.25 817.5 338.375 815.25 333.875C813.25 329.375 811.75 324.5 810.75 319.25C809.75 313.75 808.75 308.75 807.75 304.25ZM814.5 255.125C817 246.875 817.875 241.25 817.125 238.25C816.625 235.25 814.875 234.125 811.875 234.875C808.875 235.375 805 237.5 800.25 241.25C795.5 244.75 790.375 249.125 784.875 254.375C779.375 259.375 773.875 265 768.375 271.25C762.875 277.5 757.75 283.5 753 289.25C748.25 294.75 744.375 299.75 741.375 304.25C738.375 308.75 736.5 312 735.75 314C734.25 319.75 734 324.125 735 327.125C736.25 330.125 738 332.25 740.25 333.5C742.75 334.5 745.375 334.625 748.125 333.875C751.125 333.125 753.625 332 755.625 330.5C759.875 326.75 765.25 321.75 771.75 315.5C778.25 309 784.5 302.125 790.5 294.875C796.75 287.625 802.125 280.5 806.625 273.5C811.125 266.25 813.75 260.125 814.5 255.125ZM927 248.75L923.625 235.25L916.875 239L877.875 278C877.625 278.25 876.75 278 875.25 277.25C873.5 276.25 872.25 275.5 871.5 275C871 274.5 870.375 273.875 869.625 273.125C868.625 272.125 868.125 271.5 868.125 271.25V269.75C868.125 268.25 869.25 265.875 871.5 262.625C873.5 259.375 876.25 255.75 879.75 251.75C883.25 247.75 887.125 243.625 891.375 239.375C895.875 234.875 900.25 231 904.5 227.75C909 224.25 913.25 221.375 917.25 219.125C921.25 216.875 924.625 215.75 927.375 215.75C932.125 215.75 935.625 218 937.875 222.5C940.375 226.75 942 231.875 942.75 237.875C943.75 243.625 944.125 249.5 943.875 255.5C943.625 261.25 943.5 265.5 943.5 268.25C944.25 267 945.875 264.875 948.375 261.875C950.875 258.625 953.5 255.25 956.25 251.75C959 248 961.625 244.625 964.125 241.625C966.625 238.625 968.375 236.5 969.375 235.25C970.125 234.5 971.75 232.75 974.25 230C977 227 979.875 224 982.875 221C986.125 217.75 989.5 215 993 212.75C996.5 210.25 999.5 209 1002 209C1006.5 209 1009.75 210.375 1011.75 213.125C1013.75 215.625 1015 218.75 1015.5 222.5C1016.25 226.25 1016.5 230.25 1016.25 234.5C1016 238.5 1015.88 241.875 1015.88 244.625C1015.88 254.125 1015.25 263.5 1014 272.75C1012.75 282 1012.12 291.5 1012.12 301.25V304.25C1017.38 298.25 1021.88 291.625 1025.62 284.375C1029.62 277.125 1033.62 270 1037.62 263C1041.62 255.75 1045.88 248.875 1050.38 242.375C1055.12 235.875 1060.88 230.375 1067.62 225.875C1068.12 225.625 1068.88 225.5 1069.88 225.5C1071.12 225.25 1072 225.125 1072.5 225.125C1075.25 225.125 1077.25 226 1078.5 227.75C1080 229.25 1080.88 231.25 1081.12 233.75C1081.62 236 1081.75 238.375 1081.5 240.875C1081.25 243.375 1081.12 245.5 1081.12 247.25C1081.12 258 1080.5 268.625 1079.25 279.125C1078 289.375 1077.38 299.875 1077.38 310.625C1077.38 316.375 1078.62 320.125 1081.12 321.875C1083.88 323.625 1088.12 324.5 1093.88 324.5C1096.62 324.5 1099 324.125 1101 323.375C1103.25 322.375 1105.38 321.375 1107.38 320.375C1109.38 319.125 1111.38 318.125 1113.38 317.375C1115.62 316.375 1118 315.875 1120.5 315.875C1120.5 319.625 1119.5 323.125 1117.5 326.375C1115.5 329.375 1113 332 1110 334.25C1107 336.25 1103.62 337.875 1099.88 339.125C1096.12 340.125 1092.62 340.625 1089.38 340.625C1086.62 340.625 1083.75 340.25 1080.75 339.5C1078 338.75 1075.38 337.625 1072.88 336.125C1070.62 334.375 1068.62 332.25 1066.88 329.75C1065.38 327.25 1064.62 324.25 1064.62 320.75V248.75C1061.88 250.75 1058.75 254.375 1055.25 259.625C1052 264.875 1048.5 270.875 1044.75 277.625C1041.25 284.375 1037.62 291.5 1033.88 299C1030.38 306.5 1026.88 313.25 1023.38 319.25C1019.88 325.25 1016.5 330.375 1013.25 334.625C1010 338.625 1007 340.625 1004.25 340.625C1001.5 340.625 999.5 339.375 998.25 336.875C997 334.375 996.125 331.625 995.625 328.625C995.375 325.375 995.25 322.375 995.25 319.625C995.25 316.875 995.25 315 995.25 314C995.25 308 995.625 302 996.375 296C997.125 290 998 284 999 278C1000 271.75 1000.88 265.625 1001.62 259.625C1002.38 253.625 1002.75 247.625 1002.75 241.625C1002.75 240.875 1002.75 239.75 1002.75 238.25C1002.75 236.75 1002.5 235.375 1002 234.125C1001.75 232.625 1001.25 231.375 1000.5 230.375C999.75 229.125 998.75 228.5 997.5 228.5C997.25 228.5 997 228.625 996.75 228.875C996.75 228.875 996.625 228.875 996.375 228.875C996.375 229.125 996.125 229.25 995.625 229.25C995.375 229.25 994.875 229.625 994.125 230.375C993.375 231.125 992.875 231.75 992.625 232.25C989.875 235.75 986.25 240.25 981.75 245.75C977.25 251.25 972.875 256.625 968.625 261.875C964.375 267.125 960.75 271.625 957.75 275.375C954.75 279.125 953.125 281 952.875 281C952.125 282.5 950.75 286.125 948.75 291.875C947 297.625 945 303.875 942.75 310.625C940.75 317.125 938.875 323.375 937.125 329.375C935.375 335.125 934.125 338.75 933.375 340.25C932.125 344.25 930.5 347 928.5 348.5C926.5 350 923.5 350.75 919.5 350.75C919.5 342.25 919.875 333.875 920.625 325.625C921.375 317.375 922.25 309.125 923.25 300.875C924.25 292.375 925.125 284 925.875 275.75C926.625 267.25 927 258.625 927 249.875V248.75ZM1200.38 304.25C1196.62 308.75 1192.25 313.5 1187.25 318.5C1182.5 323.5 1177.25 328.125 1171.5 332.375C1166 336.625 1160.12 340.25 1153.88 343.25C1147.88 346 1141.62 347.375 1135.12 347.375C1121.88 347.375 1115.25 341 1115.25 328.25C1115.25 323 1117.38 316.125 1121.62 307.625C1126.12 298.875 1131.88 289.75 1138.88 280.25C1145.88 270.75 1153.62 261.625 1162.12 252.875C1170.62 243.875 1179.12 236.5 1187.62 230.75C1196.12 224.75 1203.88 221 1210.88 219.5C1218.12 218 1224 220.125 1228.5 225.875C1228.5 232.625 1228 239.375 1227 246.125C1226 252.875 1225 259.625 1224 266.375C1223 272.875 1222 279.375 1221 285.875C1220 292.375 1219.5 299 1219.5 305.75C1219.5 307.25 1219.62 309.625 1219.88 312.875C1220.38 315.875 1221 319 1221.75 322.25C1222.75 325.25 1224 328 1225.5 330.5C1227 332.75 1229 333.875 1231.5 333.875C1237.5 333.875 1242.38 333.125 1246.12 331.625C1250.12 330.125 1253.5 328.375 1256.25 326.375C1259.25 324.125 1261.75 321.625 1263.75 318.875C1266 316.125 1268.25 313.375 1270.5 310.625C1273 307.875 1275.75 305.25 1278.75 302.75C1281.75 300.25 1285.62 298.25 1290.38 296.75C1290.38 296.75 1290.38 297.125 1290.38 297.875C1290.38 298.625 1290.38 299.25 1290.38 299.75C1290.38 306 1288.5 312.25 1284.75 318.5C1281 324.5 1276.25 329.875 1270.5 334.625C1264.75 339.375 1258.25 343.25 1251 346.25C1244 349 1237.12 350.375 1230.38 350.375C1224.62 350.375 1220 348.75 1216.5 345.5C1213 342.25 1210.12 338.375 1207.88 333.875C1205.88 329.375 1204.38 324.5 1203.38 319.25C1202.38 313.75 1201.38 308.75 1200.38 304.25ZM1207.12 255.125C1209.62 246.875 1210.5 241.25 1209.75 238.25C1209.25 235.25 1207.5 234.125 1204.5 234.875C1201.5 235.375 1197.62 237.5 1192.88 241.25C1188.12 244.75 1183 249.125 1177.5 254.375C1172 259.375 1166.5 265 1161 271.25C1155.5 277.5 1150.38 283.5 1145.62 289.25C1140.88 294.75 1137 299.75 1134 304.25C1131 308.75 1129.12 312 1128.38 314C1126.88 319.75 1126.62 324.125 1127.62 327.125C1128.88 330.125 1130.62 332.25 1132.88 333.5C1135.38 334.5 1138 334.625 1140.75 333.875C1143.75 333.125 1146.25 332 1148.25 330.5C1152.5 326.75 1157.88 321.75 1164.38 315.5C1170.88 309 1177.12 302.125 1183.12 294.875C1189.38 287.625 1194.75 280.5 1199.25 273.5C1203.75 266.25 1206.38 260.125 1207.12 255.125Z" fill="white"/>
<path d="M514.875 192.875C513.125 191.375 510.75 189.375 507.75 186.875C505 184.125 502.375 181.25 499.875 178.25C497.625 175 496 171.875 495 168.875C494.25 165.625 495.125 162.875 497.625 160.625C499.625 158.875 501.25 158 502.5 158C503.75 158 505.375 158.75 507.375 160.25C509.875 163 512.875 166.25 516.375 170C520.125 173.5 522.75 177.125 524.25 180.875L540.375 204.125C538.125 206.625 535.75 207.75 533.25 207.5C530.75 207 528.375 206 526.125 204.5C524.125 202.75 522.125 200.75 520.125 198.5C518.125 196.25 516.375 194.375 514.875 192.875Z" fill="white" fill-opacity="0.2"/>
<path d="M494.875 182.875C493.125 181.375 490.75 179.375 487.75 176.875C485 174.125 482.375 171.25 479.875 168.25C477.625 165 476 161.875 475 158.875C474.25 155.625 475.125 152.875 477.625 150.625C479.625 148.875 481.25 148 482.5 148C483.75 148 485.375 148.75 487.375 150.25C489.875 153 492.875 156.25 496.375 160C500.125 163.5 502.75 167.125 504.25 170.875L520.375 194.125C518.125 196.625 515.75 197.75 513.25 197.5C510.75 197 508.375 196 506.125 194.5C504.125 192.75 502.125 190.75 500.125 188.5C498.125 186.25 496.375 184.375 494.875 182.875Z" fill="#5A1F1F"/>
</svg>
