<svg width="3292" height="569" viewBox="0 0 3292 569" fill="none" xmlns="http://www.w3.org/2000/svg">
<path d="M31.488 239.536H90.24V191.152C90.24 182.448 92.928 175.28 98.304 169.648C103.936 164.016 111.104 161.2 119.808 161.2H195.072V188.848H130.56C123.648 188.848 120.192 192.688 120.192 200.368V239.536H199.68V267.184H120.192V430H90.24V267.184H31.488V239.536ZM1207.88 161.2H1378.38V191.152H1309.26V400.048H1378.38V430H1207.88V400.048H1277V191.152H1207.88V161.2Z" fill="#FF00AA"/>
<path d="M290.421 343.984C291.189 362.928 297.077 378.16 308.085 389.68C319.093 401.2 334.453 406.96 354.165 406.96C363.125 406.96 370.933 405.936 377.589 403.888C384.245 401.84 389.877 399.024 394.485 395.44C399.349 391.856 403.189 387.76 406.005 383.152C409.077 378.288 411.509 373.168 413.301 367.792L441.717 375.472C436.341 393.136 426.357 407.6 411.765 418.864C397.429 429.872 377.973 435.376 353.397 435.376C339.829 435.376 327.285 433.072 315.765 428.464C304.501 423.6 294.773 416.816 286.581 408.112C278.389 399.408 271.989 389.04 267.381 377.008C262.773 364.976 260.469 351.664 260.469 337.072V327.856C260.469 314.544 262.773 302.128 267.381 290.608C272.245 279.088 278.901 269.232 287.349 261.04C295.797 252.592 305.653 246.064 316.917 241.456C328.437 236.592 340.853 234.16 354.165 234.16C369.781 234.16 383.221 237.104 394.485 242.992C406.005 248.624 415.349 255.664 422.517 264.112C429.941 272.56 435.317 281.776 438.645 291.76C442.229 301.744 444.021 310.96 444.021 319.408V343.984H290.421ZM354.165 262.576C345.717 262.576 337.781 263.984 330.357 266.8C323.189 269.36 316.789 273.072 311.157 277.936C305.781 282.8 301.301 288.56 297.717 295.216C294.389 301.616 292.213 308.656 291.189 316.336H414.069C413.557 308.144 411.509 300.72 407.925 294.064C404.597 287.408 400.117 281.776 394.485 277.168C389.109 272.56 382.837 268.976 375.669 266.416C368.757 263.856 361.589 262.576 354.165 262.576ZM525.546 343.984C526.314 362.928 532.202 378.16 543.21 389.68C554.218 401.2 569.578 406.96 589.29 406.96C598.25 406.96 606.058 405.936 612.714 403.888C619.37 401.84 625.002 399.024 629.61 395.44C634.474 391.856 638.314 387.76 641.13 383.152C644.202 378.288 646.634 373.168 648.426 367.792L676.842 375.472C671.466 393.136 661.482 407.6 646.89 418.864C632.554 429.872 613.098 435.376 588.522 435.376C574.954 435.376 562.41 433.072 550.89 428.464C539.626 423.6 529.898 416.816 521.706 408.112C513.514 399.408 507.114 389.04 502.506 377.008C497.898 364.976 495.594 351.664 495.594 337.072V327.856C495.594 314.544 497.898 302.128 502.506 290.608C507.37 279.088 514.026 269.232 522.474 261.04C530.922 252.592 540.778 246.064 552.042 241.456C563.562 236.592 575.978 234.16 589.29 234.16C604.906 234.16 618.346 237.104 629.61 242.992C641.13 248.624 650.474 255.664 657.642 264.112C665.066 272.56 670.442 281.776 673.77 291.76C677.354 301.744 679.146 310.96 679.146 319.408V343.984H525.546ZM589.29 262.576C580.842 262.576 572.906 263.984 565.482 266.8C558.314 269.36 551.914 273.072 546.282 277.936C540.906 282.8 536.426 288.56 532.842 295.216C529.514 301.616 527.338 308.656 526.314 316.336H649.194C648.682 308.144 646.634 300.72 643.05 294.064C639.722 287.408 635.242 281.776 629.61 277.168C624.234 272.56 617.962 268.976 610.794 266.416C603.882 263.856 596.714 262.576 589.29 262.576ZM2050.34 239.536H2080.3V430H2050.34V395.44H2045.74C2039.59 407.728 2031.53 417.456 2021.54 424.624C2011.56 431.792 1998.89 435.376 1983.53 435.376C1973.03 435.376 1963.3 433.584 1954.34 430C1945.64 426.672 1938.09 421.552 1931.69 414.64C1925.54 407.728 1920.68 399.152 1917.1 388.912C1913.77 378.672 1912.1 366.768 1912.1 353.2V239.536H1942.06V349.36C1942.06 369.328 1946.15 383.92 1954.34 393.136C1962.54 402.352 1975.08 406.96 1991.98 406.96C2010.15 406.96 2024.36 400.816 2034.6 388.528C2045.1 375.984 2050.34 359.344 2050.34 338.608V239.536ZM2522.9 397.744H2518.29C2512.15 410.544 2503.57 420.016 2492.56 426.16C2481.81 432.304 2470.42 435.376 2458.39 435.376C2445.84 435.376 2434.19 433.328 2423.44 429.232C2412.69 424.88 2403.22 418.608 2395.03 410.416C2387.09 401.968 2380.82 391.728 2376.21 379.696C2371.6 367.664 2369.3 353.712 2369.3 337.84V331.696C2369.3 316.08 2371.6 302.256 2376.21 290.224C2380.82 278.192 2387.09 268.08 2395.03 259.888C2403.22 251.44 2412.69 245.04 2423.44 240.688C2434.19 236.336 2445.59 234.16 2457.62 234.16C2470.67 234.16 2482.45 237.104 2492.95 242.992C2503.7 248.624 2512.15 257.456 2518.29 269.488H2522.9V239.536H2552.85V390.832C2552.85 398.512 2556.31 402.352 2563.22 402.352H2572.82V430H2552.47C2543.76 430 2536.59 427.184 2530.96 421.552C2525.59 415.92 2522.9 408.752 2522.9 400.048V397.744ZM2461.46 406.96C2470.42 406.96 2478.61 405.296 2486.03 401.968C2493.71 398.64 2500.24 393.904 2505.62 387.76C2510.99 381.616 2515.22 374.32 2518.29 365.872C2521.36 357.168 2522.9 347.568 2522.9 337.072V332.464C2522.9 322.224 2521.36 312.88 2518.29 304.432C2515.22 295.728 2510.87 288.304 2505.23 282.16C2499.86 276.016 2493.33 271.28 2485.65 267.952C2478.23 264.368 2470.16 262.576 2461.46 262.576C2452.5 262.576 2444.31 264.24 2436.88 267.568C2429.46 270.896 2422.93 275.632 2417.3 281.776C2411.92 287.664 2407.7 294.96 2404.63 303.664C2401.55 312.112 2400.02 321.456 2400.02 331.696V337.84C2400.02 359.6 2405.65 376.624 2416.91 388.912C2428.43 400.944 2443.28 406.96 2461.46 406.96ZM3034.62 337.072C3034.62 352.944 3031.93 367.024 3026.56 379.312C3021.44 391.344 3014.52 401.584 3005.82 410.032C2997.12 418.224 2986.88 424.496 2975.1 428.848C2963.58 433.2 2951.55 435.376 2939 435.376C2926.2 435.376 2914.04 433.2 2902.52 428.848C2891 424.496 2880.89 418.224 2872.19 410.032C2863.48 401.584 2856.44 391.344 2851.07 379.312C2845.95 367.024 2843.39 352.944 2843.39 337.072V332.464C2843.39 316.848 2845.95 303.024 2851.07 290.992C2856.44 278.704 2863.48 268.336 2872.19 259.888C2881.15 251.44 2891.39 245.04 2902.91 240.688C2914.43 236.336 2926.46 234.16 2939 234.16C2951.55 234.16 2963.58 236.336 2975.1 240.688C2986.62 245.04 2996.73 251.44 3005.44 259.888C3014.4 268.336 3021.44 278.704 3026.56 290.992C3031.93 303.024 3034.62 316.848 3034.62 332.464V337.072ZM2939 406.96C2948.22 406.96 2956.67 405.424 2964.35 402.352C2972.28 399.024 2979.2 394.288 2985.08 388.144C2990.97 382 2995.58 374.704 2998.91 366.256C3002.24 357.552 3003.9 347.824 3003.9 337.072V332.464C3003.9 322.224 3002.24 312.88 2998.91 304.432C2995.58 295.728 2990.97 288.304 2985.08 282.16C2979.2 276.016 2972.28 271.28 2964.35 267.952C2956.41 264.368 2947.96 262.576 2939 262.576C2930.04 262.576 2921.6 264.368 2913.66 267.952C2905.72 271.28 2898.81 276.016 2892.92 282.16C2887.04 288.304 2882.43 295.728 2879.1 304.432C2875.77 312.88 2874.11 322.224 2874.11 332.464V337.072C2874.11 347.824 2875.77 357.552 2879.1 366.256C2882.43 374.704 2887.04 382 2892.92 388.144C2898.81 394.288 2905.6 399.024 2913.28 402.352C2921.21 405.424 2929.79 406.96 2939 406.96Z" fill="#F0FF00"/>
<path d="M738.783 402.352H807.903V188.848H741.087V161.2H837.855V402.352H906.975V430H738.783V402.352ZM1013.46 288.688C1013.46 297.904 1017.3 304.944 1024.98 309.808C1032.92 314.672 1047.25 317.872 1067.99 319.408C1090.26 321.2 1107.16 326.576 1118.68 335.536C1130.45 344.24 1136.34 357.04 1136.34 373.936V376.24C1136.34 385.456 1134.42 393.776 1130.58 401.2C1127 408.368 1121.88 414.512 1115.22 419.632C1108.82 424.752 1100.88 428.592 1091.41 431.152C1082.2 433.968 1072.08 435.376 1061.08 435.376C1046.23 435.376 1033.43 433.456 1022.68 429.616C1012.18 425.52 1003.35 420.272 996.18 413.872C989.268 407.216 984.02 399.792 980.436 391.6C976.852 383.152 974.804 374.704 974.292 366.256L1002.71 359.344C1003.99 373.936 1009.62 385.712 1019.6 394.672C1029.59 403.376 1042.9 407.728 1059.54 407.728C1073.62 407.728 1084.88 405.04 1093.33 399.664C1102.04 394.032 1106.39 386.224 1106.39 376.24C1106.39 365.488 1102.16 357.808 1093.72 353.2C1085.27 348.592 1071.57 345.648 1052.63 344.368C1030.61 342.832 1013.72 337.712 1001.94 329.008C990.164 320.304 984.276 307.632 984.276 290.992V288.688C984.276 279.728 986.196 271.92 990.036 265.264C993.876 258.352 998.996 252.592 1005.4 247.984C1012.05 243.376 1019.48 239.92 1027.67 237.616C1035.86 235.312 1044.44 234.16 1053.4 234.16C1065.94 234.16 1076.95 235.952 1086.42 239.536C1095.89 242.864 1103.83 247.344 1110.23 252.976C1116.63 258.352 1121.49 264.624 1124.82 271.792C1128.4 278.96 1130.71 286.128 1131.73 293.296L1103.32 300.208C1102.04 287.92 1097.04 278.32 1088.34 271.408C1079.89 264.496 1068.76 261.04 1054.93 261.04C1049.56 261.04 1044.31 261.68 1039.19 262.96C1034.32 263.984 1029.97 265.648 1026.13 267.952C1022.29 270.256 1019.22 273.2 1016.92 276.784C1014.61 280.112 1013.46 284.08 1013.46 288.688ZM1474.11 430H1444.16V239.536H1474.11V271.792H1478.72C1490.49 246.704 1510.97 234.16 1540.16 234.16C1562.17 234.16 1579.71 241.072 1592.77 254.896C1605.82 268.464 1612.35 288.944 1612.35 316.336V430H1582.4V322.48C1582.4 302.512 1577.92 287.536 1568.96 277.552C1560 267.568 1547.84 262.576 1532.48 262.576C1514.3 262.576 1499.97 268.848 1489.47 281.392C1479.23 293.68 1474.11 310.192 1474.11 330.928V430ZM1857.46 362.416C1855.41 372.912 1851.83 382.64 1846.71 391.6C1841.84 400.56 1835.57 408.368 1827.89 415.024C1820.21 421.424 1811.25 426.416 1801.01 430C1790.77 433.584 1779.38 435.376 1766.84 435.376C1753.52 435.376 1740.85 433.2 1728.82 428.848C1717.04 424.496 1706.68 418.224 1697.72 410.032C1688.76 401.584 1681.59 391.344 1676.21 379.312C1671.09 367.28 1668.53 353.456 1668.53 337.84V333.232C1668.53 317.872 1671.09 304.048 1676.21 291.76C1681.59 279.472 1688.76 269.104 1697.72 260.656C1706.68 252.208 1717.04 245.68 1728.82 241.072C1740.85 236.464 1753.52 234.16 1766.84 234.16C1778.87 234.16 1790 235.952 1800.24 239.536C1810.48 243.12 1819.44 248.24 1827.12 254.896C1835.06 261.296 1841.46 268.976 1846.32 277.936C1851.44 286.896 1854.9 296.624 1856.69 307.12L1826.74 314.032C1825.97 307.376 1824.05 300.976 1820.98 294.832C1818.16 288.432 1814.2 282.928 1809.08 278.32C1804.21 273.456 1798.2 269.616 1791.03 266.8C1783.86 263.984 1775.54 262.576 1766.07 262.576C1756.85 262.576 1748.15 264.368 1739.96 267.952C1732.02 271.28 1724.98 276.144 1718.84 282.544C1712.69 288.688 1707.83 296.112 1704.24 304.816C1700.92 313.52 1699.25 322.992 1699.25 333.232V337.84C1699.25 348.592 1700.92 358.32 1704.24 367.024C1707.83 375.472 1712.69 382.64 1718.84 388.528C1724.98 394.416 1732.15 399.024 1740.34 402.352C1748.53 405.424 1757.36 406.96 1766.84 406.96C1776.31 406.96 1784.5 405.552 1791.41 402.736C1798.58 399.664 1804.6 395.824 1809.46 391.216C1814.58 386.352 1818.55 380.848 1821.36 374.704C1824.44 368.56 1826.48 362.16 1827.51 355.504L1857.46 362.416ZM2172.57 430H2142.62V161.2H2172.57V269.488H2177.18C2183.84 257.968 2193.05 249.264 2204.83 243.376C2216.61 237.232 2229.41 234.16 2243.23 234.16C2255.01 234.16 2266.14 236.336 2276.64 240.688C2287.13 245.04 2296.35 251.312 2304.29 259.504C2312.48 267.696 2318.88 277.808 2323.49 289.84C2328.35 301.872 2330.78 315.568 2330.78 330.928V338.608C2330.78 354.224 2328.48 368.048 2323.87 380.08C2319.26 392.112 2312.86 402.224 2304.67 410.416C2296.73 418.608 2287.39 424.88 2276.64 429.232C2265.89 433.328 2254.49 435.376 2242.46 435.376C2236.32 435.376 2230.05 434.608 2223.65 433.072C2217.25 431.792 2211.1 429.744 2205.21 426.928C2199.58 423.856 2194.33 420.272 2189.47 416.176C2184.61 411.824 2180.51 406.704 2177.18 400.816H2172.57V430ZM2236.32 406.96C2245.53 406.96 2253.98 405.424 2261.66 402.352C2269.34 399.024 2276 394.416 2281.63 388.528C2287.52 382.64 2292 375.472 2295.07 367.024C2298.4 358.576 2300.06 349.104 2300.06 338.608V330.928C2300.06 320.688 2298.4 311.472 2295.07 303.28C2292 294.832 2287.52 287.664 2281.63 281.776C2276 275.632 2269.21 270.896 2261.28 267.568C2253.6 264.24 2245.28 262.576 2236.32 262.576C2227.36 262.576 2219.04 264.368 2211.36 267.952C2203.68 271.28 2196.89 276.016 2191.01 282.16C2185.37 288.304 2180.89 295.728 2177.57 304.432C2174.24 312.88 2172.57 322.224 2172.57 332.464V337.072C2172.57 347.568 2174.24 357.168 2177.57 365.872C2180.89 374.32 2185.37 381.616 2191.01 387.76C2196.89 393.904 2203.68 398.64 2211.36 401.968C2219.04 405.296 2227.36 406.96 2236.32 406.96ZM2613.26 239.536H2673.16V161.2H2703.11V239.536H2776.84V267.184H2703.11V390.832C2703.11 398.512 2706.57 402.352 2713.48 402.352H2767.62V430H2702.73C2694.02 430 2686.86 427.184 2681.22 421.552C2675.85 415.92 2673.16 408.752 2673.16 400.048V267.184H2613.26V239.536ZM3079.28 239.536H3148.4V264.88H3153.01C3157.87 254.384 3164.79 246.704 3173.75 241.84C3182.71 236.72 3192.95 234.16 3204.47 234.16C3223.67 234.16 3239.15 240.432 3250.93 252.976C3262.71 265.52 3268.98 283.824 3269.75 307.888L3238.26 312.496C3238.26 294.832 3234.03 282.16 3225.59 274.48C3217.14 266.544 3206.77 262.576 3194.48 262.576C3186.55 262.576 3179.63 264.112 3173.75 267.184C3168.11 270.256 3163.38 274.48 3159.54 279.856C3155.7 285.232 3152.88 291.504 3151.09 298.672C3149.3 305.84 3148.4 313.52 3148.4 321.712V402.352H3196.79V430H3074.67V402.352H3118.45V267.184H3079.28V239.536Z" fill="#00F0FF"/>
</svg>
