<svg width="703" height="158" viewBox="0 0 703 158" fill="none" xmlns="http://www.w3.org/2000/svg">
<g clip-path="url(#clip0_1_14)">
<path opacity="0.324" d="M102.001 137.215C102.001 138.184 96.7562 139.113 87.4202 139.798C78.0841 140.484 65.4217 140.869 52.2185 140.869C39.0153 140.869 26.3529 140.484 17.0168 139.798C7.68079 139.113 2.43584 138.184 2.43584 137.215C2.43584 136.246 7.68079 135.316 17.0168 134.631C26.3529 133.946 39.0153 133.561 52.2185 133.561C65.4217 133.561 78.0841 133.946 87.4202 134.631C96.7562 135.316 102.001 136.246 102.001 137.215Z" fill="url(#paint0_radial_1_14)"/>
<path d="M103.599 102.184C78.9754 134.237 48.9223 145.572 28.2841 131.323C6.13721 116.032 -0.747198 77.203 26.9828 50.5779C51.7221 26.8243 80.5313 14.4944 102.298 21.4388C126.136 29.0441 125.682 67.8901 103.599 102.184Z" fill="#382509"/>
<path d="M108.061 28.1165C106.166 26.5355 103.933 25.2888 101.313 24.453C81.3719 18.0909 53.4368 29.6078 29.1936 52.8851C2.77523 78.2508 9.8207 114.66 30.1417 128.69C39.5384 135.178 50.8466 135.899 63.2742 131.133C75.644 126.389 88.9195 116.023 100.915 100.472C100.964 100.396 101.015 100.328 101.063 100.252C110.377 85.7132 115.668 70.3522 116.77 57.302C117.879 44.1835 114.74 33.6891 108.061 28.1165Z" fill="#57401E"/>
<path fill-rule="evenodd" clip-rule="evenodd" d="M107.844 27.9688C95.6567 46.5735 77.0887 61.5367 58.5625 75.4375C42.8514 87.226 27.0814 98.0849 15.8438 110.531C17.3773 114.176 19.3022 117.562 21.625 120.562C31.6832 108.634 47.793 96.8875 64.9688 84C82.5702 70.7931 101.158 56.1414 114.438 37.3438C112.937 33.5475 110.809 30.4165 108.062 28.125C107.995 28.0684 107.913 28.0245 107.844 27.9688Z" fill="#1C1203"/>
<path fill-rule="evenodd" clip-rule="evenodd" d="M107.844 27.9688C95.6567 46.5735 77.0887 61.5367 58.5625 75.4375C42.8514 87.226 27.0814 98.0849 15.8438 110.531C17.3773 114.176 19.3022 117.562 21.625 120.562C31.6832 108.634 47.793 96.8875 64.9688 84C82.5702 70.7931 101.158 56.1414 114.438 37.3438C112.937 33.5475 110.809 30.4165 108.062 28.125C107.995 28.0684 107.913 28.0245 107.844 27.9688Z" fill="#1C1203"/>
<g opacity="0.324" filter="url(#filter0_f_1_14)">
<path fill-rule="evenodd" clip-rule="evenodd" d="M108.187 33.0938C95.6716 50.7131 78.0149 64.9439 60.5312 78.0625C45.4248 89.3973 30.5832 99.8075 19.8125 111.219C20.5029 112.663 21.2697 114.054 22.0937 115.375C32.5534 104.071 47.2808 93.1696 63 81.375C80.0494 68.5823 97.7581 54.538 110.594 37C109.891 35.5368 109.095 34.2299 108.187 33.0938Z" fill="url(#paint1_linear_1_14)"/>
</g>
<path d="M89.3437 22.7188C71.0396 22.8223 48.8851 33.9623 29.1875 52.875C10.8303 70.5008 8.65913 93.4547 15.8437 110.531C27.0814 98.0849 42.8514 87.226 58.5625 75.4375C77.0887 61.5367 95.6566 46.5735 107.844 27.9688C105.993 26.4675 103.838 25.2434 101.312 24.4375C97.5735 23.2446 93.5678 22.6949 89.3437 22.7188Z" fill="url(#paint2_radial_1_14)"/>
<path d="M114.437 37.3438C101.158 56.1414 82.5702 70.7931 64.9688 84C47.793 96.8875 31.6832 108.634 21.625 120.562C24.0809 123.734 26.9695 126.487 30.1562 128.688C39.553 135.175 50.8537 135.891 63.2812 131.125C75.651 126.381 88.9111 116.02 100.906 100.469C100.955 100.393 101.014 100.326 101.062 100.25C110.377 85.7112 115.679 70.3627 116.781 57.3125C117.434 49.5884 116.585 42.7794 114.437 37.3438Z" fill="url(#paint3_radial_1_14)"/>
<path opacity="0.727" d="M85.2067 23.9994C68.2236 25.5201 48.0134 36.3498 29.9568 53.6869C3.98396 78.6249 11.0112 114.182 30.7068 127.781C39.7867 134.05 50.7046 134.77 62.8943 130.093C75.0744 125.42 88.2365 115.124 100.175 99.5932C100.183 99.5809 100.199 99.5742 100.207 99.562C110.721 83.1154 115.994 65.6028 115.894 51.8433C115.844 44.9195 114.431 38.9955 111.925 34.562C109.42 30.1285 105.936 27.1095 100.988 25.5308C96.1563 23.9893 90.8681 23.4925 85.2067 23.9994Z" stroke="url(#paint4_radial_1_14)" stroke-width="2.67" stroke-linecap="round" stroke-linejoin="round"/>
</g>
<path d="M130.368 125C130.197 125 130.027 124.957 129.856 124.872C129.728 124.787 129.664 124.659 129.664 124.488C129.664 124.317 129.707 124.189 129.792 124.104C129.92 123.976 130.155 123.891 130.496 123.848L132.864 123.272C133.461 123.144 133.867 122.888 134.08 122.504C134.293 122.077 134.4 121.523 134.4 120.84V37.64C134.4 37.2987 134.315 37.0427 134.144 36.872C133.973 36.7013 133.696 36.616 133.312 36.616H130.816C130.517 36.616 130.304 36.5733 130.176 36.488C130.091 36.36 130.048 36.2107 130.048 36.04C130.048 35.8267 130.112 35.6773 130.24 35.592C130.368 35.5067 130.539 35.4427 130.752 35.4L154.88 28.68C155.435 28.552 155.797 28.4667 155.968 28.424C156.181 28.3813 156.416 28.36 156.672 28.36C157.013 28.36 157.248 28.4453 157.376 28.616C157.547 28.7867 157.632 29.0213 157.632 29.32V120.84C157.632 121.523 157.739 122.077 157.952 122.504C158.208 122.888 158.613 123.144 159.168 123.272L161.6 123.848C162.112 123.976 162.368 124.189 162.368 124.488C162.368 124.829 162.133 125 161.664 125H130.368ZM154.24 103.24L177.728 79.88C179.989 77.6613 180.736 75.528 179.968 73.48C179.2 71.3893 177.323 70.0027 174.336 69.32L171.904 68.744C171.605 68.6587 171.392 68.5733 171.264 68.488C171.179 68.36 171.136 68.2533 171.136 68.168C171.136 67.9547 171.2 67.8053 171.328 67.72C171.456 67.6347 171.605 67.592 171.776 67.592H199.808C200.021 67.592 200.171 67.6347 200.256 67.72C200.384 67.8053 200.448 67.9547 200.448 68.168C200.448 68.296 200.384 68.4027 200.256 68.488C200.171 68.5733 199.979 68.6587 199.68 68.744C195.669 69.6827 192 71.112 188.672 73.032C185.387 74.9093 182.251 77.3413 179.264 80.328L155.328 104.392L154.24 103.24ZM176.384 81.992L198.848 121.288C199.232 121.971 199.616 122.483 200 122.824C200.427 123.165 200.917 123.507 201.472 123.848C201.813 124.019 202.027 124.147 202.112 124.232C202.24 124.317 202.304 124.445 202.304 124.616C202.304 124.744 202.24 124.851 202.112 124.936C201.984 124.979 201.813 125 201.6 125H166.784C166.571 125 166.4 124.957 166.272 124.872C166.144 124.787 166.08 124.659 166.08 124.488C166.08 124.317 166.123 124.189 166.208 124.104C166.336 123.976 166.549 123.891 166.848 123.848L169.28 123.272C170.219 123.059 170.795 122.781 171.008 122.44C171.264 122.056 171.221 121.523 170.88 120.84L159.68 99.08L176.384 81.992ZM257.137 83.272C257.137 86.472 256.22 89.032 254.385 90.952C252.55 92.8293 249.99 93.768 246.705 93.768C243.377 93.768 240.774 92.7867 238.897 90.824C237.02 88.8187 236.081 85.9173 236.081 82.12V75.784C236.081 73.1813 235.654 71.2187 234.801 69.896C233.948 68.5733 232.817 67.912 231.409 67.912C229.916 67.912 228.614 68.6587 227.505 70.152C226.396 71.6027 225.542 73.7573 224.945 76.616C224.39 79.432 224.113 82.888 224.113 86.984C224.113 92.4453 224.817 97.0533 226.225 100.808C227.676 104.563 229.66 107.4 232.177 109.32C234.737 111.197 237.681 112.136 241.009 112.136C244.806 112.136 247.985 111.475 250.545 110.152C253.105 108.829 254.726 106.653 255.409 103.624C255.452 103.411 255.516 103.261 255.601 103.176C255.729 103.091 255.857 103.069 255.985 103.112C256.156 103.155 256.262 103.24 256.305 103.368C256.39 103.496 256.412 103.667 256.369 103.88C255.644 108.573 254.086 112.584 251.697 115.912C249.308 119.24 246.214 121.8 242.417 123.592C238.62 125.384 234.246 126.28 229.297 126.28C224.049 126.28 219.377 125.235 215.281 123.144C211.185 121.011 207.942 117.853 205.553 113.672C203.206 109.448 202.033 104.221 202.033 97.992C202.033 91.8053 203.356 86.344 206.001 81.608C208.646 76.8293 212.294 73.096 216.945 70.408C221.596 67.6773 226.929 66.312 232.945 66.312C238.321 66.312 242.78 67.0587 246.321 68.552C249.905 70.0027 252.593 72.008 254.385 74.568C256.22 77.128 257.137 80.0293 257.137 83.272ZM600.637 83.272C600.637 86.472 599.72 89.032 597.885 90.952C596.05 92.8293 593.49 93.768 590.205 93.768C586.877 93.768 584.274 92.7867 582.397 90.824C580.52 88.8187 579.581 85.9173 579.581 82.12V75.784C579.581 73.1813 579.154 71.2187 578.301 69.896C577.448 68.5733 576.317 67.912 574.909 67.912C573.416 67.912 572.114 68.6587 571.005 70.152C569.896 71.6027 569.042 73.7573 568.445 76.616C567.89 79.432 567.613 82.888 567.613 86.984C567.613 92.4453 568.317 97.0533 569.725 100.808C571.176 104.563 573.16 107.4 575.677 109.32C578.237 111.197 581.181 112.136 584.509 112.136C588.306 112.136 591.485 111.475 594.045 110.152C596.605 108.829 598.226 106.653 598.909 103.624C598.952 103.411 599.016 103.261 599.101 103.176C599.229 103.091 599.357 103.069 599.485 103.112C599.656 103.155 599.762 103.24 599.805 103.368C599.89 103.496 599.912 103.667 599.869 103.88C599.144 108.573 597.586 112.584 595.197 115.912C592.808 119.24 589.714 121.8 585.917 123.592C582.12 125.384 577.746 126.28 572.797 126.28C567.549 126.28 562.877 125.235 558.781 123.144C554.685 121.011 551.442 117.853 549.053 113.672C546.706 109.448 545.533 104.221 545.533 97.992C545.533 91.8053 546.856 86.344 549.501 81.608C552.146 76.8293 555.794 73.096 560.445 70.408C565.096 67.6773 570.429 66.312 576.445 66.312C581.821 66.312 586.28 67.0587 589.821 68.552C593.405 70.0027 596.093 72.008 597.885 74.568C599.72 77.128 600.637 80.0293 600.637 83.272ZM636.362 66.312C642.463 66.312 647.839 67.592 652.49 70.152C657.183 72.712 660.853 76.2747 663.498 80.84C666.186 85.4053 667.53 90.6533 667.53 96.584C667.53 102.387 666.143 107.528 663.37 112.008C660.597 116.445 656.799 119.944 651.978 122.504C647.157 125.021 641.61 126.28 635.338 126.28C629.237 126.28 623.839 125.021 619.146 122.504C614.453 119.987 610.783 116.509 608.138 112.072C605.493 107.592 604.17 102.429 604.17 96.584C604.17 90.7813 605.557 85.5973 608.33 81.032C611.146 76.4667 614.986 72.8827 619.85 70.28C624.714 67.6347 630.218 66.312 636.362 66.312ZM640.01 124.936C641.546 124.723 642.677 123.528 643.402 121.352C644.17 119.176 644.533 115.933 644.49 111.624C644.447 107.315 643.957 101.917 643.018 95.432C642.079 88.904 641.034 83.5707 639.882 79.432C638.773 75.2507 637.557 72.2213 636.234 70.344C634.911 68.424 633.461 67.592 631.882 67.848C630.389 68.104 629.258 69.32 628.49 71.496C627.765 73.672 627.445 76.8933 627.53 81.16C627.615 85.4267 628.106 90.824 629.002 97.352C629.941 103.88 630.965 109.213 632.074 113.352C633.183 117.491 634.399 120.52 635.722 122.44C637.045 124.317 638.474 125.149 640.01 124.936Z" fill="white"/>
<path d="M287.486 90.44C287.486 85.1493 288.318 80.712 289.982 77.128C291.689 73.544 293.865 70.856 296.51 69.064C299.155 67.2293 301.907 66.312 304.766 66.312C308.265 66.312 310.931 67.464 312.766 69.768C314.601 72.072 315.518 75.592 315.518 80.328C315.518 84.936 314.43 88.3493 312.254 90.568C310.078 92.7867 307.347 93.896 304.062 93.896C301.033 93.896 298.835 93.0853 297.47 91.464C296.105 89.8 295.337 87.4107 295.166 84.296L295.038 81.864C294.995 80.9253 294.803 80.1573 294.462 79.56C294.121 78.9627 293.502 78.664 292.606 78.664C291.795 78.664 291.07 79.0907 290.43 79.944C289.833 80.7973 289.363 82.1413 289.022 83.976C288.681 85.8107 288.51 88.1787 288.51 91.08L287.486 90.44ZM288.51 67.784V87.432V120.2C288.51 120.755 288.659 121.267 288.958 121.736C289.257 122.205 289.662 122.504 290.174 122.632L296.446 123.912C296.702 123.955 296.873 124.019 296.958 124.104C297.043 124.189 297.086 124.317 297.086 124.488C297.086 124.659 297.022 124.787 296.894 124.872C296.766 124.957 296.574 125 296.318 125H261.374C261.118 125 260.905 124.957 260.734 124.872C260.606 124.744 260.542 124.616 260.542 124.488C260.542 124.317 260.627 124.168 260.798 124.04C260.969 123.912 261.203 123.827 261.502 123.784L263.742 123.272C264.339 123.144 264.745 122.909 264.958 122.568C265.171 122.184 265.278 121.736 265.278 121.224V75.016C265.278 74.632 265.193 74.3333 265.022 74.12C264.894 73.864 264.638 73.736 264.254 73.736L261.438 73.672C261.267 73.672 261.118 73.6293 260.99 73.544C260.862 73.416 260.798 73.288 260.798 73.16C260.798 73.032 260.862 72.904 260.99 72.776C261.118 72.648 261.331 72.5627 261.63 72.52L285.822 67.016C286.249 66.888 286.569 66.8027 286.782 66.76C287.038 66.7173 287.294 66.696 287.55 66.696C287.891 66.696 288.126 66.824 288.254 67.08C288.425 67.2933 288.51 67.528 288.51 67.784ZM350.362 66.312C356.463 66.312 361.839 67.592 366.49 70.152C371.183 72.712 374.853 76.2747 377.498 80.84C380.186 85.4053 381.53 90.6533 381.53 96.584C381.53 102.387 380.143 107.528 377.37 112.008C374.597 116.445 370.799 119.944 365.978 122.504C361.157 125.021 355.61 126.28 349.338 126.28C343.237 126.28 337.839 125.021 333.146 122.504C328.453 119.987 324.783 116.509 322.138 112.072C319.493 107.592 318.17 102.429 318.17 96.584C318.17 90.7813 319.557 85.5973 322.33 81.032C325.146 76.4667 328.986 72.8827 333.85 70.28C338.714 67.6347 344.218 66.312 350.362 66.312ZM354.01 124.936C355.546 124.723 356.677 123.528 357.402 121.352C358.17 119.176 358.533 115.933 358.49 111.624C358.447 107.315 357.957 101.917 357.018 95.432C356.079 88.904 355.034 83.5707 353.882 79.432C352.773 75.2507 351.557 72.2213 350.234 70.344C348.911 68.424 347.461 67.592 345.882 67.848C344.389 68.104 343.258 69.32 342.49 71.496C341.765 73.672 341.445 76.8933 341.53 81.16C341.615 85.4267 342.106 90.824 343.002 97.352C343.941 103.88 344.965 109.213 346.074 113.352C347.183 117.491 348.399 120.52 349.722 122.44C351.045 124.317 352.474 125.149 354.01 124.936ZM418.38 119.048V118.152L417.228 119.176V72.52C417.228 70.984 416.823 69.768 416.012 68.872C415.244 67.976 414.284 67.528 413.132 67.528C411.681 67.528 410.529 67.976 409.676 68.872C408.823 69.768 408.396 70.984 408.396 72.52V79.304C408.396 82.1627 407.308 84.68 405.132 86.856C402.956 88.9893 400.119 90.056 396.62 90.056C394.231 90.056 392.268 89.3947 390.732 88.072C389.239 86.7493 388.492 84.7227 388.492 81.992C388.492 79.6453 389.516 77.256 391.564 74.824C393.612 72.392 396.684 70.3653 400.78 68.744C404.876 67.1227 409.953 66.312 416.012 66.312C424.204 66.312 430.327 67.8907 434.38 71.048C438.476 74.2053 440.524 78.7707 440.524 84.744V116.36C440.524 117.384 440.737 118.152 441.164 118.664C441.633 119.176 442.188 119.432 442.828 119.432C443.468 119.432 444.087 119.197 444.684 118.728C445.324 118.216 445.729 117.299 445.9 115.976C445.985 115.763 446.049 115.635 446.092 115.592C446.177 115.507 446.263 115.464 446.348 115.464C446.476 115.464 446.561 115.507 446.604 115.592C446.689 115.677 446.732 115.827 446.732 116.04C446.732 117.021 446.22 118.323 445.196 119.944C444.215 121.565 442.551 123.037 440.204 124.36C437.9 125.64 434.743 126.28 430.732 126.28C426.295 126.28 423.116 125.576 421.196 124.168C419.319 122.717 418.38 121.011 418.38 119.048ZM384.908 112.2C384.908 107.037 387.063 103.005 391.372 100.104C395.681 97.16 402.892 95.688 413.004 95.688C414.924 95.688 416.417 95.9013 417.484 96.328C418.593 96.712 419.617 97.2667 420.556 97.992L419.916 98.504C418.892 97.9067 417.932 97.5013 417.036 97.288C416.14 97.0747 415.095 96.968 413.9 96.968C412.023 96.968 410.529 97.9493 409.42 99.912C408.311 101.875 407.756 104.904 407.756 109C407.756 112.797 408.332 115.549 409.484 117.256C410.636 118.963 412.108 119.816 413.9 119.816C414.881 119.816 415.884 119.475 416.908 118.792C417.932 118.067 418.743 117.171 419.34 116.104L420.236 116.68C418.529 119.795 416.012 122.184 412.684 123.848C409.399 125.469 405.836 126.28 401.996 126.28C397.047 126.28 392.951 124.957 389.708 122.312C386.508 119.667 384.908 116.296 384.908 112.2ZM475.337 124.424C477.641 124.424 479.433 123.869 480.713 122.76C481.993 121.608 482.633 120.115 482.633 118.28C482.633 116.872 482.292 115.592 481.609 114.44C480.969 113.288 479.817 112.2 478.153 111.176C476.489 110.109 474.185 109.085 471.241 108.104C465.609 106.184 461.193 104.093 457.993 101.832C454.836 99.5707 452.617 97.0533 451.337 94.28C450.057 91.5067 449.417 88.392 449.417 84.936C449.417 78.92 451.444 74.312 455.497 71.112C459.593 67.912 465.054 66.312 471.881 66.312C474.569 66.312 476.766 66.568 478.473 67.08C480.222 67.5493 481.545 68.04 482.441 68.552C483.38 69.0213 484.02 69.256 484.361 69.256C484.873 69.256 485.833 69.0213 487.241 68.552C488.692 68.04 490.121 67.5493 491.529 67.08C492.98 66.568 493.94 66.312 494.409 66.312C494.622 66.312 494.836 66.376 495.049 66.504C495.305 66.632 495.454 66.888 495.497 67.272L498.185 87.56C498.27 87.9867 498.27 88.328 498.185 88.584C498.142 88.84 498.036 89.0107 497.865 89.096C497.737 89.1813 497.609 89.1813 497.481 89.096C497.353 89.0107 497.225 88.8827 497.097 88.712C493.854 83.3787 490.91 79.1973 488.265 76.168C485.662 73.1387 483.124 71.0053 480.649 69.768C478.217 68.5307 475.636 67.912 472.905 67.912C470.473 67.912 468.638 68.5307 467.401 69.768C466.206 71.0053 465.609 72.648 465.609 74.696C465.609 76.2747 465.993 77.7253 466.761 79.048C467.529 80.328 468.894 81.5227 470.857 82.632C472.862 83.7413 475.721 84.808 479.433 85.832C484.34 87.1973 488.222 88.9467 491.081 91.08C493.982 93.1707 496.052 95.56 497.289 98.248C498.569 100.936 499.209 103.837 499.209 106.952C499.209 110.963 498.206 114.419 496.201 117.32C494.196 120.179 491.55 122.397 488.265 123.976C484.98 125.512 481.353 126.28 477.385 126.28C474.996 126.28 472.926 125.981 471.177 125.384C469.428 124.787 468.02 124.189 466.953 123.592C465.929 122.995 465.31 122.696 465.097 122.696C464.713 122.696 463.86 122.973 462.537 123.528C461.214 124.04 459.849 124.552 458.441 125.064C457.033 125.619 456.094 125.896 455.625 125.896C455.326 125.896 455.028 125.747 454.729 125.448C454.43 125.192 454.238 124.744 454.153 124.104L451.977 107.4C451.934 106.76 451.934 106.333 451.977 106.12C452.062 105.864 452.212 105.672 452.425 105.544C452.51 105.459 452.617 105.48 452.745 105.608C452.873 105.693 453.044 105.843 453.257 106.056C457.396 112.584 461.214 117.277 464.713 120.136C468.212 122.995 471.753 124.424 475.337 124.424ZM506.745 70.088L502.073 68.808C501.732 68.7227 501.518 68.6373 501.433 68.552C501.305 68.424 501.241 68.296 501.241 68.168C501.241 68.04 501.305 67.912 501.433 67.784C501.561 67.656 501.689 67.592 501.817 67.592H506.937C507.065 67.592 507.193 67.5707 507.321 67.528C507.492 67.4853 507.705 67.3787 507.961 67.208L526.585 54.024C526.926 53.768 527.289 53.5547 527.673 53.384C528.1 53.2133 528.441 53.128 528.697 53.128C529.038 53.128 529.316 53.256 529.529 53.512C529.742 53.7253 529.849 54.0667 529.849 54.536V106.376C529.849 110.173 530.532 113.011 531.897 114.888C533.262 116.723 535.097 117.64 537.401 117.64C538.169 117.64 538.894 117.512 539.577 117.256C540.302 117 540.964 116.573 541.561 115.976C542.158 115.379 542.692 114.568 543.161 113.544C543.63 112.52 544.014 111.24 544.313 109.704C544.398 109.363 544.569 109.192 544.825 109.192C545.124 109.192 545.23 109.384 545.145 109.768C544.505 113.48 543.46 116.552 542.009 118.984C540.558 121.416 538.596 123.251 536.121 124.488C533.689 125.683 530.617 126.28 526.905 126.28C520.59 126.28 515.769 124.829 512.441 121.928C509.156 119.027 507.513 114.547 507.513 108.488V71.304C507.513 70.8773 507.47 70.5787 507.385 70.408C507.3 70.2373 507.086 70.1307 506.745 70.088ZM523.193 69.32L523.961 67.592H544.825C545.038 67.592 545.188 67.6347 545.273 67.72C545.401 67.8053 545.465 67.9547 545.465 68.168C545.465 68.4667 545.294 68.744 544.953 69C544.612 69.2133 544.121 69.32 543.481 69.32H523.193ZM685.82 126.28C683.388 126.28 681.169 125.683 679.164 124.488C677.201 123.251 675.623 121.608 674.428 119.56C673.276 117.512 672.7 115.272 672.7 112.84C672.7 110.451 673.276 108.253 674.428 106.248C675.58 104.243 677.159 102.643 679.164 101.448C681.169 100.211 683.388 99.592 685.82 99.592C688.337 99.592 690.599 100.211 692.604 101.448C694.609 102.643 696.188 104.243 697.34 106.248C698.535 108.253 699.132 110.451 699.132 112.84C699.132 115.272 698.535 117.512 697.34 119.56C696.188 121.608 694.609 123.251 692.604 124.488C690.599 125.683 688.337 126.28 685.82 126.28Z" fill="#8A7654"/>
<defs>
<filter id="filter0_f_1_14" x="15.1907" y="28.4719" width="100.025" height="91.5249" filterUnits="userSpaceOnUse" color-interpolation-filters="sRGB">
<feFlood flood-opacity="0" result="BackgroundImageFix"/>
<feBlend mode="normal" in="SourceGraphic" in2="BackgroundImageFix" result="shape"/>
<feGaussianBlur stdDeviation="2.31092" result="effect1_foregroundBlur_1_14"/>
</filter>
<radialGradient id="paint0_radial_1_14" cx="0" cy="0" r="1" gradientUnits="userSpaceOnUse" gradientTransform="translate(52.2144 137.215) scale(49.7799 3.65357)">
<stop/>
<stop offset="1" stop-opacity="0"/>
</radialGradient>
<linearGradient id="paint1_linear_1_14" x1="57.988" y1="67.727" x2="74.59" y2="88.55" gradientUnits="userSpaceOnUse">
<stop stop-color="#B3925D" stop-opacity="0"/>
<stop offset="0.5" stop-color="#8F6B32"/>
<stop offset="1" stop-color="#B3925D" stop-opacity="0"/>
</linearGradient>
<radialGradient id="paint2_radial_1_14" cx="0" cy="0" r="1" gradientUnits="userSpaceOnUse" gradientTransform="translate(59.9452 85.7081) rotate(-33.1215) scale(131.791 43.9069)">
<stop stop-color="#382509"/>
<stop offset="1" stop-color="#6C5125"/>
</radialGradient>
<radialGradient id="paint3_radial_1_14" cx="0" cy="0" r="1" gradientUnits="userSpaceOnUse" gradientTransform="translate(65.419 137.831) rotate(-29.8401) scale(139.495 48.4333)">
<stop stop-color="#382509"/>
<stop offset="1" stop-color="#5E4114"/>
</radialGradient>
<radialGradient id="paint4_radial_1_14" cx="0" cy="0" r="1" gradientUnits="userSpaceOnUse" gradientTransform="translate(66.7078 13.9357) rotate(-0.700104) scale(117.182 55.991)">
<stop stop-color="#EEEEEE" stop-opacity="0.453"/>
<stop offset="1" stop-color="#EEEEEE" stop-opacity="0"/>
</radialGradient>
<clipPath id="clip0_1_14">
<rect width="128" height="128" fill="white" transform="translate(0 15)"/>
</clipPath>
</defs>
</svg>
