<svg width="231" height="212" viewBox="0 0 231 212" fill="none" xmlns="http://www.w3.org/2000/svg">
<g filter="url(#filter0_d_2016_28)">
<circle cx="116" cy="102" r="100" fill="black" fill-opacity="0.8" shape-rendering="crispEdges"/>
</g>
<path d="M62.604 151.888C61.6173 151.888 60.828 151.592 60.236 151C59.7427 150.408 59.496 149.619 59.496 148.632V126.432H11.84C10.8533 126.432 10.064 126.136 9.472 125.544C8.88 124.952 8.584 124.163 8.584 123.176C8.584 122.584 8.68267 122.041 8.88 121.548C9.176 121.055 9.52133 120.463 9.916 119.772L59.052 47.844C59.5453 47.1533 60.088 46.66 60.68 46.364C61.272 45.9693 61.9627 45.772 62.752 45.772C63.5413 45.772 64.232 46.068 64.824 46.66C65.416 47.1533 65.712 47.9427 65.712 49.028V120.66H79.772C80.8573 120.66 81.6467 120.907 82.14 121.4C82.732 121.893 83.028 122.584 83.028 123.472C83.028 124.459 82.732 125.199 82.14 125.692C81.6467 126.185 80.8573 126.432 79.772 126.432H65.712V148.632C65.712 149.619 65.4653 150.408 64.972 151C64.4787 151.592 63.6893 151.888 62.604 151.888ZM59.496 120.66V53.468H62.456L15.096 122.436V120.66H59.496Z" fill="#008DDA"/>
<path d="M115.382 152.184C103.838 152.184 95.0569 147.645 89.0382 138.568C83.1182 129.491 80.1582 116.269 80.1582 98.904C80.1582 87.1627 81.4902 77.3453 84.1542 69.452C86.8182 61.5587 90.7649 55.5893 95.9942 51.544C101.224 47.4987 107.686 45.476 115.382 45.476C127.025 45.476 135.806 49.9653 141.726 58.944C147.646 67.9227 150.606 81.1933 150.606 98.756C150.606 110.399 149.274 120.216 146.61 128.208C143.946 136.101 140 142.071 134.77 146.116C129.541 150.161 123.078 152.184 115.382 152.184ZM115.382 146.116C125.052 146.116 132.205 142.268 136.842 134.572C141.578 126.777 143.946 114.839 143.946 98.756C143.946 82.5747 141.628 70.6853 136.99 63.088C132.353 55.392 125.15 51.544 115.382 51.544C105.713 51.544 98.5102 55.392 93.7742 63.088C89.1369 70.784 86.8182 82.6733 86.8182 98.756C86.8182 114.839 89.1369 126.777 93.7742 134.572C98.5102 142.268 105.713 146.116 115.382 146.116Z" fill="#FFFF00"/>
<path d="M204.568 151.888C203.582 151.888 202.792 151.592 202.2 151C201.707 150.408 201.46 149.619 201.46 148.632V126.432H153.804C152.818 126.432 152.028 126.136 151.436 125.544C150.844 124.952 150.548 124.163 150.548 123.176C150.548 122.584 150.647 122.041 150.844 121.548C151.14 121.055 151.486 120.463 151.88 119.772L201.016 47.844C201.51 47.1533 202.052 46.66 202.644 46.364C203.236 45.9693 203.927 45.772 204.716 45.772C205.506 45.772 206.196 46.068 206.788 46.66C207.38 47.1533 207.676 47.9427 207.676 49.028V120.66H221.736C222.822 120.66 223.611 120.907 224.104 121.4C224.696 121.893 224.992 122.584 224.992 123.472C224.992 124.459 224.696 125.199 224.104 125.692C223.611 126.185 222.822 126.432 221.736 126.432H207.676V148.632C207.676 149.619 207.43 150.408 206.936 151C206.443 151.592 205.654 151.888 204.568 151.888ZM201.46 120.66V53.468H204.42L157.06 122.436V120.66H201.46Z" fill="#FF2DF1"/>
<defs>
<filter id="filter0_d_2016_28" x="4" y="0" width="212" height="212" filterUnits="userSpaceOnUse" color-interpolation-filters="sRGB">
<feFlood flood-opacity="0" result="BackgroundImageFix"/>
<feColorMatrix in="SourceAlpha" type="matrix" values="0 0 0 0 0 0 0 0 0 0 0 0 0 0 0 0 0 0 127 0" result="hardAlpha"/>
<feMorphology radius="2" operator="dilate" in="SourceAlpha" result="effect1_dropShadow_2016_28"/>
<feOffset dx="-6" dy="4"/>
<feGaussianBlur stdDeviation="2"/>
<feComposite in2="hardAlpha" operator="out"/>
<feColorMatrix type="matrix" values="0 0 0 0 1 0 0 0 0 1 0 0 0 0 1 0 0 0 0.2 0"/>
<feBlend mode="normal" in2="BackgroundImageFix" result="effect1_dropShadow_2016_28"/>
<feBlend mode="normal" in="SourceGraphic" in2="effect1_dropShadow_2016_28" result="shape"/>
</filter>
</defs>
</svg>
