<svg width="24" height="24" viewBox="0 0 24 24" fill="none" xmlns="http://www.w3.org/2000/svg">
<g clip-path="url(#clip0_10_13)">
<path d="M7 10H17" stroke="#FF2DF1" stroke-width="2" stroke-linecap="round" stroke-linejoin="round"/>
<path d="M9 14H14" stroke="#FF2DF1" stroke-width="2" stroke-linecap="round" stroke-linejoin="round"/>
<path d="M9 14H14" stroke="#FF2DF1" stroke-width="2" stroke-linecap="round" stroke-linejoin="round"/>
<path d="M12.4 3C13.445 3.00065 14.4668 3.30788 15.3388 3.88362C16.2109 4.45936 16.8949 5.27831 17.306 6.239C18.002 6.31747 18.6757 6.53225 19.2887 6.87109C19.9017 7.20993 20.442 7.6662 20.8787 8.21383C21.3153 8.76146 21.6399 9.38974 21.8337 10.0628C22.0276 10.7358 22.087 11.4405 22.0085 12.1365C21.93 12.8325 21.7152 13.5062 21.3764 14.1192C21.0376 14.7322 20.5813 15.2725 20.0337 15.7092C19.486 16.1458 18.8578 16.4704 18.1847 16.6642C17.5117 16.8581 16.807 16.9175 16.111 16.839C15.6045 17.735 14.7907 18.4173 13.8201 18.7598C12.8494 19.1022 11.7877 19.0817 10.831 18.702L7 21V17.866C6.60865 17.7755 6.24277 17.5978 5.92968 17.3462C5.61658 17.0946 5.36435 16.7755 5.19178 16.4128C5.01922 16.0501 4.93078 15.653 4.93307 15.2514C4.93536 14.8497 5.02831 14.4537 5.205 14.093C4.25025 13.5438 3.51345 12.6829 3.11821 11.6548C2.72296 10.6267 2.69333 9.49389 3.03429 8.44653C3.37524 7.39917 4.06603 6.50093 4.99076 5.90252C5.91548 5.30411 7.01788 5.04194 8.113 5.16C8.60885 4.48976 9.25502 3.94519 9.99956 3.57005C10.7441 3.19491 11.5663 2.99967 12.4 3Z" stroke="#FF2DF1" stroke-width="2" stroke-linecap="round" stroke-linejoin="round"/>
</g>
<defs>
<clipPath id="clip0_10_13">
<rect width="24" height="24" fill="white"/>
</clipPath>
</defs>
</svg>
