<svg width="296" height="212" viewBox="0 0 296 212" fill="none" xmlns="http://www.w3.org/2000/svg">
<g filter="url(#filter0_d_2016_28)">
<circle cx="148" cy="102" r="100" fill="black" fill-opacity="0.8" shape-rendering="crispEdges"/>
</g>
<path d="M17.536 123.512C14.592 123.512 12.0533 122.829 9.92 121.464C7.82933 120.099 6.208 118.2 5.056 115.768C3.94667 113.336 3.392 110.499 3.392 107.256C3.392 104.824 3.712 102.648 4.352 100.728C4.992 98.7653 5.90933 97.1013 7.104 95.736C8.34133 94.3707 9.83467 93.3253 11.584 92.6C13.3333 91.8747 15.3173 91.512 17.536 91.512C19.1573 91.512 20.8 91.8107 22.464 92.408C24.1707 92.9627 25.6853 93.9013 27.008 95.224C27.2213 95.4373 27.328 95.672 27.328 95.928C27.3707 96.184 27.328 96.44 27.2 96.696C27.1147 96.9093 26.9653 97.08 26.752 97.208C26.5387 97.336 26.2827 97.4 25.984 97.4C25.6853 97.3573 25.3867 97.1867 25.088 96.888C23.8507 95.7787 22.5707 95.032 21.248 94.648C19.968 94.2213 18.7093 94.008 17.472 94.008C15.6373 94.008 14.016 94.3067 12.608 94.904C11.2 95.5013 10.0053 96.376 9.024 97.528C8.08533 98.6373 7.36 100.024 6.848 101.688C6.37867 103.309 6.144 105.187 6.144 107.32C6.144 111.587 7.12533 114.936 9.088 117.368C11.0507 119.8 13.8453 121.016 17.472 121.016C18.7093 121.016 19.968 120.824 21.248 120.44C22.5707 120.013 23.8507 119.245 25.088 118.136C25.3867 117.837 25.6853 117.688 25.984 117.688C26.2827 117.645 26.5387 117.688 26.752 117.816C26.9653 117.944 27.1147 118.136 27.2 118.392C27.328 118.605 27.3707 118.84 27.328 119.096C27.328 119.352 27.2213 119.587 27.008 119.8C25.6853 121.123 24.1707 122.083 22.464 122.68C20.8 123.235 19.1573 123.512 17.536 123.512ZM38.036 123.512C35.22 123.512 32.7667 122.851 30.676 121.528C28.628 120.205 27.028 118.349 25.876 115.96C24.7667 113.571 24.212 110.755 24.212 107.512C24.212 105.08 24.532 102.883 25.172 100.92C25.812 98.9573 26.7293 97.272 27.924 95.864C29.1613 94.456 30.6333 93.3893 32.34 92.664C34.0467 91.896 35.9453 91.512 38.036 91.512C40.852 91.512 43.284 92.1733 45.332 93.496C47.4227 94.8187 49.0227 96.6747 50.132 99.064C51.284 101.453 51.86 104.269 51.86 107.512C51.86 109.944 51.54 112.141 50.9 114.104C50.26 116.067 49.3213 117.752 48.084 119.16C46.8893 120.568 45.4387 121.656 43.732 122.424C42.068 123.149 40.1693 123.512 38.036 123.512ZM38.036 121.016C40.2973 121.016 42.26 120.483 43.924 119.416C45.588 118.349 46.868 116.813 47.764 114.808C48.66 112.76 49.108 110.328 49.108 107.512C49.108 103.245 48.1053 99.9387 46.1 97.592C44.1373 95.2027 41.4493 94.008 38.036 94.008C35.7747 94.008 33.812 94.5413 32.148 95.608C30.484 96.6747 29.204 98.2107 28.308 100.216C27.412 102.221 26.964 104.653 26.964 107.512C26.964 111.779 27.9667 115.107 29.972 117.496C31.9773 119.843 34.6653 121.016 38.036 121.016ZM54.3615 123.384C53.9348 123.384 53.5935 123.256 53.3375 123C53.1242 122.744 53.0175 122.403 53.0175 121.976V93.048C53.0175 92.5787 53.1242 92.2373 53.3375 92.024C53.5935 91.768 53.9348 91.64 54.3615 91.64C54.7882 91.64 55.1082 91.768 55.3215 92.024C55.5348 92.2373 55.6415 92.5787 55.6415 93.048V99.576H54.9375C55.7908 96.888 57.2628 94.8827 59.3535 93.56C61.4442 92.1947 63.8548 91.512 66.5855 91.512C69.0602 91.512 71.1082 91.9387 72.7295 92.792C74.3935 93.6453 75.6308 94.9467 76.4415 96.696C77.2522 98.4453 77.6575 100.643 77.6575 103.288V121.976C77.6575 122.403 77.5295 122.744 77.2735 123C77.0602 123.256 76.7402 123.384 76.3135 123.384C75.8868 123.384 75.5455 123.256 75.2895 123C75.0762 122.744 74.9695 122.403 74.9695 121.976V103.544C74.9695 100.259 74.3082 97.848 72.9855 96.312C71.6628 94.776 69.5295 94.008 66.5855 94.008C63.3002 94.008 60.6548 95.032 58.6495 97.08C56.6868 99.0853 55.7055 101.795 55.7055 105.208V121.976C55.7055 122.915 55.2575 123.384 54.3615 123.384ZM91.5925 123.512C89.4592 123.512 87.6672 123.107 86.2165 122.296C84.7658 121.443 83.6778 120.248 82.9525 118.712C82.2272 117.133 81.8645 115.235 81.8645 113.016V94.328H76.6805C76.2538 94.328 75.9125 94.2213 75.6565 94.008C75.4005 93.7947 75.2725 93.5173 75.2725 93.176C75.2725 92.8347 75.4005 92.5573 75.6565 92.344C75.9125 92.1307 76.2538 92.024 76.6805 92.024H81.8645V83.384C81.8645 82.9147 81.9712 82.5733 82.1845 82.36C82.4405 82.104 82.7818 81.976 83.2085 81.976C83.6352 81.976 83.9552 82.104 84.1685 82.36C84.4245 82.5733 84.5525 82.9147 84.5525 83.384V92.024H93.7045C94.1738 92.024 94.5152 92.1307 94.7285 92.344C94.9845 92.5573 95.1125 92.8347 95.1125 93.176C95.1125 93.5173 94.9845 93.7947 94.7285 94.008C94.5152 94.2213 94.1738 94.328 93.7045 94.328H84.5525V112.44C84.5525 115.213 85.1072 117.347 86.2165 118.84C87.3258 120.291 89.1818 121.016 91.7845 121.016C92.6805 121.016 93.4058 120.931 93.9605 120.76C94.5578 120.547 95.0485 120.44 95.4325 120.44C95.6885 120.44 95.9018 120.547 96.0725 120.76C96.2858 120.973 96.3925 121.272 96.3925 121.656C96.3925 121.869 96.3285 122.104 96.2005 122.36C96.1152 122.573 95.9232 122.723 95.6245 122.808C95.1978 122.979 94.5792 123.128 93.7685 123.256C93.0005 123.427 92.2752 123.512 91.5925 123.512ZM102.876 123.512C100.871 123.512 99.0578 123.107 97.4365 122.296C95.8152 121.485 94.5352 120.397 93.5965 119.032C92.6578 117.624 92.1885 116.067 92.1885 114.36C92.1885 112.056 92.7432 110.264 93.8525 108.984C95.0045 107.661 96.9458 106.744 99.6765 106.232C102.45 105.677 106.247 105.4 111.069 105.4H113.692V107.768H111.197C106.973 107.768 103.687 107.96 101.34 108.344C99.0365 108.685 97.4152 109.325 96.4765 110.264C95.5805 111.16 95.1325 112.44 95.1325 114.104C95.1325 116.152 95.8365 117.837 97.2445 119.16C98.6952 120.44 100.636 121.08 103.068 121.08C105.031 121.08 106.738 120.611 108.188 119.672C109.682 118.691 110.855 117.389 111.708 115.768C112.562 114.104 112.989 112.227 112.989 110.136V102.84C112.989 99.768 112.391 97.528 111.197 96.12C110.002 94.712 108.082 94.008 105.437 94.008C103.73 94.008 102.087 94.2427 100.508 94.712C98.9725 95.1813 97.3512 95.9067 95.6445 96.888C95.2605 97.1013 94.9192 97.1867 94.6205 97.144C94.3645 97.1013 94.1512 96.9947 93.9805 96.824C93.8098 96.6107 93.6818 96.376 93.5965 96.12C93.5538 95.8213 93.5752 95.544 93.6605 95.288C93.7885 95.032 94.0018 94.8187 94.3005 94.648C96.0498 93.5813 97.8632 92.792 99.7405 92.28C101.618 91.768 103.474 91.512 105.309 91.512C107.655 91.512 109.596 91.9173 111.132 92.728C112.669 93.5387 113.799 94.776 114.524 96.44C115.293 98.104 115.677 100.237 115.677 102.84V121.976C115.677 122.403 115.57 122.744 115.357 123C115.143 123.256 114.823 123.384 114.396 123.384C113.97 123.384 113.628 123.256 113.372 123C113.159 122.744 113.052 122.403 113.052 121.976V115.256H113.757C113.33 116.963 112.605 118.435 111.58 119.672C110.557 120.909 109.298 121.869 107.805 122.552C106.354 123.192 104.711 123.512 102.876 123.512ZM130.823 123.512C127.879 123.512 125.341 122.829 123.207 121.464C121.117 120.099 119.495 118.2 118.343 115.768C117.234 113.336 116.679 110.499 116.679 107.256C116.679 104.824 116.999 102.648 117.639 100.728C118.279 98.7653 119.197 97.1013 120.391 95.736C121.629 94.3707 123.122 93.3253 124.871 92.6C126.621 91.8747 128.605 91.512 130.823 91.512C132.445 91.512 134.087 91.8107 135.751 92.408C137.458 92.9627 138.973 93.9013 140.295 95.224C140.509 95.4373 140.615 95.672 140.615 95.928C140.658 96.184 140.616 96.44 140.487 96.696C140.402 96.9093 140.253 97.08 140.039 97.208C139.826 97.336 139.57 97.4 139.271 97.4C138.973 97.3573 138.674 97.1867 138.375 96.888C137.138 95.7787 135.858 95.032 134.535 94.648C133.255 94.2213 131.997 94.008 130.759 94.008C128.925 94.008 127.303 94.3067 125.895 94.904C124.487 95.5013 123.293 96.376 122.311 97.528C121.373 98.6373 120.647 100.024 120.135 101.688C119.666 103.309 119.431 105.187 119.431 107.32C119.431 111.587 120.413 114.936 122.375 117.368C124.338 119.8 127.133 121.016 130.759 121.016C131.997 121.016 133.255 120.824 134.535 120.44C135.858 120.013 137.138 119.245 138.375 118.136C138.674 117.837 138.973 117.688 139.271 117.688C139.57 117.645 139.826 117.688 140.039 117.816C140.253 117.944 140.402 118.136 140.487 118.392C140.616 118.605 140.658 118.84 140.615 119.096C140.615 119.352 140.509 119.587 140.295 119.8C138.973 121.123 137.458 122.083 135.751 122.68C134.087 123.235 132.445 123.512 130.823 123.512ZM150.99 123.512C148.857 123.512 147.065 123.107 145.614 122.296C144.163 121.443 143.075 120.248 142.35 118.712C141.625 117.133 141.262 115.235 141.262 113.016V94.328H136.078C135.651 94.328 135.31 94.2213 135.054 94.008C134.798 93.7947 134.67 93.5173 134.67 93.176C134.67 92.8347 134.798 92.5573 135.054 92.344C135.31 92.1307 135.651 92.024 136.078 92.024H141.262V83.384C141.262 82.9147 141.369 82.5733 141.582 82.36C141.838 82.104 142.179 81.976 142.606 81.976C143.033 81.976 143.353 82.104 143.566 82.36C143.822 82.5733 143.95 82.9147 143.95 83.384V92.024H153.102C153.571 92.024 153.913 92.1307 154.126 92.344C154.382 92.5573 154.51 92.8347 154.51 93.176C154.51 93.5173 154.382 93.7947 154.126 94.008C153.913 94.2213 153.571 94.328 153.102 94.328H143.95V112.44C143.95 115.213 144.505 117.347 145.614 118.84C146.723 120.291 148.579 121.016 151.182 121.016C152.078 121.016 152.803 120.931 153.358 120.76C153.955 120.547 154.446 120.44 154.83 120.44C155.086 120.44 155.299 120.547 155.47 120.76C155.683 120.973 155.79 121.272 155.79 121.656C155.79 121.869 155.726 122.104 155.598 122.36C155.513 122.573 155.321 122.723 155.022 122.808C154.595 122.979 153.977 123.128 153.166 123.256C152.398 123.427 151.673 123.512 150.99 123.512Z" fill="#FF2DF1"/>
<path d="M154.899 123.192C154.216 123.192 153.64 122.957 153.171 122.488C152.702 122.019 152.467 121.443 152.467 120.76C152.467 120.035 152.702 119.459 153.171 119.032C153.64 118.563 154.216 118.328 154.899 118.328C155.624 118.328 156.2 118.563 156.627 119.032C157.054 119.459 157.267 120.035 157.267 120.76C157.267 121.443 157.054 122.019 156.627 122.488C156.2 122.957 155.624 123.192 154.899 123.192Z" fill="#FFFF00"/>
<path d="M160.847 123.384C160.42 123.384 160.079 123.256 159.823 123C159.61 122.744 159.503 122.403 159.503 121.976V93.048C159.503 92.5787 159.61 92.2373 159.823 92.024C160.079 91.768 160.42 91.64 160.847 91.64C161.274 91.64 161.594 91.768 161.807 92.024C162.02 92.2373 162.127 92.5787 162.127 93.048V99.576H161.423C162.191 96.9307 163.492 94.9253 165.327 93.56C167.162 92.1947 169.38 91.512 171.983 91.512C174.756 91.512 176.954 92.1947 178.575 93.56C180.239 94.8827 181.306 96.9093 181.775 99.64H180.815C181.498 97.1653 182.82 95.2027 184.783 93.752C186.788 92.2587 189.178 91.512 191.951 91.512C194.212 91.512 196.09 91.96 197.583 92.856C199.076 93.7093 200.207 95.0107 200.975 96.76C201.743 98.4667 202.127 100.643 202.127 103.288V121.976C202.127 122.403 201.999 122.744 201.743 123C201.53 123.256 201.21 123.384 200.783 123.384C200.356 123.384 200.015 123.256 199.759 123C199.546 122.744 199.439 122.403 199.439 121.976V103.544C199.439 100.259 198.842 97.848 197.647 96.312C196.495 94.776 194.554 94.008 191.823 94.008C188.879 94.008 186.532 95.032 184.783 97.08C183.034 99.0853 182.159 101.795 182.159 105.208V121.976C182.159 122.403 182.031 122.744 181.775 123C181.562 123.256 181.242 123.384 180.815 123.384C180.388 123.384 180.047 123.256 179.791 123C179.578 122.744 179.471 122.403 179.471 121.976V103.544C179.471 100.259 178.874 97.848 177.679 96.312C176.527 94.776 174.586 94.008 171.855 94.008C168.911 94.008 166.564 95.032 164.815 97.08C163.066 99.0853 162.191 101.795 162.191 105.208V121.976C162.191 122.915 161.743 123.384 160.847 123.384ZM207.624 123C207.112 123 206.707 122.872 206.408 122.616C206.152 122.317 206.024 121.912 206.024 121.4V79.48C206.024 78.968 206.152 78.584 206.408 78.328C206.707 78.0293 207.112 77.88 207.624 77.88H222.536C225.608 77.88 228.211 78.3493 230.344 79.288C232.477 80.184 234.099 81.5067 235.208 83.256C236.36 85.0053 236.936 87.16 236.936 89.72C236.936 92.5787 236.083 94.9467 234.376 96.824C232.669 98.7013 230.365 99.9387 227.464 100.536V99.64C230.664 99.9387 233.203 101.069 235.08 103.032C237 104.952 237.96 107.533 237.96 110.776C237.96 114.787 236.701 117.837 234.184 119.928C231.667 121.976 228.061 123 223.368 123H207.624ZM208.712 120.504H223.304C227.229 120.504 230.173 119.736 232.136 118.2C234.141 116.621 235.144 114.211 235.144 110.968C235.144 107.683 234.141 105.272 232.136 103.736C230.173 102.2 227.229 101.432 223.304 101.432H208.712V120.504ZM208.712 98.936H222.344C226.184 98.936 229.107 98.1467 231.112 96.568C233.117 94.9467 234.12 92.6427 234.12 89.656C234.12 86.6267 233.117 84.3227 231.112 82.744C229.107 81.1653 226.184 80.376 222.344 80.376H208.712V98.936ZM251.977 123.512C249.204 123.512 246.772 122.872 244.681 121.592C242.633 120.269 241.033 118.413 239.881 116.024C238.772 113.592 238.217 110.755 238.217 107.512C238.217 104.227 238.772 101.389 239.881 99C240.99 96.6107 242.569 94.776 244.617 93.496C246.708 92.1733 249.161 91.512 251.977 91.512C254.964 91.512 257.502 92.28 259.593 93.816C261.684 95.352 263.07 97.4427 263.753 100.088H263.049V78.904C263.049 78.4347 263.156 78.0933 263.369 77.88C263.625 77.624 263.966 77.496 264.393 77.496C264.82 77.496 265.14 77.624 265.353 77.88C265.609 78.0933 265.737 78.4347 265.737 78.904V121.976C265.737 122.403 265.609 122.744 265.353 123C265.14 123.256 264.82 123.384 264.393 123.384C263.966 123.384 263.625 123.256 263.369 123C263.156 122.744 263.049 122.403 263.049 121.976V114.936H263.753C263.07 117.539 261.684 119.629 259.593 121.208C257.502 122.744 254.964 123.512 251.977 123.512ZM252.041 121.016C254.302 121.016 256.265 120.483 257.929 119.416C259.593 118.349 260.873 116.813 261.769 114.808C262.665 112.76 263.113 110.328 263.113 107.512C263.113 103.245 262.11 99.9387 260.105 97.592C258.142 95.2027 255.454 94.008 252.041 94.008C249.78 94.008 247.817 94.5413 246.153 95.608C244.489 96.6747 243.209 98.2107 242.313 100.216C241.417 102.221 240.969 104.653 240.969 107.512C240.969 111.779 241.972 115.107 243.977 117.496C245.982 119.843 248.67 121.016 252.041 121.016ZM267.36 123.448C267.104 123.448 266.848 123.363 266.592 123.192C266.379 123.021 266.251 122.787 266.208 122.488C266.208 122.147 266.379 121.763 266.72 121.336L278.752 106.168V107.832L267.488 93.752C267.147 93.3253 266.976 92.9627 266.976 92.664C267.019 92.3227 267.147 92.0667 267.36 91.896C267.616 91.7253 267.872 91.64 268.128 91.64C268.469 91.64 268.768 91.7253 269.024 91.896C269.28 92.024 269.515 92.2373 269.728 92.536L280.224 105.72H279.264L289.76 92.536C289.973 92.2373 290.208 92.024 290.464 91.896C290.72 91.7253 291.019 91.64 291.36 91.64C291.616 91.64 291.851 91.7253 292.064 91.896C292.32 92.0667 292.448 92.3227 292.448 92.664C292.491 92.9627 292.341 93.3253 292 93.752L280.864 107.64V106.424L292.768 121.336C293.109 121.763 293.259 122.147 293.216 122.488C293.216 122.787 293.088 123.021 292.832 123.192C292.619 123.363 292.384 123.448 292.128 123.448C291.787 123.448 291.467 123.363 291.168 123.192C290.912 123.064 290.656 122.851 290.4 122.552L279.2 108.472H280.224L269.024 122.552C268.811 122.851 268.555 123.064 268.256 123.192C268 123.363 267.701 123.448 267.36 123.448Z" fill="#008DDA"/>
<defs>
<filter id="filter0_d_2016_28" x="36" y="0" width="212" height="212" filterUnits="userSpaceOnUse" color-interpolation-filters="sRGB">
<feFlood flood-opacity="0" result="BackgroundImageFix"/>
<feColorMatrix in="SourceAlpha" type="matrix" values="0 0 0 0 0 0 0 0 0 0 0 0 0 0 0 0 0 0 127 0" result="hardAlpha"/>
<feMorphology radius="2" operator="dilate" in="SourceAlpha" result="effect1_dropShadow_2016_28"/>
<feOffset dx="-6" dy="4"/>
<feGaussianBlur stdDeviation="2"/>
<feComposite in2="hardAlpha" operator="out"/>
<feColorMatrix type="matrix" values="0 0 0 0 1 0 0 0 0 1 0 0 0 0 1 0 0 0 0.2 0"/>
<feBlend mode="normal" in2="BackgroundImageFix" result="effect1_dropShadow_2016_28"/>
<feBlend mode="normal" in="SourceGraphic" in2="effect1_dropShadow_2016_28" result="shape"/>
</filter>
</defs>
</svg>
