<svg width="24" height="24" viewBox="0 0 24 24" fill="none" xmlns="http://www.w3.org/2000/svg">
<g clip-path="url(#clip0_5_38)">
<path d="M7 10H17" stroke="white" stroke-opacity="0.8" stroke-width="2" stroke-linecap="round" stroke-linejoin="round"/>
<path d="M9 14H14" stroke="white" stroke-opacity="0.8" stroke-width="2" stroke-linecap="round" stroke-linejoin="round"/>
<path d="M9 14H14" stroke="white" stroke-opacity="0.8" stroke-width="2" stroke-linecap="round" stroke-linejoin="round"/>
<path d="M12.4 3C13.445 3.00065 14.4668 3.30788 15.3388 3.88362C16.2109 4.45936 16.8949 5.27831 17.306 6.239C18.002 6.31747 18.6757 6.53225 19.2887 6.87109C19.9017 7.20993 20.442 7.6662 20.8787 8.21383C21.3153 8.76146 21.6398 9.38974 21.8337 10.0628C22.0276 10.7358 22.087 11.4405 22.0085 12.1365C21.93 12.8325 21.7152 13.5062 21.3764 14.1192C21.0376 14.7322 20.5813 15.2725 20.0337 15.7092C19.486 16.1458 18.8577 16.4704 18.1847 16.6642C17.5116 16.8581 16.807 16.9175 16.111 16.839C15.6045 17.735 14.7907 18.4173 13.82 18.7598C12.8494 19.1022 11.7876 19.0817 10.831 18.702L6.99999 21V17.866C6.60864 17.7755 6.24277 17.5978 5.92967 17.3462C5.61658 17.0946 5.36434 16.7755 5.19177 16.4128C5.01921 16.0501 4.93077 15.653 4.93306 15.2514C4.93535 14.8497 5.02831 14.4537 5.20499 14.093C4.25024 13.5438 3.51344 12.6829 3.1182 11.6548C2.72296 10.6267 2.69333 9.49389 3.03428 8.44653C3.37523 7.39917 4.06602 6.50093 4.99075 5.90252C5.91548 5.30411 7.01788 5.04194 8.11299 5.16C8.60884 4.48976 9.25501 3.94519 9.99956 3.57005C10.7441 3.19491 11.5663 2.99967 12.4 3Z" stroke="white" stroke-opacity="0.8" stroke-width="2" stroke-linecap="round" stroke-linejoin="round"/>
</g>
<defs>
<clipPath id="clip0_5_38">
<rect width="24" height="24" fill="white"/>
</clipPath>
</defs>
</svg>
