<svg width="274" height="212" viewBox="0 0 274 212" fill="none" xmlns="http://www.w3.org/2000/svg">
<g filter="url(#filter0_d_79_12)">
<circle cx="137" cy="102" r="100" fill="black" fill-opacity="0.8" shape-rendering="crispEdges"/>
</g>
<path d="M17.152 123.512C14.3787 123.512 11.9467 122.872 9.856 121.592C7.808 120.269 6.208 118.413 5.056 116.024C3.94667 113.592 3.392 110.755 3.392 107.512C3.392 104.227 3.94667 101.389 5.056 99C6.16533 96.6107 7.744 94.776 9.792 93.496C11.8827 92.1733 14.336 91.512 17.152 91.512C20.1387 91.512 22.6773 92.28 24.768 93.816C26.8587 95.352 28.2453 97.4427 28.928 100.088H28.224V78.904C28.224 78.4347 28.3307 78.0933 28.544 77.88C28.8 77.624 29.1413 77.496 29.568 77.496C29.9947 77.496 30.3147 77.624 30.528 77.88C30.784 78.0933 30.912 78.4347 30.912 78.904V121.976C30.912 122.403 30.784 122.744 30.528 123C30.3147 123.256 29.9947 123.384 29.568 123.384C29.1413 123.384 28.8 123.256 28.544 123C28.3307 122.744 28.224 122.403 28.224 121.976V114.936H28.928C28.2453 117.539 26.8587 119.629 24.768 121.208C22.6773 122.744 20.1387 123.512 17.152 123.512ZM17.216 121.016C19.4773 121.016 21.44 120.483 23.104 119.416C24.768 118.349 26.048 116.813 26.944 114.808C27.84 112.76 28.288 110.328 28.288 107.512C28.288 103.245 27.2853 99.9387 25.28 97.592C23.3173 95.2027 20.6293 94.008 17.216 94.008C14.9547 94.008 12.992 94.5413 11.328 95.608C9.664 96.6747 8.384 98.2107 7.488 100.216C6.592 102.221 6.144 104.653 6.144 107.512C6.144 111.779 7.14667 115.107 9.152 117.496C11.1573 119.843 13.8453 121.016 17.216 121.016ZM35.479 123.192C35.0523 123.192 34.711 123.064 34.455 122.808C34.2417 122.552 34.135 122.211 34.135 121.784V93.24C34.135 92.7707 34.2417 92.4293 34.455 92.216C34.711 91.96 35.0523 91.832 35.479 91.832C35.9057 91.832 36.2257 91.96 36.439 92.216C36.695 92.4293 36.823 92.7707 36.823 93.24V121.784C36.823 122.211 36.7163 122.552 36.503 122.808C36.2897 123.064 35.9483 123.192 35.479 123.192ZM35.479 83.576C34.7963 83.576 34.2417 83.384 33.815 83C33.431 82.5733 33.239 82.0187 33.239 81.336C33.239 80.6107 33.431 80.0773 33.815 79.736C34.2417 79.352 34.7963 79.16 35.479 79.16C36.2043 79.16 36.759 79.352 37.143 79.736C37.527 80.0773 37.719 80.6107 37.719 81.336C37.719 82.0187 37.527 82.5733 37.143 83C36.759 83.384 36.2043 83.576 35.479 83.576ZM53.1375 135.032C50.8762 135.032 48.6575 134.712 46.4815 134.072C44.3482 133.432 42.4068 132.429 40.6575 131.064C40.4442 130.893 40.2948 130.68 40.2095 130.424C40.1668 130.168 40.1882 129.912 40.2735 129.656C40.3588 129.443 40.4868 129.229 40.6575 129.016C40.8708 128.845 41.0842 128.739 41.2975 128.696C41.5535 128.696 41.8095 128.781 42.0655 128.952C43.9428 130.275 45.7348 131.192 47.4415 131.704C49.1908 132.259 51.1108 132.536 53.2015 132.536C56.4015 132.536 58.8335 131.619 60.4975 129.784C62.1615 127.992 62.9935 125.411 62.9935 122.04V113.528H63.6335C63.0362 116.259 61.6708 118.413 59.5375 119.992C57.4042 121.528 54.8655 122.296 51.9215 122.296C49.0628 122.296 46.5882 121.656 44.4975 120.376C42.4068 119.053 40.7855 117.24 39.6335 114.936C38.5242 112.589 37.9695 109.901 37.9695 106.872C37.9695 104.568 38.2895 102.477 38.9295 100.6C39.5695 98.7227 40.4868 97.1227 41.6815 95.8C42.9188 94.4347 44.3908 93.3893 46.0975 92.664C47.8042 91.896 49.7455 91.512 51.9215 91.512C54.8655 91.512 57.4042 92.3013 59.5375 93.88C61.6708 95.416 63.0362 97.5493 63.6335 100.28H62.9295V93.048C62.9295 92.5787 63.0362 92.2373 63.2495 92.024C63.5055 91.768 63.8468 91.64 64.2735 91.64C64.7002 91.64 65.0202 91.768 65.2335 92.024C65.4895 92.2373 65.6175 92.5787 65.6175 93.048V121.592C65.6175 126.029 64.5722 129.379 62.4815 131.64C60.3908 133.901 57.2762 135.032 53.1375 135.032ZM51.8575 119.8C54.1615 119.8 56.1455 119.267 57.8095 118.2C59.4735 117.133 60.7535 115.64 61.6495 113.72C62.5455 111.757 62.9935 109.475 62.9935 106.872C62.9935 102.947 61.9908 99.832 59.9855 97.528C57.9802 95.1813 55.2708 94.008 51.8575 94.008C49.5962 94.008 47.6122 94.5413 45.9055 95.608C44.2415 96.632 42.9615 98.104 42.0655 100.024C41.1695 101.944 40.7215 104.227 40.7215 106.872C40.7215 110.797 41.7242 113.933 43.7295 116.28C45.7348 118.627 48.4442 119.8 51.8575 119.8ZM70.1815 123.192C69.7548 123.192 69.4135 123.064 69.1575 122.808C68.9442 122.552 68.8375 122.211 68.8375 121.784V93.24C68.8375 92.7707 68.9442 92.4293 69.1575 92.216C69.4135 91.96 69.7548 91.832 70.1815 91.832C70.6082 91.832 70.9282 91.96 71.1415 92.216C71.3975 92.4293 71.5255 92.7707 71.5255 93.24V121.784C71.5255 122.211 71.4188 122.552 71.2055 122.808C70.9922 123.064 70.6508 123.192 70.1815 123.192ZM70.1815 83.576C69.4988 83.576 68.9442 83.384 68.5175 83C68.1335 82.5733 67.9415 82.0187 67.9415 81.336C67.9415 80.6107 68.1335 80.0773 68.5175 79.736C68.9442 79.352 69.4988 79.16 70.1815 79.16C70.9068 79.16 71.4615 79.352 71.8455 79.736C72.2295 80.0773 72.4215 80.6107 72.4215 81.336C72.4215 82.0187 72.2295 82.5733 71.8455 83C71.4615 83.384 70.9068 83.576 70.1815 83.576ZM85.6 123.512C83.4667 123.512 81.6747 123.107 80.224 122.296C78.7733 121.443 77.6853 120.248 76.96 118.712C76.2347 117.133 75.872 115.235 75.872 113.016V94.328H70.688C70.2613 94.328 69.92 94.2213 69.664 94.008C69.408 93.7947 69.28 93.5173 69.28 93.176C69.28 92.8347 69.408 92.5573 69.664 92.344C69.92 92.1307 70.2613 92.024 70.688 92.024H75.872V83.384C75.872 82.9147 75.9787 82.5733 76.192 82.36C76.448 82.104 76.7893 81.976 77.216 81.976C77.6427 81.976 77.9627 82.104 78.176 82.36C78.432 82.5733 78.56 82.9147 78.56 83.384V92.024H87.712C88.1813 92.024 88.5227 92.1307 88.736 92.344C88.992 92.5573 89.12 92.8347 89.12 93.176C89.12 93.5173 88.992 93.7947 88.736 94.008C88.5227 94.2213 88.1813 94.328 87.712 94.328H78.56V112.44C78.56 115.213 79.1147 117.347 80.224 118.84C81.3333 120.291 83.1893 121.016 85.792 121.016C86.688 121.016 87.4133 120.931 87.968 120.76C88.5653 120.547 89.056 120.44 89.44 120.44C89.696 120.44 89.9093 120.547 90.08 120.76C90.2933 120.973 90.4 121.272 90.4 121.656C90.4 121.869 90.336 122.104 90.208 122.36C90.1227 122.573 89.9307 122.723 89.632 122.808C89.2053 122.979 88.5867 123.128 87.776 123.256C87.008 123.427 86.2827 123.512 85.6 123.512ZM96.884 123.512C94.8787 123.512 93.0653 123.107 91.444 122.296C89.8227 121.485 88.5427 120.397 87.604 119.032C86.6653 117.624 86.196 116.067 86.196 114.36C86.196 112.056 86.7507 110.264 87.86 108.984C89.012 107.661 90.9533 106.744 93.684 106.232C96.4573 105.677 100.255 105.4 105.076 105.4H107.7V107.768H105.204C100.98 107.768 97.6947 107.96 95.348 108.344C93.044 108.685 91.4227 109.325 90.484 110.264C89.588 111.16 89.14 112.44 89.14 114.104C89.14 116.152 89.844 117.837 91.252 119.16C92.7027 120.44 94.644 121.08 97.076 121.08C99.0387 121.08 100.745 120.611 102.196 119.672C103.689 118.691 104.863 117.389 105.716 115.768C106.569 114.104 106.996 112.227 106.996 110.136V102.84C106.996 99.768 106.399 97.528 105.204 96.12C104.009 94.712 102.089 94.008 99.444 94.008C97.7373 94.008 96.0947 94.2427 94.516 94.712C92.98 95.1813 91.3587 95.9067 89.652 96.888C89.268 97.1013 88.9267 97.1867 88.628 97.144C88.372 97.1013 88.1587 96.9947 87.988 96.824C87.8173 96.6107 87.6893 96.376 87.604 96.12C87.5613 95.8213 87.5827 95.544 87.668 95.288C87.796 95.032 88.0093 94.8187 88.308 94.648C90.0573 93.5813 91.8707 92.792 93.748 92.28C95.6253 91.768 97.4813 91.512 99.316 91.512C101.663 91.512 103.604 91.9173 105.14 92.728C106.676 93.5387 107.807 94.776 108.532 96.44C109.3 98.104 109.684 100.237 109.684 102.84V121.976C109.684 122.403 109.577 122.744 109.364 123C109.151 123.256 108.831 123.384 108.404 123.384C107.977 123.384 107.636 123.256 107.38 123C107.167 122.744 107.06 122.403 107.06 121.976V115.256H107.764C107.337 116.963 106.612 118.435 105.588 119.672C104.564 120.909 103.305 121.869 101.812 122.552C100.361 123.192 98.7187 123.512 96.884 123.512ZM121.183 123.512C118.495 123.512 116.404 122.659 114.911 120.952C113.46 119.203 112.735 116.771 112.735 113.656V78.904C112.735 78.4347 112.842 78.0933 113.055 77.88C113.311 77.624 113.652 77.496 114.079 77.496C114.506 77.496 114.826 77.624 115.039 77.88C115.295 78.0933 115.423 78.4347 115.423 78.904V113.208C115.423 115.811 115.935 117.773 116.959 119.096C117.983 120.376 119.476 121.016 121.439 121.016C121.866 121.016 122.228 120.995 122.527 120.952C122.826 120.909 123.124 120.888 123.423 120.888C123.764 120.888 124.02 120.952 124.191 121.08C124.404 121.208 124.511 121.464 124.511 121.848C124.511 122.317 124.383 122.659 124.127 122.872C123.871 123.085 123.444 123.256 122.847 123.384C122.548 123.427 122.25 123.448 121.951 123.448C121.695 123.491 121.439 123.512 121.183 123.512Z" fill="#FF2DF1"/>
<path d="M121.08 123.448C120.824 123.448 120.568 123.363 120.312 123.192C120.099 123.021 119.971 122.787 119.928 122.488C119.928 122.147 120.099 121.763 120.44 121.336L132.472 106.168V107.832L121.208 93.752C120.867 93.3253 120.696 92.9627 120.696 92.664C120.739 92.3227 120.867 92.0667 121.08 91.896C121.336 91.7253 121.592 91.64 121.848 91.64C122.189 91.64 122.488 91.7253 122.744 91.896C123 92.024 123.235 92.2373 123.448 92.536L133.944 105.72H132.984L143.48 92.536C143.693 92.2373 143.928 92.024 144.184 91.896C144.44 91.7253 144.739 91.64 145.08 91.64C145.336 91.64 145.571 91.7253 145.784 91.896C146.04 92.0667 146.168 92.3227 146.168 92.664C146.211 92.9627 146.061 93.3253 145.72 93.752L134.584 107.64V106.424L146.488 121.336C146.829 121.763 146.979 122.147 146.936 122.488C146.936 122.787 146.808 123.021 146.552 123.192C146.339 123.363 146.104 123.448 145.848 123.448C145.507 123.448 145.187 123.363 144.888 123.192C144.632 123.064 144.376 122.851 144.12 122.552L132.92 108.472H133.944L122.744 122.552C122.531 122.851 122.275 123.064 121.976 123.192C121.72 123.363 121.421 123.448 121.08 123.448Z" fill="#FFFF00"/>
<path d="M156.726 123.512C154.764 123.512 152.865 123.235 151.03 122.68C149.196 122.125 147.404 121.187 145.654 119.864C145.441 119.693 145.292 119.48 145.206 119.224C145.164 118.968 145.164 118.712 145.206 118.456C145.292 118.2 145.42 117.987 145.59 117.816C145.804 117.603 146.038 117.496 146.294 117.496C146.593 117.496 146.892 117.603 147.19 117.816C148.812 119.011 150.433 119.843 152.054 120.312C153.676 120.781 155.297 121.016 156.918 121.016C159.692 121.016 161.804 120.483 163.254 119.416C164.748 118.349 165.494 116.899 165.494 115.064C165.494 113.613 165.004 112.483 164.022 111.672C163.084 110.819 161.548 110.136 159.414 109.624L154.102 108.344C151.414 107.704 149.43 106.723 148.15 105.4C146.913 104.077 146.294 102.371 146.294 100.28C146.294 98.5307 146.742 96.9947 147.638 95.672C148.577 94.3493 149.878 93.3253 151.542 92.6C153.249 91.8747 155.212 91.512 157.43 91.512C159.308 91.512 161.1 91.8107 162.806 92.408C164.556 93.0053 166.028 93.9013 167.222 95.096C167.478 95.352 167.628 95.6293 167.67 95.928C167.756 96.184 167.756 96.44 167.67 96.696C167.585 96.952 167.436 97.144 167.222 97.272C167.009 97.4 166.753 97.464 166.454 97.464C166.198 97.4213 165.921 97.272 165.622 97.016C164.428 95.992 163.126 95.2453 161.718 94.776C160.31 94.264 158.86 94.008 157.366 94.008C154.764 94.008 152.737 94.584 151.286 95.736C149.836 96.8453 149.11 98.3387 149.11 100.216C149.11 101.667 149.558 102.84 150.454 103.736C151.35 104.632 152.78 105.315 154.742 105.784L160.054 107.064C162.828 107.747 164.897 108.707 166.262 109.944C167.628 111.181 168.31 112.845 168.31 114.936C168.31 117.539 167.265 119.629 165.174 121.208C163.084 122.744 160.268 123.512 156.726 123.512ZM180.325 123.512C178.192 123.512 176.4 123.107 174.949 122.296C173.498 121.443 172.41 120.248 171.685 118.712C170.96 117.133 170.597 115.235 170.597 113.016V94.328H165.413C164.986 94.328 164.645 94.2213 164.389 94.008C164.133 93.7947 164.005 93.5173 164.005 93.176C164.005 92.8347 164.133 92.5573 164.389 92.344C164.645 92.1307 164.986 92.024 165.413 92.024H170.597V83.384C170.597 82.9147 170.704 82.5733 170.917 82.36C171.173 82.104 171.514 81.976 171.941 81.976C172.368 81.976 172.688 82.104 172.901 82.36C173.157 82.5733 173.285 82.9147 173.285 83.384V92.024H182.437C182.906 92.024 183.248 92.1307 183.461 92.344C183.717 92.5573 183.845 92.8347 183.845 93.176C183.845 93.5173 183.717 93.7947 183.461 94.008C183.248 94.2213 182.906 94.328 182.437 94.328H173.285V112.44C173.285 115.213 173.84 117.347 174.949 118.84C176.058 120.291 177.914 121.016 180.517 121.016C181.413 121.016 182.138 120.931 182.693 120.76C183.29 120.547 183.781 120.44 184.165 120.44C184.421 120.44 184.634 120.547 184.805 120.76C185.018 120.973 185.125 121.272 185.125 121.656C185.125 121.869 185.061 122.104 184.933 122.36C184.848 122.573 184.656 122.723 184.357 122.808C183.93 122.979 183.312 123.128 182.501 123.256C181.733 123.427 181.008 123.512 180.325 123.512ZM193.081 123.512C190.649 123.512 188.622 123.064 187.001 122.168C185.38 121.272 184.164 119.949 183.353 118.2C182.542 116.451 182.137 114.275 182.137 111.672V93.048C182.137 92.5787 182.244 92.2373 182.457 92.024C182.713 91.768 183.054 91.64 183.481 91.64C183.908 91.64 184.228 91.768 184.441 92.024C184.697 92.2373 184.825 92.5787 184.825 93.048V111.416C184.825 114.659 185.486 117.069 186.809 118.648C188.132 120.227 190.222 121.016 193.081 121.016C196.196 121.016 198.713 119.992 200.633 117.944C202.596 115.853 203.577 113.123 203.577 109.752V93.048C203.577 92.5787 203.684 92.2373 203.897 92.024C204.153 91.768 204.494 91.64 204.921 91.64C205.348 91.64 205.668 91.768 205.881 92.024C206.137 92.2373 206.265 92.5787 206.265 93.048V121.976C206.265 122.915 205.838 123.384 204.985 123.384C204.558 123.384 204.217 123.256 203.961 123C203.748 122.744 203.641 122.403 203.641 121.976V115.256H204.409C203.598 117.944 202.169 119.992 200.121 121.4C198.073 122.808 195.726 123.512 193.081 123.512ZM221.172 123.512C218.399 123.512 215.967 122.872 213.876 121.592C211.828 120.269 210.228 118.413 209.076 116.024C207.967 113.592 207.412 110.755 207.412 107.512C207.412 104.227 207.967 101.389 209.076 99C210.185 96.6107 211.764 94.776 213.812 93.496C215.903 92.1733 218.356 91.512 221.172 91.512C224.159 91.512 226.697 92.28 228.788 93.816C230.879 95.352 232.265 97.4427 232.948 100.088H232.244V78.904C232.244 78.4347 232.351 78.0933 232.564 77.88C232.82 77.624 233.161 77.496 233.588 77.496C234.015 77.496 234.335 77.624 234.548 77.88C234.804 78.0933 234.932 78.4347 234.932 78.904V121.976C234.932 122.403 234.804 122.744 234.548 123C234.335 123.256 234.015 123.384 233.588 123.384C233.161 123.384 232.82 123.256 232.564 123C232.351 122.744 232.244 122.403 232.244 121.976V114.936H232.948C232.265 117.539 230.879 119.629 228.788 121.208C226.697 122.744 224.159 123.512 221.172 123.512ZM221.236 121.016C223.497 121.016 225.46 120.483 227.124 119.416C228.788 118.349 230.068 116.813 230.964 114.808C231.86 112.76 232.308 110.328 232.308 107.512C232.308 103.245 231.305 99.9387 229.3 97.592C227.337 95.2027 224.649 94.008 221.236 94.008C218.975 94.008 217.012 94.5413 215.348 95.608C213.684 96.6747 212.404 98.2107 211.508 100.216C210.612 102.221 210.164 104.653 210.164 107.512C210.164 111.779 211.167 115.107 213.172 117.496C215.177 119.843 217.865 121.016 221.236 121.016ZM239.499 123.192C239.072 123.192 238.731 123.064 238.475 122.808C238.262 122.552 238.155 122.211 238.155 121.784V93.24C238.155 92.7707 238.262 92.4293 238.475 92.216C238.731 91.96 239.072 91.832 239.499 91.832C239.926 91.832 240.246 91.96 240.459 92.216C240.715 92.4293 240.843 92.7707 240.843 93.24V121.784C240.843 122.211 240.736 122.552 240.523 122.808C240.31 123.064 239.968 123.192 239.499 123.192ZM239.499 83.576C238.816 83.576 238.262 83.384 237.835 83C237.451 82.5733 237.259 82.0187 237.259 81.336C237.259 80.6107 237.451 80.0773 237.835 79.736C238.262 79.352 238.816 79.16 239.499 79.16C240.224 79.16 240.779 79.352 241.163 79.736C241.547 80.0773 241.739 80.6107 241.739 81.336C241.739 82.0187 241.547 82.5733 241.163 83C240.779 83.384 240.224 83.576 239.499 83.576ZM255.814 123.512C252.998 123.512 250.544 122.851 248.454 121.528C246.406 120.205 244.806 118.349 243.654 115.96C242.544 113.571 241.99 110.755 241.99 107.512C241.99 105.08 242.31 102.883 242.95 100.92C243.59 98.9573 244.507 97.272 245.702 95.864C246.939 94.456 248.411 93.3893 250.118 92.664C251.824 91.896 253.723 91.512 255.814 91.512C258.63 91.512 261.062 92.1733 263.11 93.496C265.2 94.8187 266.8 96.6747 267.91 99.064C269.062 101.453 269.638 104.269 269.638 107.512C269.638 109.944 269.318 112.141 268.678 114.104C268.038 116.067 267.099 117.752 265.862 119.16C264.667 120.568 263.216 121.656 261.51 122.424C259.846 123.149 257.947 123.512 255.814 123.512ZM255.814 121.016C258.075 121.016 260.038 120.483 261.702 119.416C263.366 118.349 264.646 116.813 265.542 114.808C266.438 112.76 266.886 110.328 266.886 107.512C266.886 103.245 265.883 99.9387 263.878 97.592C261.915 95.2027 259.227 94.008 255.814 94.008C253.552 94.008 251.59 94.5413 249.926 95.608C248.262 96.6747 246.982 98.2107 246.086 100.216C245.19 102.221 244.742 104.653 244.742 107.512C244.742 111.779 245.744 115.107 247.75 117.496C249.755 119.843 252.443 121.016 255.814 121.016Z" fill="#008DDA"/>
<defs>
<filter id="filter0_d_79_12" x="37" y="0" width="212" height="212" filterUnits="userSpaceOnUse" color-interpolation-filters="sRGB">
<feFlood flood-opacity="0" result="BackgroundImageFix"/>
<feColorMatrix in="SourceAlpha" type="matrix" values="0 0 0 0 0 0 0 0 0 0 0 0 0 0 0 0 0 0 127 0" result="hardAlpha"/>
<feMorphology radius="2" operator="dilate" in="SourceAlpha" result="effect1_dropShadow_79_12"/>
<feOffset dx="6" dy="4"/>
<feGaussianBlur stdDeviation="2"/>
<feComposite in2="hardAlpha" operator="out"/>
<feColorMatrix type="matrix" values="0 0 0 0 1 0 0 0 0 1 0 0 0 0 1 0 0 0 0.2 0"/>
<feBlend mode="normal" in2="BackgroundImageFix" result="effect1_dropShadow_79_12"/>
<feBlend mode="normal" in="SourceGraphic" in2="effect1_dropShadow_79_12" result="shape"/>
</filter>
</defs>
</svg>
