<svg width="223" height="212" viewBox="0 0 223 212" fill="none" xmlns="http://www.w3.org/2000/svg">
<g filter="url(#filter0_d_2016_28)">
<circle cx="112" cy="102" r="100" fill="black" fill-opacity="0.8" shape-rendering="crispEdges"/>
</g>
<path d="M13.864 117.384C11.784 117.384 9.96 116.904 8.392 115.944C6.856 114.952 5.656 113.56 4.792 111.768C3.96 109.944 3.544 107.816 3.544 105.384C3.544 102.92 3.96 100.792 4.792 99C5.624 97.208 6.808 95.832 8.344 94.872C9.912 93.88 11.752 93.384 13.864 93.384C16.104 93.384 18.008 93.96 19.576 95.112C21.144 96.264 22.184 97.832 22.696 99.816H22.168V83.928C22.168 83.576 22.248 83.32 22.408 83.16C22.6 82.968 22.856 82.872 23.176 82.872C23.496 82.872 23.736 82.968 23.896 83.16C24.088 83.32 24.184 83.576 24.184 83.928V116.232C24.184 116.552 24.088 116.808 23.896 117C23.736 117.192 23.496 117.288 23.176 117.288C22.856 117.288 22.6 117.192 22.408 117C22.248 116.808 22.168 116.552 22.168 116.232V110.952H22.696C22.184 112.904 21.144 114.472 19.576 115.656C18.008 116.808 16.104 117.384 13.864 117.384ZM13.912 115.512C15.608 115.512 17.08 115.112 18.328 114.312C19.576 113.512 20.536 112.36 21.208 110.856C21.88 109.32 22.216 107.496 22.216 105.384C22.216 102.184 21.464 99.704 19.96 97.944C18.488 96.152 16.472 95.256 13.912 95.256C12.216 95.256 10.744 95.656 9.496 96.456C8.248 97.256 7.288 98.408 6.616 99.912C5.944 101.416 5.608 103.24 5.608 105.384C5.608 108.584 6.36 111.08 7.864 112.872C9.368 114.632 11.384 115.512 13.912 115.512ZM27.6093 117.144C27.2892 117.144 27.0332 117.048 26.8412 116.856C26.6812 116.664 26.6012 116.408 26.6012 116.088V94.68C26.6012 94.328 26.6812 94.072 26.8412 93.912C27.0332 93.72 27.2892 93.624 27.6093 93.624C27.9293 93.624 28.1693 93.72 28.3293 93.912C28.5213 94.072 28.6172 94.328 28.6172 94.68V116.088C28.6172 116.408 28.5373 116.664 28.3773 116.856C28.2173 117.048 27.9613 117.144 27.6093 117.144ZM27.6093 87.432C27.0972 87.432 26.6812 87.288 26.3613 87C26.0732 86.68 25.9292 86.264 25.9292 85.752C25.9292 85.208 26.0732 84.808 26.3613 84.552C26.6812 84.264 27.0972 84.12 27.6093 84.12C28.1532 84.12 28.5692 84.264 28.8572 84.552C29.1452 84.808 29.2892 85.208 29.2892 85.752C29.2892 86.264 29.1452 86.68 28.8572 87C28.5692 87.288 28.1532 87.432 27.6093 87.432ZM40.8531 126.024C39.1571 126.024 37.4931 125.784 35.8611 125.304C34.2611 124.824 32.8051 124.072 31.4931 123.048C31.3331 122.92 31.2211 122.76 31.1571 122.568C31.1251 122.376 31.1411 122.184 31.2051 121.992C31.2691 121.832 31.3651 121.672 31.4931 121.512C31.6531 121.384 31.8131 121.304 31.9731 121.272C32.1651 121.272 32.3571 121.336 32.5491 121.464C33.9571 122.456 35.3011 123.144 36.5811 123.528C37.8931 123.944 39.3331 124.152 40.9011 124.152C43.3011 124.152 45.1251 123.464 46.3731 122.088C47.6211 120.744 48.2451 118.808 48.2451 116.28V109.896H48.7251C48.2771 111.944 47.2531 113.56 45.6531 114.744C44.0531 115.896 42.1491 116.472 39.9411 116.472C37.7971 116.472 35.9411 115.992 34.3731 115.032C32.8051 114.04 31.5891 112.68 30.7251 110.952C29.8931 109.192 29.4771 107.176 29.4771 104.904C29.4771 103.176 29.7171 101.608 30.1971 100.2C30.6771 98.792 31.3651 97.592 32.2611 96.6C33.1891 95.576 34.2931 94.792 35.5731 94.248C36.8531 93.672 38.3091 93.384 39.9411 93.384C42.1491 93.384 44.0531 93.976 45.6531 95.16C47.2531 96.312 48.2771 97.912 48.7251 99.96H48.1971V94.536C48.1971 94.184 48.2771 93.928 48.4371 93.768C48.6291 93.576 48.8851 93.48 49.2051 93.48C49.5251 93.48 49.7651 93.576 49.9251 93.768C50.1171 93.928 50.2131 94.184 50.2131 94.536V115.944C50.2131 119.272 49.4291 121.784 47.8611 123.48C46.2931 125.176 43.9571 126.024 40.8531 126.024ZM39.8931 114.6C41.6211 114.6 43.1091 114.2 44.3571 113.4C45.6051 112.6 46.5651 111.48 47.2371 110.04C47.9091 108.568 48.2451 106.856 48.2451 104.904C48.2451 101.96 47.4931 99.624 45.9891 97.896C44.4851 96.136 42.4531 95.256 39.8931 95.256C38.1971 95.256 36.7091 95.656 35.4291 96.456C34.1811 97.224 33.2211 98.328 32.5491 99.768C31.8771 101.208 31.5411 102.92 31.5411 104.904C31.5411 107.848 32.2931 110.2 33.7971 111.96C35.3011 113.72 37.3331 114.6 39.8931 114.6ZM53.6361 117.144C53.3161 117.144 53.0601 117.048 52.8681 116.856C52.7081 116.664 52.6281 116.408 52.6281 116.088V94.68C52.6281 94.328 52.7081 94.072 52.8681 93.912C53.0601 93.72 53.3161 93.624 53.6361 93.624C53.9561 93.624 54.1961 93.72 54.3561 93.912C54.5481 94.072 54.6441 94.328 54.6441 94.68V116.088C54.6441 116.408 54.5641 116.664 54.4041 116.856C54.2441 117.048 53.9881 117.144 53.6361 117.144ZM53.6361 87.432C53.1241 87.432 52.7081 87.288 52.3881 87C52.1001 86.68 51.9561 86.264 51.9561 85.752C51.9561 85.208 52.1001 84.808 52.3881 84.552C52.7081 84.264 53.1241 84.12 53.6361 84.12C54.1801 84.12 54.5961 84.264 54.8841 84.552C55.1721 84.808 55.3161 85.208 55.3161 85.752C55.3161 86.264 55.1721 86.68 54.8841 87C54.5961 87.288 54.1801 87.432 53.6361 87.432ZM65.2 117.384C63.6 117.384 62.256 117.08 61.168 116.472C60.08 115.832 59.264 114.936 58.72 113.784C58.176 112.6 57.904 111.176 57.904 109.512V95.496H54.016C53.696 95.496 53.44 95.416 53.248 95.256C53.056 95.096 52.96 94.888 52.96 94.632C52.96 94.376 53.056 94.168 53.248 94.008C53.44 93.848 53.696 93.768 54.016 93.768H57.904V87.288C57.904 86.936 57.984 86.68 58.144 86.52C58.336 86.328 58.592 86.232 58.912 86.232C59.232 86.232 59.472 86.328 59.632 86.52C59.824 86.68 59.92 86.936 59.92 87.288V93.768H66.784C67.136 93.768 67.392 93.848 67.552 94.008C67.744 94.168 67.84 94.376 67.84 94.632C67.84 94.888 67.744 95.096 67.552 95.256C67.392 95.416 67.136 95.496 66.784 95.496H59.92V109.08C59.92 111.16 60.336 112.76 61.168 113.88C62 114.968 63.392 115.512 65.344 115.512C66.016 115.512 66.56 115.448 66.976 115.32C67.424 115.16 67.792 115.08 68.08 115.08C68.272 115.08 68.432 115.16 68.56 115.32C68.72 115.48 68.8 115.704 68.8 115.992C68.8 116.152 68.752 116.328 68.656 116.52C68.592 116.68 68.448 116.792 68.224 116.856C67.904 116.984 67.44 117.096 66.832 117.192C66.256 117.32 65.712 117.384 65.2 117.384ZM73.663 117.384C72.159 117.384 70.799 117.08 69.583 116.472C68.367 115.864 67.407 115.048 66.703 114.024C65.999 112.968 65.647 111.8 65.647 110.52C65.647 108.792 66.063 107.448 66.895 106.488C67.759 105.496 69.215 104.808 71.263 104.424C73.343 104.008 76.191 103.8 79.807 103.8H81.775V105.576H79.903C76.735 105.576 74.271 105.72 72.511 106.008C70.783 106.264 69.567 106.744 68.863 107.448C68.191 108.12 67.855 109.08 67.855 110.328C67.855 111.864 68.383 113.128 69.439 114.12C70.527 115.08 71.983 115.56 73.807 115.56C75.279 115.56 76.559 115.208 77.647 114.504C78.767 113.768 79.647 112.792 80.287 111.576C80.927 110.328 81.247 108.92 81.247 107.352V101.88C81.247 99.576 80.799 97.896 79.903 96.84C79.007 95.784 77.567 95.256 75.583 95.256C74.303 95.256 73.071 95.432 71.887 95.784C70.735 96.136 69.519 96.68 68.239 97.416C67.951 97.576 67.695 97.64 67.471 97.608C67.279 97.576 67.119 97.496 66.991 97.368C66.863 97.208 66.767 97.032 66.703 96.84C66.671 96.616 66.687 96.408 66.751 96.216C66.847 96.024 67.007 95.864 67.231 95.736C68.543 94.936 69.903 94.344 71.311 93.96C72.719 93.576 74.111 93.384 75.487 93.384C77.247 93.384 78.703 93.688 79.855 94.296C81.007 94.904 81.855 95.832 82.399 97.08C82.975 98.328 83.263 99.928 83.263 101.88V116.232C83.263 116.552 83.183 116.808 83.023 117C82.863 117.192 82.623 117.288 82.303 117.288C81.983 117.288 81.727 117.192 81.535 117C81.375 116.808 81.295 116.552 81.295 116.232V111.192H81.823C81.503 112.472 80.959 113.576 80.191 114.504C79.423 115.432 78.479 116.152 77.359 116.664C76.271 117.144 75.039 117.384 73.663 117.384ZM91.8873 117.384C89.8713 117.384 88.3033 116.744 87.1833 115.464C86.0953 114.152 85.5513 112.328 85.5513 109.992V83.928C85.5513 83.576 85.6313 83.32 85.7913 83.16C85.9833 82.968 86.2393 82.872 86.5593 82.872C86.8793 82.872 87.1193 82.968 87.2793 83.16C87.4713 83.32 87.5673 83.576 87.5673 83.928V109.656C87.5673 111.608 87.9513 113.08 88.7193 114.072C89.4873 115.032 90.6073 115.512 92.0793 115.512C92.3993 115.512 92.6713 115.496 92.8953 115.464C93.1193 115.432 93.3433 115.416 93.5673 115.416C93.8233 115.416 94.0153 115.464 94.1433 115.56C94.3033 115.656 94.3833 115.848 94.3833 116.136C94.3833 116.488 94.2873 116.744 94.0953 116.904C93.9033 117.064 93.5833 117.192 93.1353 117.288C92.9113 117.32 92.6873 117.336 92.4633 117.336C92.2713 117.368 92.0793 117.384 91.8873 117.384Z" fill="#008DDA"/>
<path d="M94.4868 117.144C93.9748 117.144 93.5428 116.968 93.1908 116.616C92.8388 116.264 92.6628 115.832 92.6628 115.32C92.6628 114.776 92.8388 114.344 93.1908 114.024C93.5428 113.672 93.9748 113.496 94.4868 113.496C95.0308 113.496 95.4628 113.672 95.7828 114.024C96.1028 114.344 96.2628 114.776 96.2628 115.32C96.2628 115.832 96.1028 116.264 95.7828 116.616C95.4628 116.968 95.0308 117.144 94.4868 117.144Z" fill="#FF2DF1"/>
<path d="M105.326 117.384C103.854 117.384 102.43 117.176 101.054 116.76C99.6781 116.344 98.3341 115.64 97.0221 114.648C96.8621 114.52 96.7501 114.36 96.6861 114.168C96.6541 113.976 96.6541 113.784 96.6861 113.592C96.7501 113.4 96.8461 113.24 96.9741 113.112C97.1341 112.952 97.3101 112.872 97.5021 112.872C97.7261 112.872 97.9501 112.952 98.1741 113.112C99.3901 114.008 100.606 114.632 101.822 114.984C103.038 115.336 104.254 115.512 105.47 115.512C107.55 115.512 109.134 115.112 110.222 114.312C111.342 113.512 111.902 112.424 111.902 111.048C111.902 109.96 111.534 109.112 110.798 108.504C110.094 107.864 108.942 107.352 107.342 106.968L103.358 106.008C101.342 105.528 99.8541 104.792 98.8941 103.8C97.9661 102.808 97.5021 101.528 97.5021 99.96C97.5021 98.648 97.8381 97.496 98.5101 96.504C99.2141 95.512 100.19 94.744 101.438 94.2C102.718 93.656 104.19 93.384 105.854 93.384C107.262 93.384 108.606 93.608 109.886 94.056C111.198 94.504 112.302 95.176 113.198 96.072C113.39 96.264 113.502 96.472 113.534 96.696C113.598 96.888 113.598 97.08 113.534 97.272C113.47 97.464 113.358 97.608 113.198 97.704C113.038 97.8 112.846 97.848 112.622 97.848C112.43 97.816 112.222 97.704 111.998 97.512C111.102 96.744 110.126 96.184 109.07 95.832C108.014 95.448 106.926 95.256 105.806 95.256C103.854 95.256 102.334 95.688 101.246 96.552C100.158 97.384 99.6141 98.504 99.6141 99.912C99.6141 101 99.9501 101.88 100.622 102.552C101.294 103.224 102.366 103.736 103.838 104.088L107.822 105.048C109.902 105.56 111.454 106.28 112.478 107.208C113.502 108.136 114.014 109.384 114.014 110.952C114.014 112.904 113.23 114.472 111.662 115.656C110.094 116.808 107.982 117.384 105.326 117.384ZM124.747 117.384C122.443 117.384 120.459 116.904 118.795 115.944C117.131 114.984 115.835 113.624 114.907 111.864C114.011 110.072 113.563 107.944 113.563 105.48C113.563 103.048 114.011 100.936 114.907 99.144C115.835 97.32 117.099 95.912 118.699 94.92C120.331 93.896 122.203 93.384 124.315 93.384C125.819 93.384 127.147 93.64 128.299 94.152C129.483 94.664 130.475 95.4 131.275 96.36C132.107 97.32 132.731 98.488 133.147 99.864C133.595 101.24 133.819 102.792 133.819 104.52C133.819 104.936 133.723 105.256 133.531 105.48C133.371 105.672 133.115 105.768 132.763 105.768H114.859V103.992H132.763L131.947 104.568C131.947 102.616 131.659 100.952 131.083 99.576C130.507 98.168 129.643 97.096 128.491 96.36C127.371 95.592 125.963 95.208 124.267 95.208C122.411 95.208 120.827 95.656 119.515 96.552C118.235 97.416 117.259 98.6 116.587 100.104C115.947 101.608 115.627 103.32 115.627 105.24V105.48C115.627 108.68 116.411 111.16 117.979 112.92C119.579 114.648 121.803 115.512 124.651 115.512C125.931 115.512 127.131 115.352 128.251 115.032C129.371 114.68 130.475 114.072 131.563 113.208C131.787 113.016 132.011 112.92 132.235 112.92C132.491 112.888 132.699 112.936 132.859 113.064C133.051 113.16 133.179 113.304 133.243 113.496C133.339 113.656 133.355 113.848 133.291 114.072C133.227 114.296 133.067 114.504 132.811 114.696C131.819 115.528 130.603 116.184 129.163 116.664C127.723 117.144 126.251 117.384 124.747 117.384ZM135.472 117.288C135.152 117.288 134.896 117.192 134.704 117C134.544 116.808 134.464 116.552 134.464 116.232V94.536C134.464 94.184 134.544 93.928 134.704 93.768C134.896 93.576 135.152 93.48 135.472 93.48C135.792 93.48 136.032 93.576 136.192 93.768C136.352 93.928 136.432 94.184 136.432 94.536V99.192H135.952C136.56 97.304 137.632 95.848 139.168 94.824C140.736 93.8 142.544 93.288 144.592 93.288C144.88 93.288 145.12 93.352 145.312 93.48C145.536 93.576 145.648 93.784 145.648 94.104C145.648 94.424 145.568 94.68 145.408 94.872C145.248 95.032 144.976 95.128 144.592 95.16L144.016 95.208C141.648 95.432 139.792 96.232 138.448 97.608C137.136 98.984 136.48 100.808 136.48 103.08V116.232C136.48 116.552 136.4 116.808 136.24 117C136.08 117.192 135.824 117.288 135.472 117.288ZM153.877 117.288C153.525 117.288 153.221 117.192 152.965 117C152.709 116.776 152.485 116.456 152.293 116.04L143.365 95.16C143.237 94.84 143.189 94.568 143.221 94.344C143.253 94.088 143.349 93.88 143.509 93.72C143.701 93.56 143.957 93.48 144.277 93.48C144.565 93.48 144.773 93.56 144.901 93.72C145.061 93.848 145.205 94.04 145.333 94.296L154.453 116.28H153.301L162.469 94.296C162.597 94.04 162.725 93.848 162.853 93.72C163.013 93.56 163.253 93.48 163.573 93.48C163.893 93.48 164.117 93.56 164.245 93.72C164.405 93.88 164.485 94.088 164.485 94.344C164.517 94.568 164.469 94.824 164.341 95.112L155.461 116.04C155.301 116.456 155.077 116.776 154.789 117C154.533 117.192 154.229 117.288 153.877 117.288ZM165.296 117.144C164.976 117.144 164.72 117.048 164.528 116.856C164.368 116.664 164.288 116.408 164.288 116.088V94.68C164.288 94.328 164.368 94.072 164.528 93.912C164.72 93.72 164.976 93.624 165.296 93.624C165.616 93.624 165.856 93.72 166.016 93.912C166.208 94.072 166.304 94.328 166.304 94.68V116.088C166.304 116.408 166.224 116.664 166.064 116.856C165.904 117.048 165.648 117.144 165.296 117.144ZM165.296 87.432C164.784 87.432 164.368 87.288 164.048 87C163.76 86.68 163.616 86.264 163.616 85.752C163.616 85.208 163.76 84.808 164.048 84.552C164.368 84.264 164.784 84.12 165.296 84.12C165.84 84.12 166.256 84.264 166.544 84.552C166.832 84.808 166.976 85.208 166.976 85.752C166.976 86.264 166.832 86.68 166.544 87C166.256 87.288 165.84 87.432 165.296 87.432ZM177.772 117.384C175.564 117.384 173.66 116.872 172.06 115.848C170.492 114.824 169.276 113.4 168.412 111.576C167.58 109.752 167.164 107.624 167.164 105.192C167.164 103.368 167.404 101.736 167.884 100.296C168.364 98.824 169.052 97.576 169.948 96.552C170.876 95.528 171.996 94.744 173.308 94.2C174.62 93.656 176.108 93.384 177.772 93.384C178.988 93.384 180.22 93.608 181.468 94.056C182.748 94.472 183.884 95.176 184.876 96.168C185.036 96.328 185.116 96.504 185.116 96.696C185.148 96.888 185.116 97.08 185.02 97.272C184.956 97.432 184.844 97.56 184.684 97.656C184.524 97.752 184.332 97.8 184.108 97.8C183.884 97.768 183.66 97.64 183.436 97.416C182.508 96.584 181.548 96.024 180.556 95.736C179.596 95.416 178.652 95.256 177.724 95.256C176.348 95.256 175.132 95.48 174.076 95.928C173.02 96.376 172.124 97.032 171.388 97.896C170.684 98.728 170.14 99.768 169.756 101.016C169.404 102.232 169.228 103.64 169.228 105.24C169.228 108.44 169.964 110.952 171.436 112.776C172.908 114.6 175.004 115.512 177.724 115.512C178.652 115.512 179.596 115.368 180.556 115.08C181.548 114.76 182.508 114.184 183.436 113.352C183.66 113.128 183.884 113.016 184.108 113.016C184.332 112.984 184.524 113.016 184.684 113.112C184.844 113.208 184.956 113.352 185.02 113.544C185.116 113.704 185.148 113.88 185.116 114.072C185.116 114.264 185.036 114.44 184.876 114.6C183.884 115.592 182.748 116.312 181.468 116.76C180.22 117.176 178.988 117.384 177.772 117.384ZM193.963 117.384C191.659 117.384 189.675 116.904 188.011 115.944C186.347 114.984 185.051 113.624 184.123 111.864C183.227 110.072 182.779 107.944 182.779 105.48C182.779 103.048 183.227 100.936 184.123 99.144C185.051 97.32 186.315 95.912 187.915 94.92C189.547 93.896 191.419 93.384 193.531 93.384C195.035 93.384 196.363 93.64 197.515 94.152C198.699 94.664 199.691 95.4 200.491 96.36C201.323 97.32 201.947 98.488 202.363 99.864C202.811 101.24 203.035 102.792 203.035 104.52C203.035 104.936 202.939 105.256 202.747 105.48C202.587 105.672 202.331 105.768 201.979 105.768H184.075V103.992H201.979L201.163 104.568C201.163 102.616 200.875 100.952 200.299 99.576C199.723 98.168 198.859 97.096 197.707 96.36C196.587 95.592 195.179 95.208 193.483 95.208C191.627 95.208 190.043 95.656 188.731 96.552C187.451 97.416 186.475 98.6 185.803 100.104C185.163 101.608 184.843 103.32 184.843 105.24V105.48C184.843 108.68 185.627 111.16 187.195 112.92C188.795 114.648 191.019 115.512 193.867 115.512C195.147 115.512 196.347 115.352 197.467 115.032C198.587 114.68 199.691 114.072 200.779 113.208C201.003 113.016 201.227 112.92 201.451 112.92C201.707 112.888 201.915 112.936 202.075 113.064C202.267 113.16 202.395 113.304 202.459 113.496C202.555 113.656 202.571 113.848 202.507 114.072C202.443 114.296 202.283 114.504 202.027 114.696C201.035 115.528 199.819 116.184 198.379 116.664C196.939 117.144 195.467 117.384 193.963 117.384ZM210.928 117.384C209.456 117.384 208.032 117.176 206.656 116.76C205.28 116.344 203.936 115.64 202.624 114.648C202.464 114.52 202.352 114.36 202.288 114.168C202.256 113.976 202.256 113.784 202.288 113.592C202.352 113.4 202.448 113.24 202.576 113.112C202.736 112.952 202.912 112.872 203.104 112.872C203.328 112.872 203.552 112.952 203.776 113.112C204.992 114.008 206.208 114.632 207.424 114.984C208.64 115.336 209.856 115.512 211.072 115.512C213.152 115.512 214.736 115.112 215.824 114.312C216.944 113.512 217.504 112.424 217.504 111.048C217.504 109.96 217.136 109.112 216.4 108.504C215.696 107.864 214.544 107.352 212.944 106.968L208.96 106.008C206.944 105.528 205.456 104.792 204.496 103.8C203.568 102.808 203.104 101.528 203.104 99.96C203.104 98.648 203.44 97.496 204.112 96.504C204.816 95.512 205.792 94.744 207.04 94.2C208.32 93.656 209.792 93.384 211.456 93.384C212.864 93.384 214.208 93.608 215.488 94.056C216.8 94.504 217.904 95.176 218.8 96.072C218.992 96.264 219.104 96.472 219.136 96.696C219.2 96.888 219.2 97.08 219.136 97.272C219.072 97.464 218.96 97.608 218.8 97.704C218.64 97.8 218.448 97.848 218.224 97.848C218.032 97.816 217.824 97.704 217.6 97.512C216.704 96.744 215.728 96.184 214.672 95.832C213.616 95.448 212.528 95.256 211.408 95.256C209.456 95.256 207.936 95.688 206.848 96.552C205.76 97.384 205.216 98.504 205.216 99.912C205.216 101 205.552 101.88 206.224 102.552C206.896 103.224 207.968 103.736 209.44 104.088L213.424 105.048C215.504 105.56 217.056 106.28 218.08 107.208C219.104 108.136 219.616 109.384 219.616 110.952C219.616 112.904 218.832 114.472 217.264 115.656C215.696 116.808 213.584 117.384 210.928 117.384Z" fill="#FFFF00"/>
<defs>
<filter id="filter0_d_2016_28" x="0" y="0" width="212" height="212" filterUnits="userSpaceOnUse" color-interpolation-filters="sRGB">
<feFlood flood-opacity="0" result="BackgroundImageFix"/>
<feColorMatrix in="SourceAlpha" type="matrix" values="0 0 0 0 0 0 0 0 0 0 0 0 0 0 0 0 0 0 127 0" result="hardAlpha"/>
<feMorphology radius="2" operator="dilate" in="SourceAlpha" result="effect1_dropShadow_2016_28"/>
<feOffset dx="-6" dy="4"/>
<feGaussianBlur stdDeviation="2"/>
<feComposite in2="hardAlpha" operator="out"/>
<feColorMatrix type="matrix" values="0 0 0 0 1 0 0 0 0 1 0 0 0 0 1 0 0 0 0.2 0"/>
<feBlend mode="normal" in2="BackgroundImageFix" result="effect1_dropShadow_2016_28"/>
<feBlend mode="normal" in="SourceGraphic" in2="effect1_dropShadow_2016_28" result="shape"/>
</filter>
</defs>
</svg>
