<svg width="274" height="212" viewBox="0 0 274 212" fill="none" xmlns="http://www.w3.org/2000/svg">
<g filter="url(#filter0_d_79_12)">
<circle cx="137" cy="102" r="100" fill="black" fill-opacity="0.8" shape-rendering="crispEdges"/>
</g>
<path d="M24.152 123.512C21.3787 123.512 18.9467 122.872 16.856 121.592C14.808 120.269 13.208 118.413 12.056 116.024C10.9467 113.592 10.392 110.755 10.392 107.512C10.392 104.227 10.9467 101.389 12.056 99C13.1653 96.6107 14.744 94.776 16.792 93.496C18.8827 92.1733 21.336 91.512 24.152 91.512C27.1387 91.512 29.6773 92.28 31.768 93.816C33.8587 95.352 35.2453 97.4427 35.928 100.088H35.224V78.904C35.224 78.4347 35.3307 78.0933 35.544 77.88C35.8 77.624 36.1413 77.496 36.568 77.496C36.9947 77.496 37.3147 77.624 37.528 77.88C37.784 78.0933 37.912 78.4347 37.912 78.904V121.976C37.912 122.403 37.784 122.744 37.528 123C37.3147 123.256 36.9947 123.384 36.568 123.384C36.1413 123.384 35.8 123.256 35.544 123C35.3307 122.744 35.224 122.403 35.224 121.976V114.936H35.928C35.2453 117.539 33.8587 119.629 31.768 121.208C29.6773 122.744 27.1387 123.512 24.152 123.512ZM24.216 121.016C26.4773 121.016 28.44 120.483 30.104 119.416C31.768 118.349 33.048 116.813 33.944 114.808C34.84 112.76 35.288 110.328 35.288 107.512C35.288 103.245 34.2853 99.9387 32.28 97.592C30.3173 95.2027 27.6293 94.008 24.216 94.008C21.9547 94.008 19.992 94.5413 18.328 95.608C16.664 96.6747 15.384 98.2107 14.488 100.216C13.592 102.221 13.144 104.653 13.144 107.512C13.144 111.779 14.1467 115.107 16.152 117.496C18.1573 119.843 20.8453 121.016 24.216 121.016ZM42.479 123.192C42.0523 123.192 41.711 123.064 41.455 122.808C41.2417 122.552 41.135 122.211 41.135 121.784V93.24C41.135 92.7707 41.2417 92.4293 41.455 92.216C41.711 91.96 42.0523 91.832 42.479 91.832C42.9057 91.832 43.2257 91.96 43.439 92.216C43.695 92.4293 43.823 92.7707 43.823 93.24V121.784C43.823 122.211 43.7163 122.552 43.503 122.808C43.2897 123.064 42.9483 123.192 42.479 123.192ZM42.479 83.576C41.7963 83.576 41.2417 83.384 40.815 83C40.431 82.5733 40.239 82.0187 40.239 81.336C40.239 80.6107 40.431 80.0773 40.815 79.736C41.2417 79.352 41.7963 79.16 42.479 79.16C43.2043 79.16 43.759 79.352 44.143 79.736C44.527 80.0773 44.719 80.6107 44.719 81.336C44.719 82.0187 44.527 82.5733 44.143 83C43.759 83.384 43.2043 83.576 42.479 83.576ZM60.1375 135.032C57.8762 135.032 55.6575 134.712 53.4815 134.072C51.3482 133.432 49.4068 132.429 47.6575 131.064C47.4442 130.893 47.2948 130.68 47.2095 130.424C47.1668 130.168 47.1882 129.912 47.2735 129.656C47.3588 129.443 47.4868 129.229 47.6575 129.016C47.8708 128.845 48.0842 128.739 48.2975 128.696C48.5535 128.696 48.8095 128.781 49.0655 128.952C50.9428 130.275 52.7348 131.192 54.4415 131.704C56.1908 132.259 58.1108 132.536 60.2015 132.536C63.4015 132.536 65.8335 131.619 67.4975 129.784C69.1615 127.992 69.9935 125.411 69.9935 122.04V113.528H70.6335C70.0362 116.259 68.6708 118.413 66.5375 119.992C64.4042 121.528 61.8655 122.296 58.9215 122.296C56.0628 122.296 53.5882 121.656 51.4975 120.376C49.4068 119.053 47.7855 117.24 46.6335 114.936C45.5242 112.589 44.9695 109.901 44.9695 106.872C44.9695 104.568 45.2895 102.477 45.9295 100.6C46.5695 98.7227 47.4868 97.1227 48.6815 95.8C49.9188 94.4347 51.3908 93.3893 53.0975 92.664C54.8042 91.896 56.7455 91.512 58.9215 91.512C61.8655 91.512 64.4042 92.3013 66.5375 93.88C68.6708 95.416 70.0362 97.5493 70.6335 100.28H69.9295V93.048C69.9295 92.5787 70.0362 92.2373 70.2495 92.024C70.5055 91.768 70.8468 91.64 71.2735 91.64C71.7002 91.64 72.0202 91.768 72.2335 92.024C72.4895 92.2373 72.6175 92.5787 72.6175 93.048V121.592C72.6175 126.029 71.5722 129.379 69.4815 131.64C67.3908 133.901 64.2762 135.032 60.1375 135.032ZM58.8575 119.8C61.1615 119.8 63.1455 119.267 64.8095 118.2C66.4735 117.133 67.7535 115.64 68.6495 113.72C69.5455 111.757 69.9935 109.475 69.9935 106.872C69.9935 102.947 68.9908 99.832 66.9855 97.528C64.9802 95.1813 62.2708 94.008 58.8575 94.008C56.5962 94.008 54.6122 94.5413 52.9055 95.608C51.2415 96.632 49.9615 98.104 49.0655 100.024C48.1695 101.944 47.7215 104.227 47.7215 106.872C47.7215 110.797 48.7242 113.933 50.7295 116.28C52.7348 118.627 55.4442 119.8 58.8575 119.8ZM77.1815 123.192C76.7548 123.192 76.4135 123.064 76.1575 122.808C75.9442 122.552 75.8375 122.211 75.8375 121.784V93.24C75.8375 92.7707 75.9442 92.4293 76.1575 92.216C76.4135 91.96 76.7548 91.832 77.1815 91.832C77.6082 91.832 77.9282 91.96 78.1415 92.216C78.3975 92.4293 78.5255 92.7707 78.5255 93.24V121.784C78.5255 122.211 78.4188 122.552 78.2055 122.808C77.9922 123.064 77.6508 123.192 77.1815 123.192ZM77.1815 83.576C76.4988 83.576 75.9442 83.384 75.5175 83C75.1335 82.5733 74.9415 82.0187 74.9415 81.336C74.9415 80.6107 75.1335 80.0773 75.5175 79.736C75.9442 79.352 76.4988 79.16 77.1815 79.16C77.9068 79.16 78.4615 79.352 78.8455 79.736C79.2295 80.0773 79.4215 80.6107 79.4215 81.336C79.4215 82.0187 79.2295 82.5733 78.8455 83C78.4615 83.384 77.9068 83.576 77.1815 83.576ZM92.6 123.512C90.4667 123.512 88.6747 123.107 87.224 122.296C85.7733 121.443 84.6853 120.248 83.96 118.712C83.2347 117.133 82.872 115.235 82.872 113.016V94.328H77.688C77.2613 94.328 76.92 94.2213 76.664 94.008C76.408 93.7947 76.28 93.5173 76.28 93.176C76.28 92.8347 76.408 92.5573 76.664 92.344C76.92 92.1307 77.2613 92.024 77.688 92.024H82.872V83.384C82.872 82.9147 82.9787 82.5733 83.192 82.36C83.448 82.104 83.7893 81.976 84.216 81.976C84.6427 81.976 84.9627 82.104 85.176 82.36C85.432 82.5733 85.56 82.9147 85.56 83.384V92.024H94.712C95.1813 92.024 95.5227 92.1307 95.736 92.344C95.992 92.5573 96.12 92.8347 96.12 93.176C96.12 93.5173 95.992 93.7947 95.736 94.008C95.5227 94.2213 95.1813 94.328 94.712 94.328H85.56V112.44C85.56 115.213 86.1147 117.347 87.224 118.84C88.3333 120.291 90.1893 121.016 92.792 121.016C93.688 121.016 94.4133 120.931 94.968 120.76C95.5653 120.547 96.056 120.44 96.44 120.44C96.696 120.44 96.9093 120.547 97.08 120.76C97.2933 120.973 97.4 121.272 97.4 121.656C97.4 121.869 97.336 122.104 97.208 122.36C97.1227 122.573 96.9307 122.723 96.632 122.808C96.2053 122.979 95.5867 123.128 94.776 123.256C94.008 123.427 93.2827 123.512 92.6 123.512ZM103.884 123.512C101.879 123.512 100.065 123.107 98.444 122.296C96.8227 121.485 95.5427 120.397 94.604 119.032C93.6653 117.624 93.196 116.067 93.196 114.36C93.196 112.056 93.7507 110.264 94.86 108.984C96.012 107.661 97.9533 106.744 100.684 106.232C103.457 105.677 107.255 105.4 112.076 105.4H114.7V107.768H112.204C107.98 107.768 104.695 107.96 102.348 108.344C100.044 108.685 98.4227 109.325 97.484 110.264C96.588 111.16 96.14 112.44 96.14 114.104C96.14 116.152 96.844 117.837 98.252 119.16C99.7027 120.44 101.644 121.08 104.076 121.08C106.039 121.08 107.745 120.611 109.196 119.672C110.689 118.691 111.863 117.389 112.716 115.768C113.569 114.104 113.996 112.227 113.996 110.136V102.84C113.996 99.768 113.399 97.528 112.204 96.12C111.009 94.712 109.089 94.008 106.444 94.008C104.737 94.008 103.095 94.2427 101.516 94.712C99.98 95.1813 98.3587 95.9067 96.652 96.888C96.268 97.1013 95.9267 97.1867 95.628 97.144C95.372 97.1013 95.1587 96.9947 94.988 96.824C94.8173 96.6107 94.6893 96.376 94.604 96.12C94.5613 95.8213 94.5827 95.544 94.668 95.288C94.796 95.032 95.0093 94.8187 95.308 94.648C97.0573 93.5813 98.8707 92.792 100.748 92.28C102.625 91.768 104.481 91.512 106.316 91.512C108.663 91.512 110.604 91.9173 112.14 92.728C113.676 93.5387 114.807 94.776 115.532 96.44C116.3 98.104 116.684 100.237 116.684 102.84V121.976C116.684 122.403 116.577 122.744 116.364 123C116.151 123.256 115.831 123.384 115.404 123.384C114.977 123.384 114.636 123.256 114.38 123C114.167 122.744 114.06 122.403 114.06 121.976V115.256H114.764C114.337 116.963 113.612 118.435 112.588 119.672C111.564 120.909 110.305 121.869 108.812 122.552C107.361 123.192 105.719 123.512 103.884 123.512ZM128.183 123.512C125.495 123.512 123.404 122.659 121.911 120.952C120.46 119.203 119.735 116.771 119.735 113.656V78.904C119.735 78.4347 119.842 78.0933 120.055 77.88C120.311 77.624 120.652 77.496 121.079 77.496C121.506 77.496 121.826 77.624 122.039 77.88C122.295 78.0933 122.423 78.4347 122.423 78.904V113.208C122.423 115.811 122.935 117.773 123.959 119.096C124.983 120.376 126.476 121.016 128.439 121.016C128.866 121.016 129.228 120.995 129.527 120.952C129.826 120.909 130.124 120.888 130.423 120.888C130.764 120.888 131.02 120.952 131.191 121.08C131.404 121.208 131.511 121.464 131.511 121.848C131.511 122.317 131.383 122.659 131.127 122.872C130.871 123.085 130.444 123.256 129.847 123.384C129.548 123.427 129.25 123.448 128.951 123.448C128.695 123.491 128.439 123.512 128.183 123.512Z" fill="#FFFF00"/>
<path d="M131.649 123.192C130.966 123.192 130.39 122.957 129.921 122.488C129.452 122.019 129.217 121.443 129.217 120.76C129.217 120.035 129.452 119.459 129.921 119.032C130.39 118.563 130.966 118.328 131.649 118.328C132.374 118.328 132.95 118.563 133.377 119.032C133.804 119.459 134.017 120.035 134.017 120.76C134.017 121.443 133.804 122.019 133.377 122.488C132.95 122.957 132.374 123.192 131.649 123.192ZM135.15 123.448C134.894 123.448 134.638 123.363 134.382 123.192C134.169 123.021 134.041 122.787 133.998 122.488C133.998 122.147 134.169 121.763 134.51 121.336L146.542 106.168V107.832L135.278 93.752C134.937 93.3253 134.766 92.9627 134.766 92.664C134.809 92.3227 134.937 92.0667 135.15 91.896C135.406 91.7253 135.662 91.64 135.918 91.64C136.259 91.64 136.558 91.7253 136.814 91.896C137.07 92.024 137.305 92.2373 137.518 92.536L148.014 105.72H147.054L157.55 92.536C157.763 92.2373 157.998 92.024 158.254 91.896C158.51 91.7253 158.809 91.64 159.15 91.64C159.406 91.64 159.641 91.7253 159.854 91.896C160.11 92.0667 160.238 92.3227 160.238 92.664C160.281 92.9627 160.131 93.3253 159.79 93.752L148.654 107.64V106.424L160.558 121.336C160.899 121.763 161.049 122.147 161.006 122.488C161.006 122.787 160.878 123.021 160.622 123.192C160.409 123.363 160.174 123.448 159.918 123.448C159.577 123.448 159.257 123.363 158.958 123.192C158.702 123.064 158.446 122.851 158.19 122.552L146.99 108.472H148.014L136.814 122.552C136.601 122.851 136.345 123.064 136.046 123.192C135.79 123.363 135.491 123.448 135.15 123.448Z" fill="#008DDA"/>
<path d="M172.325 123.512C170.192 123.512 168.4 123.107 166.949 122.296C165.498 121.443 164.41 120.248 163.685 118.712C162.96 117.133 162.597 115.235 162.597 113.016V94.328H157.413C156.986 94.328 156.645 94.2213 156.389 94.008C156.133 93.7947 156.005 93.5173 156.005 93.176C156.005 92.8347 156.133 92.5573 156.389 92.344C156.645 92.1307 156.986 92.024 157.413 92.024H162.597V83.384C162.597 82.9147 162.704 82.5733 162.917 82.36C163.173 82.104 163.514 81.976 163.941 81.976C164.368 81.976 164.688 82.104 164.901 82.36C165.157 82.5733 165.285 82.9147 165.285 83.384V92.024H174.437C174.906 92.024 175.248 92.1307 175.461 92.344C175.717 92.5573 175.845 92.8347 175.845 93.176C175.845 93.5173 175.717 93.7947 175.461 94.008C175.248 94.2213 174.906 94.328 174.437 94.328H165.285V112.44C165.285 115.213 165.84 117.347 166.949 118.84C168.058 120.291 169.914 121.016 172.517 121.016C173.413 121.016 174.138 120.931 174.693 120.76C175.29 120.547 175.781 120.44 176.165 120.44C176.421 120.44 176.634 120.547 176.805 120.76C177.018 120.973 177.125 121.272 177.125 121.656C177.125 121.869 177.061 122.104 176.933 122.36C176.848 122.573 176.656 122.723 176.357 122.808C175.93 122.979 175.312 123.128 174.501 123.256C173.733 123.427 173.008 123.512 172.325 123.512ZM185.081 123.512C182.649 123.512 180.622 123.064 179.001 122.168C177.38 121.272 176.164 119.949 175.353 118.2C174.542 116.451 174.137 114.275 174.137 111.672V93.048C174.137 92.5787 174.244 92.2373 174.457 92.024C174.713 91.768 175.054 91.64 175.481 91.64C175.908 91.64 176.228 91.768 176.441 92.024C176.697 92.2373 176.825 92.5787 176.825 93.048V111.416C176.825 114.659 177.486 117.069 178.809 118.648C180.132 120.227 182.222 121.016 185.081 121.016C188.196 121.016 190.713 119.992 192.633 117.944C194.596 115.853 195.577 113.123 195.577 109.752V93.048C195.577 92.5787 195.684 92.2373 195.897 92.024C196.153 91.768 196.494 91.64 196.921 91.64C197.348 91.64 197.668 91.768 197.881 92.024C198.137 92.2373 198.265 92.5787 198.265 93.048V121.976C198.265 122.915 197.838 123.384 196.985 123.384C196.558 123.384 196.217 123.256 195.961 123C195.748 122.744 195.641 122.403 195.641 121.976V115.256H196.409C195.598 117.944 194.169 119.992 192.121 121.4C190.073 122.808 187.726 123.512 185.081 123.512ZM213.172 123.512C210.399 123.512 207.967 122.872 205.876 121.592C203.828 120.269 202.228 118.413 201.076 116.024C199.967 113.592 199.412 110.755 199.412 107.512C199.412 104.227 199.967 101.389 201.076 99C202.185 96.6107 203.764 94.776 205.812 93.496C207.903 92.1733 210.356 91.512 213.172 91.512C216.159 91.512 218.697 92.28 220.788 93.816C222.879 95.352 224.265 97.4427 224.948 100.088H224.244V78.904C224.244 78.4347 224.351 78.0933 224.564 77.88C224.82 77.624 225.161 77.496 225.588 77.496C226.015 77.496 226.335 77.624 226.548 77.88C226.804 78.0933 226.932 78.4347 226.932 78.904V121.976C226.932 122.403 226.804 122.744 226.548 123C226.335 123.256 226.015 123.384 225.588 123.384C225.161 123.384 224.82 123.256 224.564 123C224.351 122.744 224.244 122.403 224.244 121.976V114.936H224.948C224.265 117.539 222.879 119.629 220.788 121.208C218.697 122.744 216.159 123.512 213.172 123.512ZM213.236 121.016C215.497 121.016 217.46 120.483 219.124 119.416C220.788 118.349 222.068 116.813 222.964 114.808C223.86 112.76 224.308 110.328 224.308 107.512C224.308 103.245 223.305 99.9387 221.3 97.592C219.337 95.2027 216.649 94.008 213.236 94.008C210.975 94.008 209.012 94.5413 207.348 95.608C205.684 96.6747 204.404 98.2107 203.508 100.216C202.612 102.221 202.164 104.653 202.164 107.512C202.164 111.779 203.167 115.107 205.172 117.496C207.177 119.843 209.865 121.016 213.236 121.016ZM231.499 123.192C231.072 123.192 230.731 123.064 230.475 122.808C230.262 122.552 230.155 122.211 230.155 121.784V93.24C230.155 92.7707 230.262 92.4293 230.475 92.216C230.731 91.96 231.072 91.832 231.499 91.832C231.926 91.832 232.246 91.96 232.459 92.216C232.715 92.4293 232.843 92.7707 232.843 93.24V121.784C232.843 122.211 232.736 122.552 232.523 122.808C232.31 123.064 231.968 123.192 231.499 123.192ZM231.499 83.576C230.816 83.576 230.262 83.384 229.835 83C229.451 82.5733 229.259 82.0187 229.259 81.336C229.259 80.6107 229.451 80.0773 229.835 79.736C230.262 79.352 230.816 79.16 231.499 79.16C232.224 79.16 232.779 79.352 233.163 79.736C233.547 80.0773 233.739 80.6107 233.739 81.336C233.739 82.0187 233.547 82.5733 233.163 83C232.779 83.384 232.224 83.576 231.499 83.576ZM247.814 123.512C244.998 123.512 242.544 122.851 240.454 121.528C238.406 120.205 236.806 118.349 235.654 115.96C234.544 113.571 233.99 110.755 233.99 107.512C233.99 105.08 234.31 102.883 234.95 100.92C235.59 98.9573 236.507 97.272 237.702 95.864C238.939 94.456 240.411 93.3893 242.118 92.664C243.824 91.896 245.723 91.512 247.814 91.512C250.63 91.512 253.062 92.1733 255.11 93.496C257.2 94.8187 258.8 96.6747 259.91 99.064C261.062 101.453 261.638 104.269 261.638 107.512C261.638 109.944 261.318 112.141 260.678 114.104C260.038 116.067 259.099 117.752 257.862 119.16C256.667 120.568 255.216 121.656 253.51 122.424C251.846 123.149 249.947 123.512 247.814 123.512ZM247.814 121.016C250.075 121.016 252.038 120.483 253.702 119.416C255.366 118.349 256.646 116.813 257.542 114.808C258.438 112.76 258.886 110.328 258.886 107.512C258.886 103.245 257.883 99.9387 255.878 97.592C253.915 95.2027 251.227 94.008 247.814 94.008C245.552 94.008 243.59 94.5413 241.926 95.608C240.262 96.6747 238.982 98.2107 238.086 100.216C237.19 102.221 236.742 104.653 236.742 107.512C236.742 111.779 237.744 115.107 239.75 117.496C241.755 119.843 244.443 121.016 247.814 121.016Z" fill="#FF2DF1"/>
<defs>
<filter id="filter0_d_79_12" x="37" y="0" width="212" height="212" filterUnits="userSpaceOnUse" color-interpolation-filters="sRGB">
<feFlood flood-opacity="0" result="BackgroundImageFix"/>
<feColorMatrix in="SourceAlpha" type="matrix" values="0 0 0 0 0 0 0 0 0 0 0 0 0 0 0 0 0 0 127 0" result="hardAlpha"/>
<feMorphology radius="2" operator="dilate" in="SourceAlpha" result="effect1_dropShadow_79_12"/>
<feOffset dx="6" dy="4"/>
<feGaussianBlur stdDeviation="2"/>
<feComposite in2="hardAlpha" operator="out"/>
<feColorMatrix type="matrix" values="0 0 0 0 1 0 0 0 0 1 0 0 0 0 1 0 0 0 0.2 0"/>
<feBlend mode="normal" in2="BackgroundImageFix" result="effect1_dropShadow_79_12"/>
<feBlend mode="normal" in="SourceGraphic" in2="effect1_dropShadow_79_12" result="shape"/>
</filter>
</defs>
</svg>
