<svg width="274" height="210" viewBox="0 0 274 210" fill="none" xmlns="http://www.w3.org/2000/svg">
<g filter="url(#filter0_d_79_12)">
<circle cx="137" cy="100" r="100" fill="black" fill-opacity="0.8" shape-rendering="crispEdges"/>
</g>
<path d="M17.152 121.512C14.3787 121.512 11.9467 120.872 9.856 119.592C7.808 118.269 6.208 116.413 5.056 114.024C3.94667 111.592 3.392 108.755 3.392 105.512C3.392 102.227 3.94667 99.3893 5.056 97C6.16533 94.6107 7.744 92.776 9.792 91.496C11.8827 90.1733 14.336 89.512 17.152 89.512C20.1387 89.512 22.6773 90.28 24.768 91.816C26.8587 93.352 28.2453 95.4427 28.928 98.088H28.224V76.904C28.224 76.4347 28.3307 76.0933 28.544 75.88C28.8 75.624 29.1413 75.496 29.568 75.496C29.9947 75.496 30.3147 75.624 30.528 75.88C30.784 76.0933 30.912 76.4347 30.912 76.904V119.976C30.912 120.403 30.784 120.744 30.528 121C30.3147 121.256 29.9947 121.384 29.568 121.384C29.1413 121.384 28.8 121.256 28.544 121C28.3307 120.744 28.224 120.403 28.224 119.976V112.936H28.928C28.2453 115.539 26.8587 117.629 24.768 119.208C22.6773 120.744 20.1387 121.512 17.152 121.512ZM17.216 119.016C19.4773 119.016 21.44 118.483 23.104 117.416C24.768 116.349 26.048 114.813 26.944 112.808C27.84 110.76 28.288 108.328 28.288 105.512C28.288 101.245 27.2853 97.9387 25.28 95.592C23.3173 93.2027 20.6293 92.008 17.216 92.008C14.9547 92.008 12.992 92.5413 11.328 93.608C9.664 94.6747 8.384 96.2107 7.488 98.216C6.592 100.221 6.144 102.653 6.144 105.512C6.144 109.779 7.14667 113.107 9.152 115.496C11.1573 117.843 13.8453 119.016 17.216 119.016ZM35.479 121.192C35.0523 121.192 34.711 121.064 34.455 120.808C34.2417 120.552 34.135 120.211 34.135 119.784V91.24C34.135 90.7707 34.2417 90.4293 34.455 90.216C34.711 89.96 35.0523 89.832 35.479 89.832C35.9057 89.832 36.2257 89.96 36.439 90.216C36.695 90.4293 36.823 90.7707 36.823 91.24V119.784C36.823 120.211 36.7163 120.552 36.503 120.808C36.2897 121.064 35.9483 121.192 35.479 121.192ZM35.479 81.576C34.7963 81.576 34.2417 81.384 33.815 81C33.431 80.5733 33.239 80.0187 33.239 79.336C33.239 78.6107 33.431 78.0773 33.815 77.736C34.2417 77.352 34.7963 77.16 35.479 77.16C36.2043 77.16 36.759 77.352 37.143 77.736C37.527 78.0773 37.719 78.6107 37.719 79.336C37.719 80.0187 37.527 80.5733 37.143 81C36.759 81.384 36.2043 81.576 35.479 81.576ZM53.1375 133.032C50.8762 133.032 48.6575 132.712 46.4815 132.072C44.3482 131.432 42.4068 130.429 40.6575 129.064C40.4442 128.893 40.2948 128.68 40.2095 128.424C40.1668 128.168 40.1882 127.912 40.2735 127.656C40.3588 127.443 40.4868 127.229 40.6575 127.016C40.8708 126.845 41.0842 126.739 41.2975 126.696C41.5535 126.696 41.8095 126.781 42.0655 126.952C43.9428 128.275 45.7348 129.192 47.4415 129.704C49.1908 130.259 51.1108 130.536 53.2015 130.536C56.4015 130.536 58.8335 129.619 60.4975 127.784C62.1615 125.992 62.9935 123.411 62.9935 120.04V111.528H63.6335C63.0362 114.259 61.6708 116.413 59.5375 117.992C57.4042 119.528 54.8655 120.296 51.9215 120.296C49.0628 120.296 46.5882 119.656 44.4975 118.376C42.4068 117.053 40.7855 115.24 39.6335 112.936C38.5242 110.589 37.9695 107.901 37.9695 104.872C37.9695 102.568 38.2895 100.477 38.9295 98.6C39.5695 96.7227 40.4868 95.1227 41.6815 93.8C42.9188 92.4347 44.3908 91.3893 46.0975 90.664C47.8042 89.896 49.7455 89.512 51.9215 89.512C54.8655 89.512 57.4042 90.3013 59.5375 91.88C61.6708 93.416 63.0362 95.5493 63.6335 98.28H62.9295V91.048C62.9295 90.5787 63.0362 90.2373 63.2495 90.024C63.5055 89.768 63.8468 89.64 64.2735 89.64C64.7002 89.64 65.0202 89.768 65.2335 90.024C65.4895 90.2373 65.6175 90.5787 65.6175 91.048V119.592C65.6175 124.029 64.5722 127.379 62.4815 129.64C60.3908 131.901 57.2762 133.032 53.1375 133.032ZM51.8575 117.8C54.1615 117.8 56.1455 117.267 57.8095 116.2C59.4735 115.133 60.7535 113.64 61.6495 111.72C62.5455 109.757 62.9935 107.475 62.9935 104.872C62.9935 100.947 61.9908 97.832 59.9855 95.528C57.9802 93.1813 55.2708 92.008 51.8575 92.008C49.5962 92.008 47.6122 92.5413 45.9055 93.608C44.2415 94.632 42.9615 96.104 42.0655 98.024C41.1695 99.944 40.7215 102.227 40.7215 104.872C40.7215 108.797 41.7242 111.933 43.7295 114.28C45.7348 116.627 48.4442 117.8 51.8575 117.8ZM70.1815 121.192C69.7548 121.192 69.4135 121.064 69.1575 120.808C68.9442 120.552 68.8375 120.211 68.8375 119.784V91.24C68.8375 90.7707 68.9442 90.4293 69.1575 90.216C69.4135 89.96 69.7548 89.832 70.1815 89.832C70.6082 89.832 70.9282 89.96 71.1415 90.216C71.3975 90.4293 71.5255 90.7707 71.5255 91.24V119.784C71.5255 120.211 71.4188 120.552 71.2055 120.808C70.9922 121.064 70.6508 121.192 70.1815 121.192ZM70.1815 81.576C69.4988 81.576 68.9442 81.384 68.5175 81C68.1335 80.5733 67.9415 80.0187 67.9415 79.336C67.9415 78.6107 68.1335 78.0773 68.5175 77.736C68.9442 77.352 69.4988 77.16 70.1815 77.16C70.9068 77.16 71.4615 77.352 71.8455 77.736C72.2295 78.0773 72.4215 78.6107 72.4215 79.336C72.4215 80.0187 72.2295 80.5733 71.8455 81C71.4615 81.384 70.9068 81.576 70.1815 81.576ZM85.6 121.512C83.4667 121.512 81.6747 121.107 80.224 120.296C78.7733 119.443 77.6853 118.248 76.96 116.712C76.2347 115.133 75.872 113.235 75.872 111.016V92.328H70.688C70.2613 92.328 69.92 92.2213 69.664 92.008C69.408 91.7947 69.28 91.5173 69.28 91.176C69.28 90.8347 69.408 90.5573 69.664 90.344C69.92 90.1307 70.2613 90.024 70.688 90.024H75.872V81.384C75.872 80.9147 75.9787 80.5733 76.192 80.36C76.448 80.104 76.7893 79.976 77.216 79.976C77.6427 79.976 77.9627 80.104 78.176 80.36C78.432 80.5733 78.56 80.9147 78.56 81.384V90.024H87.712C88.1813 90.024 88.5227 90.1307 88.736 90.344C88.992 90.5573 89.12 90.8347 89.12 91.176C89.12 91.5173 88.992 91.7947 88.736 92.008C88.5227 92.2213 88.1813 92.328 87.712 92.328H78.56V110.44C78.56 113.213 79.1147 115.347 80.224 116.84C81.3333 118.291 83.1893 119.016 85.792 119.016C86.688 119.016 87.4133 118.931 87.968 118.76C88.5653 118.547 89.056 118.44 89.44 118.44C89.696 118.44 89.9093 118.547 90.08 118.76C90.2933 118.973 90.4 119.272 90.4 119.656C90.4 119.869 90.336 120.104 90.208 120.36C90.1227 120.573 89.9307 120.723 89.632 120.808C89.2053 120.979 88.5867 121.128 87.776 121.256C87.008 121.427 86.2827 121.512 85.6 121.512ZM96.884 121.512C94.8787 121.512 93.0653 121.107 91.444 120.296C89.8227 119.485 88.5427 118.397 87.604 117.032C86.6653 115.624 86.196 114.067 86.196 112.36C86.196 110.056 86.7507 108.264 87.86 106.984C89.012 105.661 90.9533 104.744 93.684 104.232C96.4573 103.677 100.255 103.4 105.076 103.4H107.7V105.768H105.204C100.98 105.768 97.6947 105.96 95.348 106.344C93.044 106.685 91.4227 107.325 90.484 108.264C89.588 109.16 89.14 110.44 89.14 112.104C89.14 114.152 89.844 115.837 91.252 117.16C92.7027 118.44 94.644 119.08 97.076 119.08C99.0387 119.08 100.745 118.611 102.196 117.672C103.689 116.691 104.863 115.389 105.716 113.768C106.569 112.104 106.996 110.227 106.996 108.136V100.84C106.996 97.768 106.399 95.528 105.204 94.12C104.009 92.712 102.089 92.008 99.444 92.008C97.7373 92.008 96.0947 92.2427 94.516 92.712C92.98 93.1813 91.3587 93.9067 89.652 94.888C89.268 95.1013 88.9267 95.1867 88.628 95.144C88.372 95.1013 88.1587 94.9947 87.988 94.824C87.8173 94.6107 87.6893 94.376 87.604 94.12C87.5613 93.8213 87.5827 93.544 87.668 93.288C87.796 93.032 88.0093 92.8187 88.308 92.648C90.0573 91.5813 91.8707 90.792 93.748 90.28C95.6253 89.768 97.4813 89.512 99.316 89.512C101.663 89.512 103.604 89.9173 105.14 90.728C106.676 91.5387 107.807 92.776 108.532 94.44C109.3 96.104 109.684 98.2373 109.684 100.84V119.976C109.684 120.403 109.577 120.744 109.364 121C109.151 121.256 108.831 121.384 108.404 121.384C107.977 121.384 107.636 121.256 107.38 121C107.167 120.744 107.06 120.403 107.06 119.976V113.256H107.764C107.337 114.963 106.612 116.435 105.588 117.672C104.564 118.909 103.305 119.869 101.812 120.552C100.361 121.192 98.7187 121.512 96.884 121.512ZM121.183 121.512C118.495 121.512 116.404 120.659 114.911 118.952C113.46 117.203 112.735 114.771 112.735 111.656V76.904C112.735 76.4347 112.842 76.0933 113.055 75.88C113.311 75.624 113.652 75.496 114.079 75.496C114.506 75.496 114.826 75.624 115.039 75.88C115.295 76.0933 115.423 76.4347 115.423 76.904V111.208C115.423 113.811 115.935 115.773 116.959 117.096C117.983 118.376 119.476 119.016 121.439 119.016C121.866 119.016 122.228 118.995 122.527 118.952C122.826 118.909 123.124 118.888 123.423 118.888C123.764 118.888 124.02 118.952 124.191 119.08C124.404 119.208 124.511 119.464 124.511 119.848C124.511 120.317 124.383 120.659 124.127 120.872C123.871 121.085 123.444 121.256 122.847 121.384C122.548 121.427 122.25 121.448 121.951 121.448C121.695 121.491 121.439 121.512 121.183 121.512Z" fill="#FF2DF1"/>
<path d="M121.08 121.448C120.824 121.448 120.568 121.363 120.312 121.192C120.099 121.021 119.971 120.787 119.928 120.488C119.928 120.147 120.099 119.763 120.44 119.336L132.472 104.168V105.832L121.208 91.752C120.867 91.3253 120.696 90.9627 120.696 90.664C120.739 90.3227 120.867 90.0667 121.08 89.896C121.336 89.7253 121.592 89.64 121.848 89.64C122.189 89.64 122.488 89.7253 122.744 89.896C123 90.024 123.235 90.2373 123.448 90.536L133.944 103.72H132.984L143.48 90.536C143.693 90.2373 143.928 90.024 144.184 89.896C144.44 89.7253 144.739 89.64 145.08 89.64C145.336 89.64 145.571 89.7253 145.784 89.896C146.04 90.0667 146.168 90.3227 146.168 90.664C146.211 90.9627 146.061 91.3253 145.72 91.752L134.584 105.64V104.424L146.488 119.336C146.829 119.763 146.979 120.147 146.936 120.488C146.936 120.787 146.808 121.021 146.552 121.192C146.339 121.363 146.104 121.448 145.848 121.448C145.507 121.448 145.187 121.363 144.888 121.192C144.632 121.064 144.376 120.851 144.12 120.552L132.92 106.472H133.944L122.744 120.552C122.531 120.851 122.275 121.064 121.976 121.192C121.72 121.363 121.421 121.448 121.08 121.448Z" fill="#FFFF00"/>
<path d="M156.726 121.512C154.764 121.512 152.865 121.235 151.03 120.68C149.196 120.125 147.404 119.187 145.654 117.864C145.441 117.693 145.292 117.48 145.206 117.224C145.164 116.968 145.164 116.712 145.206 116.456C145.292 116.2 145.42 115.987 145.59 115.816C145.804 115.603 146.038 115.496 146.294 115.496C146.593 115.496 146.892 115.603 147.19 115.816C148.812 117.011 150.433 117.843 152.054 118.312C153.676 118.781 155.297 119.016 156.918 119.016C159.692 119.016 161.804 118.483 163.254 117.416C164.748 116.349 165.494 114.899 165.494 113.064C165.494 111.613 165.004 110.483 164.022 109.672C163.084 108.819 161.548 108.136 159.414 107.624L154.102 106.344C151.414 105.704 149.43 104.723 148.15 103.4C146.913 102.077 146.294 100.371 146.294 98.28C146.294 96.5307 146.742 94.9947 147.638 93.672C148.577 92.3493 149.878 91.3253 151.542 90.6C153.249 89.8747 155.212 89.512 157.43 89.512C159.308 89.512 161.1 89.8107 162.806 90.408C164.556 91.0053 166.028 91.9013 167.222 93.096C167.478 93.352 167.628 93.6293 167.67 93.928C167.756 94.184 167.756 94.44 167.67 94.696C167.585 94.952 167.436 95.144 167.222 95.272C167.009 95.4 166.753 95.464 166.454 95.464C166.198 95.4213 165.921 95.272 165.622 95.016C164.428 93.992 163.126 93.2453 161.718 92.776C160.31 92.264 158.86 92.008 157.366 92.008C154.764 92.008 152.737 92.584 151.286 93.736C149.836 94.8453 149.11 96.3387 149.11 98.216C149.11 99.6667 149.558 100.84 150.454 101.736C151.35 102.632 152.78 103.315 154.742 103.784L160.054 105.064C162.828 105.747 164.897 106.707 166.262 107.944C167.628 109.181 168.31 110.845 168.31 112.936C168.31 115.539 167.265 117.629 165.174 119.208C163.084 120.744 160.268 121.512 156.726 121.512ZM180.325 121.512C178.192 121.512 176.4 121.107 174.949 120.296C173.498 119.443 172.41 118.248 171.685 116.712C170.96 115.133 170.597 113.235 170.597 111.016V92.328H165.413C164.986 92.328 164.645 92.2213 164.389 92.008C164.133 91.7947 164.005 91.5173 164.005 91.176C164.005 90.8347 164.133 90.5573 164.389 90.344C164.645 90.1307 164.986 90.024 165.413 90.024H170.597V81.384C170.597 80.9147 170.704 80.5733 170.917 80.36C171.173 80.104 171.514 79.976 171.941 79.976C172.368 79.976 172.688 80.104 172.901 80.36C173.157 80.5733 173.285 80.9147 173.285 81.384V90.024H182.437C182.906 90.024 183.248 90.1307 183.461 90.344C183.717 90.5573 183.845 90.8347 183.845 91.176C183.845 91.5173 183.717 91.7947 183.461 92.008C183.248 92.2213 182.906 92.328 182.437 92.328H173.285V110.44C173.285 113.213 173.84 115.347 174.949 116.84C176.058 118.291 177.914 119.016 180.517 119.016C181.413 119.016 182.138 118.931 182.693 118.76C183.29 118.547 183.781 118.44 184.165 118.44C184.421 118.44 184.634 118.547 184.805 118.76C185.018 118.973 185.125 119.272 185.125 119.656C185.125 119.869 185.061 120.104 184.933 120.36C184.848 120.573 184.656 120.723 184.357 120.808C183.93 120.979 183.312 121.128 182.501 121.256C181.733 121.427 181.008 121.512 180.325 121.512ZM193.081 121.512C190.649 121.512 188.622 121.064 187.001 120.168C185.38 119.272 184.164 117.949 183.353 116.2C182.542 114.451 182.137 112.275 182.137 109.672V91.048C182.137 90.5787 182.244 90.2373 182.457 90.024C182.713 89.768 183.054 89.64 183.481 89.64C183.908 89.64 184.228 89.768 184.441 90.024C184.697 90.2373 184.825 90.5787 184.825 91.048V109.416C184.825 112.659 185.486 115.069 186.809 116.648C188.132 118.227 190.222 119.016 193.081 119.016C196.196 119.016 198.713 117.992 200.633 115.944C202.596 113.853 203.577 111.123 203.577 107.752V91.048C203.577 90.5787 203.684 90.2373 203.897 90.024C204.153 89.768 204.494 89.64 204.921 89.64C205.348 89.64 205.668 89.768 205.881 90.024C206.137 90.2373 206.265 90.5787 206.265 91.048V119.976C206.265 120.915 205.838 121.384 204.985 121.384C204.558 121.384 204.217 121.256 203.961 121C203.748 120.744 203.641 120.403 203.641 119.976V113.256H204.409C203.598 115.944 202.169 117.992 200.121 119.4C198.073 120.808 195.726 121.512 193.081 121.512ZM221.172 121.512C218.399 121.512 215.967 120.872 213.876 119.592C211.828 118.269 210.228 116.413 209.076 114.024C207.967 111.592 207.412 108.755 207.412 105.512C207.412 102.227 207.967 99.3893 209.076 97C210.185 94.6107 211.764 92.776 213.812 91.496C215.903 90.1733 218.356 89.512 221.172 89.512C224.159 89.512 226.697 90.28 228.788 91.816C230.879 93.352 232.265 95.4427 232.948 98.088H232.244V76.904C232.244 76.4347 232.351 76.0933 232.564 75.88C232.82 75.624 233.161 75.496 233.588 75.496C234.015 75.496 234.335 75.624 234.548 75.88C234.804 76.0933 234.932 76.4347 234.932 76.904V119.976C234.932 120.403 234.804 120.744 234.548 121C234.335 121.256 234.015 121.384 233.588 121.384C233.161 121.384 232.82 121.256 232.564 121C232.351 120.744 232.244 120.403 232.244 119.976V112.936H232.948C232.265 115.539 230.879 117.629 228.788 119.208C226.697 120.744 224.159 121.512 221.172 121.512ZM221.236 119.016C223.497 119.016 225.46 118.483 227.124 117.416C228.788 116.349 230.068 114.813 230.964 112.808C231.86 110.76 232.308 108.328 232.308 105.512C232.308 101.245 231.305 97.9387 229.3 95.592C227.337 93.2027 224.649 92.008 221.236 92.008C218.975 92.008 217.012 92.5413 215.348 93.608C213.684 94.6747 212.404 96.2107 211.508 98.216C210.612 100.221 210.164 102.653 210.164 105.512C210.164 109.779 211.167 113.107 213.172 115.496C215.177 117.843 217.865 119.016 221.236 119.016ZM239.499 121.192C239.072 121.192 238.731 121.064 238.475 120.808C238.262 120.552 238.155 120.211 238.155 119.784V91.24C238.155 90.7707 238.262 90.4293 238.475 90.216C238.731 89.96 239.072 89.832 239.499 89.832C239.926 89.832 240.246 89.96 240.459 90.216C240.715 90.4293 240.843 90.7707 240.843 91.24V119.784C240.843 120.211 240.736 120.552 240.523 120.808C240.31 121.064 239.968 121.192 239.499 121.192ZM239.499 81.576C238.816 81.576 238.262 81.384 237.835 81C237.451 80.5733 237.259 80.0187 237.259 79.336C237.259 78.6107 237.451 78.0773 237.835 77.736C238.262 77.352 238.816 77.16 239.499 77.16C240.224 77.16 240.779 77.352 241.163 77.736C241.547 78.0773 241.739 78.6107 241.739 79.336C241.739 80.0187 241.547 80.5733 241.163 81C240.779 81.384 240.224 81.576 239.499 81.576ZM255.814 121.512C252.998 121.512 250.544 120.851 248.454 119.528C246.406 118.205 244.806 116.349 243.654 113.96C242.544 111.571 241.99 108.755 241.99 105.512C241.99 103.08 242.31 100.883 242.95 98.92C243.59 96.9573 244.507 95.272 245.702 93.864C246.939 92.456 248.411 91.3893 250.118 90.664C251.824 89.896 253.723 89.512 255.814 89.512C258.63 89.512 261.062 90.1733 263.11 91.496C265.2 92.8187 266.8 94.6747 267.91 97.064C269.062 99.4533 269.638 102.269 269.638 105.512C269.638 107.944 269.318 110.141 268.678 112.104C268.038 114.067 267.099 115.752 265.862 117.16C264.667 118.568 263.216 119.656 261.51 120.424C259.846 121.149 257.947 121.512 255.814 121.512ZM255.814 119.016C258.075 119.016 260.038 118.483 261.702 117.416C263.366 116.349 264.646 114.813 265.542 112.808C266.438 110.76 266.886 108.328 266.886 105.512C266.886 101.245 265.883 97.9387 263.878 95.592C261.915 93.2027 259.227 92.008 255.814 92.008C253.552 92.008 251.59 92.5413 249.926 93.608C248.262 94.6747 246.982 96.2107 246.086 98.216C245.19 100.221 244.742 102.653 244.742 105.512C244.742 109.779 245.744 113.107 247.75 115.496C249.755 117.843 252.443 119.016 255.814 119.016Z" fill="#008DDA"/>
<defs>
<filter id="filter0_d_79_12" x="36" y="0" width="208" height="210" filterUnits="userSpaceOnUse" color-interpolation-filters="sRGB">
<feFlood flood-opacity="0" result="BackgroundImageFix"/>
<feColorMatrix in="SourceAlpha" type="matrix" values="0 0 0 0 0 0 0 0 0 0 0 0 0 0 0 0 0 0 127 0" result="hardAlpha"/>
<feOffset dx="3" dy="6"/>
<feGaussianBlur stdDeviation="2"/>
<feComposite in2="hardAlpha" operator="out"/>
<feColorMatrix type="matrix" values="0 0 0 0 1 0 0 0 0 1 0 0 0 0 1 0 0 0 0.1 0"/>
<feBlend mode="normal" in2="BackgroundImageFix" result="effect1_dropShadow_79_12"/>
<feBlend mode="normal" in="SourceGraphic" in2="effect1_dropShadow_79_12" result="shape"/>
</filter>
</defs>
</svg>
