<svg width="210" height="210" viewBox="0 0 210 210" fill="none" xmlns="http://www.w3.org/2000/svg">
<g clip-path="url(#clip0_61_2)">
<circle cx="105" cy="105" r="100" fill="black" fill-opacity="0.8"/>
<path d="M94.408 81.112C103.027 81.112 109.853 83.672 114.888 88.792C120.008 93.8267 122.568 101.421 122.568 111.576V151H102.6V114.648C102.6 109.187 101.448 105.133 99.144 102.488C96.9253 99.7573 93.7253 98.392 89.544 98.392C84.8507 98.392 81.1387 99.928 78.408 103C75.6773 105.987 74.312 110.467 74.312 116.44V151H54.344V114.648C54.344 103.811 49.992 98.392 41.288 98.392C36.68 98.392 33.0107 99.928 30.28 103C27.5493 105.987 26.184 110.467 26.184 116.44V151H6.216V82.136H25.288V90.072C27.848 87.1707 30.9627 84.952 34.632 83.416C38.3867 81.88 42.4827 81.112 46.92 81.112C51.784 81.112 56.1787 82.0933 60.104 84.056C64.0293 85.9333 67.1867 88.7067 69.576 92.376C72.392 88.792 75.9333 86.0187 80.2 84.056C84.552 82.0933 89.288 81.112 94.408 81.112Z" fill="#008DDA"/>
<path d="M182.066 104.408C187.186 106.029 191.197 108.76 194.098 112.6C196.999 116.355 198.45 121.005 198.45 126.552C198.45 134.403 195.378 140.461 189.234 144.728C183.175 148.909 174.301 151 162.61 151H116.274V61.4H160.05C170.973 61.4 179.335 63.4907 185.138 67.672C191.026 71.8533 193.97 77.528 193.97 84.696C193.97 89.048 192.903 92.9307 190.77 96.344C188.722 99.7573 185.821 102.445 182.066 104.408ZM136.882 77.016V98.136H157.49C162.61 98.136 166.493 97.24 169.138 95.448C171.783 93.656 173.106 91.0107 173.106 87.512C173.106 84.0133 171.783 81.4107 169.138 79.704C166.493 77.912 162.61 77.016 157.49 77.016H136.882ZM161.074 135.384C166.535 135.384 170.631 134.488 173.362 132.696C176.178 130.904 177.586 128.131 177.586 124.376C177.586 116.952 172.082 113.24 161.074 113.24H136.882V135.384H161.074Z" fill="#FFFF00"/>
<path d="M195.443 152.024C191.944 152.024 189 150.829 186.611 148.44C184.222 146.051 183.027 143.064 183.027 139.48C183.027 135.811 184.222 132.867 186.611 130.648C189 128.344 191.944 127.192 195.443 127.192C198.942 127.192 201.886 128.344 204.275 130.648C206.664 132.867 207.859 135.811 207.859 139.48C207.859 143.064 206.664 146.051 204.275 148.44C201.886 150.829 198.942 152.024 195.443 152.024Z" fill="#FF2DF1"/>
</g>
<defs>
<clipPath id="clip0_61_2">
<rect width="210" height="210" fill="white"/>
</clipPath>
</defs>
</svg>
