<svg width="340" height="36" viewBox="0 0 340 36" fill="none" xmlns="http://www.w3.org/2000/svg">
<path d="M336.817 35.856C336.113 35.856 335.505 35.6 334.993 35.088C334.513 34.576 334.273 33.952 334.273 33.216C334.273 32.48 334.513 31.872 334.993 31.392C335.505 30.88 336.113 30.624 336.817 30.624C337.521 30.624 338.129 30.88 338.641 31.392C339.153 31.872 339.409 32.48 339.409 33.216C339.409 33.952 339.153 34.576 338.641 35.088C338.129 35.6 337.521 35.856 336.817 35.856Z" fill="#008DDA"/>
<path d="M324.565 35.856C322.517 35.856 320.549 35.568 318.661 34.992C316.805 34.384 315.349 33.632 314.293 32.736L315.829 30.048C316.885 30.88 318.213 31.568 319.813 32.112C321.413 32.624 323.077 32.88 324.805 32.88C327.109 32.88 328.805 32.528 329.893 31.824C331.013 31.088 331.573 30.064 331.573 28.752C331.573 27.824 331.269 27.104 330.661 26.592C330.053 26.048 329.285 25.648 328.357 25.392C327.429 25.104 326.197 24.832 324.661 24.576C322.613 24.192 320.965 23.808 319.717 23.424C318.469 23.008 317.397 22.32 316.501 21.36C315.637 20.4 315.205 19.072 315.205 17.376C315.205 15.264 316.085 13.536 317.845 12.192C319.605 10.848 322.053 10.176 325.189 10.176C326.821 10.176 328.453 10.4 330.085 10.848C331.717 11.264 333.061 11.824 334.117 12.528L332.629 15.264C330.549 13.824 328.069 13.104 325.189 13.104C323.013 13.104 321.365 13.488 320.245 14.256C319.157 15.024 318.613 16.032 318.613 17.28C318.613 18.24 318.917 19.008 319.525 19.584C320.165 20.16 320.949 20.592 321.877 20.88C322.805 21.136 324.085 21.408 325.717 21.696C327.733 22.08 329.349 22.464 330.565 22.848C331.781 23.232 332.821 23.888 333.685 24.816C334.549 25.744 334.981 27.024 334.981 28.656C334.981 30.864 334.053 32.624 332.197 33.936C330.373 35.216 327.829 35.856 324.565 35.856Z" fill="#FFFF00"/>
<path d="M304.428 32.832C305.996 32.832 307.436 32.56 308.748 32.016C310.092 31.44 311.228 30.608 312.156 29.52L314.076 31.728C312.956 33.072 311.564 34.096 309.9 34.8C308.236 35.504 306.396 35.856 304.38 35.856C301.788 35.856 299.484 35.312 297.468 34.224C295.452 33.104 293.884 31.568 292.764 29.616C291.644 27.664 291.084 25.456 291.084 22.992C291.084 20.528 291.612 18.32 292.668 16.368C293.756 14.416 295.244 12.896 297.132 11.808C299.02 10.72 301.164 10.176 303.564 10.176C305.804 10.176 307.82 10.688 309.612 11.712C311.436 12.736 312.876 14.16 313.932 15.984C315.02 17.808 315.596 19.888 315.66 22.224L294.924 26.256C295.564 28.304 296.716 29.92 298.38 31.104C300.076 32.256 302.092 32.832 304.428 32.832ZM303.564 13.104C301.804 13.104 300.22 13.52 298.812 14.352C297.436 15.152 296.348 16.288 295.548 17.76C294.78 19.2 294.396 20.864 294.396 22.752C294.396 23.232 294.412 23.584 294.444 23.808L312.252 20.352C311.868 18.24 310.892 16.512 309.324 15.168C307.756 13.792 305.836 13.104 303.564 13.104Z" fill="#FFFF00"/>
<path d="M293.141 34.08C292.501 34.656 291.717 35.104 290.789 35.424C289.861 35.712 288.885 35.856 287.861 35.856C285.493 35.856 283.669 35.216 282.389 33.936C281.109 32.656 280.469 30.848 280.469 28.512V4.84799H283.877V10.368H291.509V13.248H283.877V28.32C283.877 29.824 284.245 30.976 284.981 31.776C285.717 32.544 286.789 32.928 288.197 32.928C289.733 32.928 290.981 32.496 291.941 31.632L293.141 34.08Z" fill="#FFFF00"/>
<path d="M265.889 10.176C269.057 10.176 271.569 11.104 273.425 12.96C275.313 14.784 276.257 17.456 276.257 20.976V35.616H272.849V21.312C272.849 18.688 272.193 16.688 270.881 15.312C269.569 13.936 267.697 13.248 265.265 13.248C262.545 13.248 260.385 14.064 258.785 15.696C257.217 17.296 256.433 19.52 256.433 22.368V35.616H253.025V10.368H256.289V15.024C257.217 13.488 258.497 12.304 260.129 11.472C261.793 10.608 263.713 10.176 265.889 10.176Z" fill="#FFFF00"/>
<path d="M248.334 10.368V35.616H245.07V30.624C244.046 32.32 242.686 33.616 240.99 34.512C239.326 35.408 237.438 35.856 235.326 35.856C232.958 35.856 230.814 35.312 228.894 34.224C226.974 33.136 225.47 31.616 224.382 29.664C223.294 27.712 222.75 25.488 222.75 22.992C222.75 20.496 223.294 18.272 224.382 16.32C225.47 14.368 226.974 12.864 228.894 11.808C230.814 10.72 232.958 10.176 235.326 10.176C237.374 10.176 239.214 10.608 240.846 11.472C242.51 12.304 243.87 13.536 244.926 15.168V10.368H248.334ZM235.614 32.832C237.374 32.832 238.958 32.432 240.366 31.632C241.806 30.8 242.926 29.632 243.726 28.128C244.558 26.624 244.974 24.912 244.974 22.992C244.974 21.072 244.558 19.36 243.726 17.856C242.926 16.352 241.806 15.2 240.366 14.4C238.958 13.568 237.374 13.152 235.614 13.152C233.822 13.152 232.206 13.568 230.766 14.4C229.358 15.2 228.238 16.352 227.406 17.856C226.606 19.36 226.206 21.072 226.206 22.992C226.206 24.912 226.606 26.624 227.406 28.128C228.238 29.632 229.358 30.8 230.766 31.632C232.206 32.432 233.822 32.832 235.614 32.832Z" fill="#FFFF00"/>
<path d="M222.854 35.856C220.582 35.856 218.822 35.216 217.574 33.936C216.358 32.656 215.75 30.88 215.75 28.608V0H219.158V28.32C219.158 29.824 219.51 30.976 220.214 31.776C220.918 32.544 221.974 32.928 223.382 32.928C224.278 32.928 225.046 32.784 225.686 32.496L225.926 35.328C224.934 35.68 223.91 35.856 222.854 35.856Z" fill="#FFFF00"/>
<path d="M212.841 35.856C210.569 35.856 208.809 35.216 207.561 33.936C206.345 32.656 205.737 30.88 205.737 28.608V0H209.145V28.32C209.145 29.824 209.497 30.976 210.201 31.776C210.905 32.544 211.961 32.928 213.369 32.928C214.265 32.928 215.033 32.784 215.673 32.496L215.913 35.328C214.921 35.68 213.897 35.856 212.841 35.856Z" fill="#FFFF00"/>
<path d="M197.647 10.368H201.055V35.616H197.647V10.368ZM199.375 4.848C198.671 4.848 198.079 4.608 197.599 4.128C197.119 3.648 196.879 3.072 196.879 2.4C196.879 1.76 197.119 1.2 197.599 0.719999C198.079 0.24 198.671 0 199.375 0C200.079 0 200.671 0.24 201.151 0.719999C201.631 1.168 201.871 1.712 201.871 2.352C201.871 3.056 201.631 3.648 201.151 4.128C200.671 4.608 200.079 4.848 199.375 4.848Z" fill="#FFFF00"/>
<path d="M186.82 15.312C187.62 13.616 188.804 12.336 190.372 11.472C191.972 10.608 193.94 10.176 196.276 10.176V13.488L195.46 13.44C192.804 13.44 190.724 14.256 189.22 15.888C187.716 17.52 186.964 19.808 186.964 22.752V35.616H183.556V10.368H186.82V15.312Z" fill="#FFFF00"/>
<path d="M174.057 18.288C176.265 18.768 177.961 19.728 179.145 21.168C180.361 22.576 180.969 24.4 180.969 26.64C180.969 29.52 179.897 31.744 177.753 33.312C175.641 34.848 172.505 35.616 168.345 35.616H152.889V2.01599H167.385C171.129 2.01599 174.025 2.76799 176.073 4.27199C178.153 5.77599 179.193 7.90399 179.193 10.656C179.193 12.512 178.729 14.096 177.801 15.408C176.905 16.688 175.657 17.648 174.057 18.288ZM156.441 4.94399V17.136H167.145C169.865 17.136 171.961 16.624 173.433 15.6C174.905 14.544 175.641 13.024 175.641 11.04C175.641 9.05599 174.905 7.55199 173.433 6.52799C171.961 5.47199 169.865 4.94399 167.145 4.94399H156.441ZM168.297 32.688C171.305 32.688 173.577 32.176 175.113 31.152C176.649 30.128 177.417 28.528 177.417 26.352C177.417 22.16 174.377 20.064 168.297 20.064H156.441V32.688H168.297Z" fill="#FFFF00"/>
<path d="M140.252 35.856C138.204 35.856 136.236 35.568 134.348 34.992C132.492 34.384 131.036 33.632 129.98 32.736L131.516 30.048C132.572 30.88 133.9 31.568 135.5 32.112C137.1 32.624 138.764 32.88 140.492 32.88C142.796 32.88 144.492 32.528 145.58 31.824C146.7 31.088 147.26 30.064 147.26 28.752C147.26 27.824 146.956 27.104 146.348 26.592C145.74 26.048 144.972 25.648 144.044 25.392C143.116 25.104 141.884 24.832 140.348 24.576C138.3 24.192 136.652 23.808 135.404 23.424C134.156 23.008 133.084 22.32 132.188 21.36C131.324 20.4 130.892 19.072 130.892 17.376C130.892 15.264 131.772 13.536 133.532 12.192C135.292 10.848 137.74 10.176 140.876 10.176C142.508 10.176 144.14 10.4 145.772 10.848C147.404 11.264 148.748 11.824 149.804 12.528L148.316 15.264C146.236 13.824 143.756 13.104 140.876 13.104C138.7 13.104 137.052 13.488 135.932 14.256C134.844 15.024 134.3 16.032 134.3 17.28C134.3 18.24 134.604 19.008 135.212 19.584C135.852 20.16 136.636 20.592 137.564 20.88C138.492 21.136 139.772 21.408 141.404 21.696C143.42 22.08 145.036 22.464 146.252 22.848C147.468 23.232 148.508 23.888 149.372 24.816C150.236 25.744 150.668 27.024 150.668 28.656C150.668 30.864 149.74 32.624 147.884 33.936C146.06 35.216 143.516 35.856 140.252 35.856Z" fill="#FF2DF1"/>
<path d="M118.511 35.856C116.079 35.856 113.887 35.312 111.935 34.224C109.983 33.104 108.447 31.568 107.327 29.616C106.207 27.664 105.647 25.456 105.647 22.992C105.647 20.528 106.207 18.32 107.327 16.368C108.447 14.416 109.983 12.896 111.935 11.808C113.887 10.72 116.079 10.176 118.511 10.176C120.943 10.176 123.135 10.72 125.087 11.808C127.039 12.896 128.559 14.416 129.647 16.368C130.767 18.32 131.327 20.528 131.327 22.992C131.327 25.456 130.767 27.664 129.647 29.616C128.559 31.568 127.039 33.104 125.087 34.224C123.135 35.312 120.943 35.856 118.511 35.856ZM118.511 32.832C120.303 32.832 121.903 32.432 123.311 31.632C124.751 30.8 125.871 29.632 126.671 28.128C127.471 26.624 127.871 24.912 127.871 22.992C127.871 21.072 127.471 19.36 126.671 17.856C125.871 16.352 124.751 15.2 123.311 14.4C121.903 13.568 120.303 13.152 118.511 13.152C116.719 13.152 115.103 13.568 113.663 14.4C112.255 15.2 111.135 16.352 110.303 17.856C109.503 19.36 109.103 21.072 109.103 22.992C109.103 24.912 109.503 26.624 110.303 28.128C111.135 29.632 112.255 30.8 113.663 31.632C115.103 32.432 116.719 32.832 118.511 32.832Z" fill="#FF2DF1"/>
<path d="M100.1 10.368H103.508V35.616H100.1V10.368ZM101.828 4.848C101.124 4.848 100.532 4.608 100.052 4.128C99.572 3.648 99.332 3.072 99.332 2.4C99.332 1.76 99.572 1.2 100.052 0.719999C100.532 0.24 101.124 0 101.828 0C102.532 0 103.124 0.24 103.604 0.719999C104.084 1.168 104.324 1.712 104.324 2.352C104.324 3.056 104.084 3.648 103.604 4.128C103.124 4.608 102.532 4.848 101.828 4.848Z" fill="#FF2DF1"/>
<path d="M95.4088 0V35.616H92.1448V30.624C91.1208 32.32 89.7607 33.616 88.0648 34.512C86.4007 35.408 84.5128 35.856 82.4008 35.856C80.0328 35.856 77.8888 35.312 75.9688 34.224C74.0487 33.136 72.5448 31.616 71.4568 29.664C70.3688 27.712 69.8248 25.488 69.8248 22.992C69.8248 20.496 70.3688 18.272 71.4568 16.32C72.5448 14.368 74.0487 12.864 75.9688 11.808C77.8888 10.72 80.0328 10.176 82.4008 10.176C84.4488 10.176 86.2888 10.608 87.9208 11.472C89.5848 12.304 90.9448 13.536 92.0008 15.168V0H95.4088ZM82.6888 32.832C84.4488 32.832 86.0327 32.432 87.4408 31.632C88.8808 30.8 90.0008 29.632 90.8008 28.128C91.6328 26.624 92.0488 24.912 92.0488 22.992C92.0488 21.072 91.6328 19.36 90.8008 17.856C90.0008 16.352 88.8808 15.2 87.4408 14.4C86.0327 13.568 84.4488 13.152 82.6888 13.152C80.8968 13.152 79.2808 13.568 77.8408 14.4C76.4328 15.2 75.3128 16.352 74.4808 17.856C73.6808 19.36 73.2808 21.072 73.2808 22.992C73.2808 24.912 73.6808 26.624 74.4808 28.128C75.3128 29.632 76.4328 30.8 77.8408 31.632C79.2808 32.432 80.8968 32.832 82.6888 32.832Z" fill="#FF2DF1"/>
<path d="M59 32.832C60.568 32.832 62.008 32.56 63.32 32.016C64.664 31.44 65.8 30.608 66.728 29.52L68.648 31.728C67.528 33.072 66.136 34.096 64.472 34.8C62.808 35.504 60.968 35.856 58.952 35.856C56.36 35.856 54.056 35.312 52.04 34.224C50.024 33.104 48.456 31.568 47.336 29.616C46.216 27.664 45.656 25.456 45.656 22.992C45.656 20.528 46.184 18.32 47.24 16.368C48.328 14.416 49.816 12.896 51.704 11.808C53.592 10.72 55.736 10.176 58.136 10.176C60.376 10.176 62.392 10.688 64.184 11.712C66.008 12.736 67.448 14.16 68.504 15.984C69.592 17.808 70.168 19.888 70.232 22.224L49.496 26.256C50.136 28.304 51.288 29.92 52.952 31.104C54.648 32.256 56.664 32.832 59 32.832ZM58.136 13.104C56.376 13.104 54.792 13.52 53.384 14.352C52.008 15.152 50.92 16.288 50.12 17.76C49.352 19.2 48.968 20.864 48.968 22.752C48.968 23.232 48.984 23.584 49.016 23.808L66.824 20.352C66.44 18.24 65.464 16.512 63.896 15.168C62.328 13.792 60.408 13.104 58.136 13.104Z" fill="#FF2DF1"/>
<path d="M33.488 10.176C36.656 10.176 39.136 11.088 40.928 12.912C42.752 14.736 43.664 17.424 43.664 20.976V35.616H40.256V21.312C40.256 18.688 39.616 16.688 38.336 15.312C37.088 13.936 35.312 13.248 33.008 13.248C30.384 13.248 28.32 14.064 26.816 15.696C25.312 17.296 24.56 19.52 24.56 22.368V35.616H21.152V21.312C21.152 18.688 20.512 16.688 19.232 15.312C17.984 13.936 16.192 13.248 13.856 13.248C11.264 13.248 9.2 14.064 7.664 15.696C6.16 17.296 5.408 19.52 5.408 22.368V35.616H2V10.368H5.264V14.976C6.16 13.44 7.408 12.256 9.008 11.424C10.608 10.592 12.448 10.176 14.528 10.176C16.64 10.176 18.464 10.624 20 11.52C21.568 12.416 22.736 13.744 23.504 15.504C24.432 13.84 25.76 12.544 27.488 11.616C29.248 10.656 31.248 10.176 33.488 10.176Z" fill="#FF2DF1"/>
</svg>
