<svg width="190" height="24" viewBox="0 0 190 24" fill="none" xmlns="http://www.w3.org/2000/svg">
<g clip-path="url(#clip0_5_2)">
<path d="M20.992 6.784C23.104 6.784 24.7573 7.392 25.952 8.608C27.168 9.824 27.776 11.616 27.776 13.984V23.744H25.504V14.208C25.504 12.4587 25.0773 11.1253 24.224 10.208C23.392 9.29067 22.208 8.832 20.672 8.832C18.9227 8.832 17.5467 9.376 16.544 10.464C15.5413 11.5307 15.04 13.0133 15.04 14.912V23.744H12.768V14.208C12.768 12.4587 12.3413 11.1253 11.488 10.208C10.656 9.29067 9.46133 8.832 7.904 8.832C6.176 8.832 4.8 9.376 3.776 10.464C2.77333 11.5307 2.272 13.0133 2.272 14.912V23.744H0V6.912H2.176V9.984C2.77333 8.96 3.60533 8.17067 4.672 7.616C5.73867 7.06133 6.96533 6.784 8.352 6.784C9.76 6.784 10.976 7.08267 12 7.68C13.0453 8.27733 13.824 9.16267 14.336 10.336C14.9547 9.22667 15.84 8.36267 16.992 7.744C18.1653 7.104 19.4987 6.784 20.992 6.784ZM36.4 21.888C37.4453 21.888 38.4053 21.7067 39.28 21.344C40.176 20.96 40.9333 20.4053 41.552 19.68L42.832 21.152C42.0853 22.048 41.1573 22.7307 40.048 23.2C38.9387 23.6693 37.712 23.904 36.368 23.904C34.64 23.904 33.104 23.5413 31.76 22.816C30.416 22.0693 29.3707 21.0453 28.624 19.744C27.8773 18.4427 27.504 16.9707 27.504 15.328C27.504 13.6853 27.856 12.2133 28.56 10.912C29.2853 9.61067 30.2773 8.59733 31.536 7.872C32.7947 7.14667 34.224 6.784 35.824 6.784C37.3173 6.784 38.6613 7.12533 39.856 7.808C41.072 8.49067 42.032 9.44 42.736 10.656C43.4613 11.872 43.8453 13.2587 43.888 14.816L30.064 17.504C30.4907 18.8693 31.2587 19.9467 32.368 20.736C33.4987 21.504 34.8427 21.888 36.4 21.888ZM35.824 8.736C34.6507 8.736 33.5947 9.01333 32.656 9.568C31.7387 10.1013 31.0133 10.8587 30.48 11.84C29.968 12.8 29.712 13.9093 29.712 15.168C29.712 15.488 29.7227 15.7227 29.744 15.872L41.616 13.568C41.36 12.16 40.7093 11.008 39.664 10.112C38.6187 9.19467 37.3387 8.736 35.824 8.736ZM59.0725 0V23.744H56.8965V20.416C56.2138 21.5467 55.3072 22.4107 54.1765 23.008C53.0672 23.6053 51.8085 23.904 50.4005 23.904C48.8218 23.904 47.3925 23.5413 46.1125 22.816C44.8325 22.0907 43.8298 21.0773 43.1045 19.776C42.3792 18.4747 42.0165 16.992 42.0165 15.328C42.0165 13.664 42.3792 12.1813 43.1045 10.88C43.8298 9.57867 44.8325 8.576 46.1125 7.872C47.3925 7.14667 48.8218 6.784 50.4005 6.784C51.7658 6.784 52.9925 7.072 54.0805 7.648C55.1898 8.20267 56.0965 9.024 56.8005 10.112V0H59.0725ZM50.5925 21.888C51.7658 21.888 52.8218 21.6213 53.7605 21.088C54.7205 20.5333 55.4672 19.7547 56.0005 18.752C56.5552 17.7493 56.8325 16.608 56.8325 15.328C56.8325 14.048 56.5552 12.9067 56.0005 11.904C55.4672 10.9013 54.7205 10.1333 53.7605 9.6C52.8218 9.04533 51.7658 8.768 50.5925 8.768C49.3978 8.768 48.3205 9.04533 47.3605 9.6C46.4218 10.1333 45.6752 10.9013 45.1205 11.904C44.5872 12.9067 44.3205 14.048 44.3205 15.328C44.3205 16.608 44.5872 17.7493 45.1205 18.752C45.6752 19.7547 46.4218 20.5333 47.3605 21.088C48.3205 21.6213 49.3978 21.888 50.5925 21.888ZM60.6 6.912H62.872V23.744H60.6V6.912ZM61.752 3.232C61.2827 3.232 60.888 3.072 60.568 2.752C60.248 2.432 60.088 2.048 60.088 1.6C60.088 1.17333 60.248 0.800001 60.568 0.48C60.888 0.16 61.2827 0 61.752 0C62.2213 0 62.616 0.16 62.936 0.48C63.256 0.778666 63.416 1.14133 63.416 1.568C63.416 2.03733 63.256 2.432 62.936 2.752C62.616 3.072 62.2213 3.232 61.752 3.232ZM79.7538 6.912V23.744H77.5778V20.416C76.8951 21.5467 75.9884 22.4107 74.8578 23.008C73.7484 23.6053 72.4898 23.904 71.0818 23.904C69.5031 23.904 68.0738 23.5413 66.7938 22.816C65.5138 22.0907 64.5111 21.0773 63.7858 19.776C63.0604 18.4747 62.6978 16.992 62.6978 15.328C62.6978 13.664 63.0604 12.1813 63.7858 10.88C64.5111 9.57867 65.5138 8.576 66.7938 7.872C68.0738 7.14667 69.5031 6.784 71.0818 6.784C72.4471 6.784 73.6738 7.072 74.7618 7.648C75.8711 8.20267 76.7778 9.024 77.4818 10.112V6.912H79.7538ZM71.2738 21.888C72.4471 21.888 73.5031 21.6213 74.4418 21.088C75.4018 20.5333 76.1484 19.7547 76.6818 18.752C77.2364 17.7493 77.5138 16.608 77.5138 15.328C77.5138 14.048 77.2364 12.9067 76.6818 11.904C76.1484 10.9013 75.4018 10.1333 74.4418 9.6C73.5031 9.04533 72.4471 8.768 71.2738 8.768C70.0791 8.768 69.0018 9.04533 68.0418 9.6C67.1031 10.1333 66.3564 10.9013 65.8018 11.904C65.2684 12.9067 65.0018 14.048 65.0018 15.328C65.0018 16.608 65.2684 17.7493 65.8018 18.752C66.3564 19.7547 67.1031 20.5333 68.0418 21.088C69.0018 21.6213 70.0791 21.888 71.2738 21.888Z" fill="black" fill-opacity="0.9"/>
<path d="M95.8733 12.192C97.3453 12.512 98.4759 13.152 99.2653 14.112C100.076 15.0507 100.481 16.2667 100.481 17.76C100.481 19.68 99.7666 21.1627 98.3373 22.208C96.9293 23.232 94.8386 23.744 92.0653 23.744H81.7613V1.344H91.4253C93.9213 1.344 95.8519 1.84533 97.2172 2.848C98.6039 3.85067 99.2973 5.26933 99.2973 7.104C99.2973 8.34133 98.9879 9.39733 98.3693 10.272C97.7719 11.1253 96.9399 11.7653 95.8733 12.192ZM84.1293 3.296V11.424H91.2653C93.0786 11.424 94.4759 11.0827 95.4573 10.4C96.4386 9.696 96.9292 8.68267 96.9292 7.36C96.9292 6.03733 96.4386 5.03467 95.4573 4.352C94.4759 3.648 93.0786 3.296 91.2653 3.296H84.1293ZM92.0333 21.792C94.0386 21.792 95.5533 21.4507 96.5773 20.768C97.6013 20.0853 98.1132 19.0187 98.1132 17.568C98.1132 14.7733 96.0866 13.376 92.0333 13.376H84.1293V21.792H92.0333ZM102.782 10.208C103.316 9.07733 104.105 8.224 105.15 7.648C106.217 7.072 107.529 6.784 109.086 6.784V8.992L108.542 8.96C106.772 8.96 105.385 9.504 104.382 10.592C103.38 11.68 102.878 13.2053 102.878 15.168V23.744H100.606V6.912H102.782V10.208ZM108.4 6.912H110.672V23.744H108.4V6.912ZM109.552 3.232C109.083 3.232 108.688 3.072 108.368 2.752C108.048 2.432 107.888 2.048 107.888 1.6C107.888 1.17333 108.048 0.800001 108.368 0.48C108.688 0.16 109.083 0 109.552 0C110.021 0 110.416 0.16 110.736 0.48C111.056 0.778666 111.216 1.14133 111.216 1.568C111.216 2.03733 111.056 2.432 110.736 2.752C110.416 3.072 110.021 3.232 109.552 3.232ZM116.93 23.904C115.415 23.904 114.242 23.4773 113.41 22.624C112.599 21.7707 112.194 20.5867 112.194 19.072V0H114.466V18.88C114.466 19.8827 114.7 20.6507 115.17 21.184C115.639 21.696 116.343 21.952 117.282 21.952C117.879 21.952 118.391 21.856 118.818 21.664L118.978 23.552C118.316 23.7867 117.634 23.904 116.93 23.904ZM122.005 23.904C120.49 23.904 119.317 23.4773 118.485 22.624C117.674 21.7707 117.269 20.5867 117.269 19.072V0H119.541V18.88C119.541 19.8827 119.775 20.6507 120.245 21.184C120.714 21.696 121.418 21.952 122.357 21.952C122.954 21.952 123.466 21.856 123.893 21.664L124.053 23.552C123.391 23.7867 122.709 23.904 122.005 23.904ZM122.344 6.912H124.616V23.744H122.344V6.912ZM123.496 3.232C123.026 3.232 122.632 3.072 122.312 2.752C121.992 2.432 121.832 2.048 121.832 1.6C121.832 1.17333 121.992 0.800001 122.312 0.48C122.632 0.16 123.026 0 123.496 0C123.965 0 124.36 0.16 124.68 0.48C125 0.778666 125.16 1.14133 125.16 1.568C125.16 2.03733 125 2.432 124.68 2.752C124.36 3.072 123.965 3.232 123.496 3.232ZM141.497 6.912V23.744H139.321V20.416C138.639 21.5467 137.732 22.4107 136.601 23.008C135.492 23.6053 134.233 23.904 132.825 23.904C131.247 23.904 129.817 23.5413 128.537 22.816C127.257 22.0907 126.255 21.0773 125.529 19.776C124.804 18.4747 124.441 16.992 124.441 15.328C124.441 13.664 124.804 12.1813 125.529 10.88C126.255 9.57867 127.257 8.576 128.537 7.872C129.817 7.14667 131.247 6.784 132.825 6.784C134.191 6.784 135.417 7.072 136.505 7.648C137.615 8.20267 138.521 9.024 139.225 10.112V6.912H141.497ZM133.017 21.888C134.191 21.888 135.247 21.6213 136.185 21.088C137.145 20.5333 137.892 19.7547 138.425 18.752C138.98 17.7493 139.257 16.608 139.257 15.328C139.257 14.048 138.98 12.9067 138.425 11.904C137.892 10.9013 137.145 10.1333 136.185 9.6C135.247 9.04533 134.191 8.768 133.017 8.768C131.823 8.768 130.745 9.04533 129.785 9.6C128.847 10.1333 128.1 10.9013 127.545 11.904C127.012 12.9067 126.745 14.048 126.745 15.328C126.745 16.608 127.012 17.7493 127.545 18.752C128.1 19.7547 128.847 20.5333 129.785 21.088C130.745 21.6213 131.823 21.888 133.017 21.888ZM151.601 6.784C153.713 6.784 155.388 7.40267 156.625 8.64C157.884 9.856 158.513 11.6373 158.513 13.984V23.744H156.241V14.208C156.241 12.4587 155.804 11.1253 154.929 10.208C154.054 9.29067 152.806 8.832 151.185 8.832C149.372 8.832 147.932 9.376 146.865 10.464C145.82 11.5307 145.297 13.0133 145.297 14.912V23.744H143.025V6.912H145.201V10.016C145.82 8.992 146.673 8.20267 147.761 7.648C148.87 7.072 150.15 6.784 151.601 6.784ZM166.92 23.904C165.256 23.904 163.762 23.5413 162.44 22.816C161.138 22.0907 160.114 21.0773 159.368 19.776C158.621 18.4533 158.248 16.9707 158.248 15.328C158.248 13.6853 158.621 12.2133 159.368 10.912C160.114 9.61067 161.138 8.59733 162.44 7.872C163.762 7.14667 165.256 6.784 166.92 6.784C168.37 6.784 169.661 7.072 170.792 7.648C171.944 8.20267 172.85 9.024 173.512 10.112L171.816 11.264C171.261 10.432 170.557 9.81333 169.704 9.408C168.85 8.98133 167.922 8.768 166.92 8.768C165.704 8.768 164.605 9.04533 163.624 9.6C162.664 10.1333 161.906 10.9013 161.352 11.904C160.818 12.9067 160.552 14.048 160.552 15.328C160.552 16.6293 160.818 17.7813 161.352 18.784C161.906 19.7653 162.664 20.5333 163.624 21.088C164.605 21.6213 165.704 21.888 166.92 21.888C167.922 21.888 168.85 21.6853 169.704 21.28C170.557 20.8747 171.261 20.256 171.816 19.424L173.512 20.576C172.85 21.664 171.944 22.496 170.792 23.072C169.64 23.6267 168.349 23.904 166.92 23.904ZM180.094 21.888C181.139 21.888 182.099 21.7067 182.974 21.344C183.87 20.96 184.627 20.4053 185.246 19.68L186.526 21.152C185.779 22.048 184.851 22.7307 183.742 23.2C182.632 23.6693 181.406 23.904 180.062 23.904C178.334 23.904 176.798 23.5413 175.454 22.816C174.11 22.0693 173.064 21.0453 172.318 19.744C171.571 18.4427 171.198 16.9707 171.198 15.328C171.198 13.6853 171.55 12.2133 172.254 10.912C172.979 9.61067 173.971 8.59733 175.23 7.872C176.488 7.14667 177.918 6.784 179.518 6.784C181.011 6.784 182.355 7.12533 183.55 7.808C184.766 8.49067 185.726 9.44 186.43 10.656C187.155 11.872 187.539 13.2587 187.582 14.816L173.758 17.504C174.184 18.8693 174.952 19.9467 176.062 20.736C177.192 21.504 178.536 21.888 180.094 21.888ZM179.518 8.736C178.344 8.736 177.288 9.01333 176.35 9.568C175.432 10.1013 174.707 10.8587 174.174 11.84C173.662 12.8 173.406 13.9093 173.406 15.168C173.406 15.488 173.416 15.7227 173.438 15.872L185.31 13.568C185.054 12.16 184.403 11.008 183.358 10.112C182.312 9.19467 181.032 8.736 179.518 8.736Z" fill="black" fill-opacity="0.9"/>
<path d="M187.63 23.904C187.161 23.904 186.756 23.7333 186.414 23.392C186.094 23.0507 185.934 22.6347 185.934 22.144C185.934 21.6533 186.094 21.248 186.414 20.928C186.756 20.5867 187.161 20.416 187.63 20.416C188.1 20.416 188.505 20.5867 188.846 20.928C189.188 21.248 189.358 21.6533 189.358 22.144C189.358 22.6347 189.188 23.0507 188.846 23.392C188.505 23.7333 188.1 23.904 187.63 23.904Z" fill="black" fill-opacity="0.9"/>
</g>
<defs>
<clipPath id="clip0_5_2">
<rect width="190" height="24" fill="white"/>
</clipPath>
</defs>
</svg>
