<svg width="338" height="36" viewBox="0 0 338 36" fill="none" xmlns="http://www.w3.org/2000/svg">
<path d="M334.817 35.856C334.113 35.856 333.505 35.6 332.993 35.088C332.513 34.576 332.273 33.952 332.273 33.216C332.273 32.48 332.513 31.872 332.993 31.392C333.505 30.88 334.113 30.624 334.817 30.624C335.521 30.624 336.129 30.88 336.641 31.392C337.153 31.872 337.409 32.48 337.409 33.216C337.409 33.952 337.153 34.576 336.641 35.088C336.129 35.6 335.521 35.856 334.817 35.856Z" fill="#008DDA"/>
<path d="M322.565 35.856C320.517 35.856 318.549 35.568 316.661 34.992C314.805 34.384 313.349 33.632 312.293 32.736L313.829 30.048C314.885 30.88 316.213 31.568 317.813 32.112C319.413 32.624 321.077 32.88 322.805 32.88C325.109 32.88 326.805 32.528 327.893 31.824C329.013 31.088 329.573 30.064 329.573 28.752C329.573 27.824 329.269 27.104 328.661 26.592C328.053 26.048 327.285 25.648 326.357 25.392C325.429 25.104 324.197 24.832 322.661 24.576C320.613 24.192 318.965 23.808 317.717 23.424C316.469 23.008 315.397 22.32 314.501 21.36C313.637 20.4 313.205 19.072 313.205 17.376C313.205 15.264 314.085 13.536 315.845 12.192C317.605 10.848 320.053 10.176 323.189 10.176C324.821 10.176 326.453 10.4 328.085 10.848C329.717 11.264 331.061 11.824 332.117 12.528L330.629 15.264C328.549 13.824 326.069 13.104 323.189 13.104C321.013 13.104 319.365 13.488 318.245 14.256C317.157 15.024 316.613 16.032 316.613 17.28C316.613 18.24 316.917 19.008 317.525 19.584C318.165 20.16 318.949 20.592 319.877 20.88C320.805 21.136 322.085 21.408 323.717 21.696C325.733 22.08 327.349 22.464 328.565 22.848C329.781 23.232 330.821 23.888 331.685 24.816C332.549 25.744 332.981 27.024 332.981 28.656C332.981 30.864 332.053 32.624 330.197 33.936C328.373 35.216 325.829 35.856 322.565 35.856Z" fill="#FFFF00"/>
<path d="M302.428 32.832C303.996 32.832 305.436 32.56 306.748 32.016C308.092 31.44 309.228 30.608 310.156 29.52L312.076 31.728C310.956 33.072 309.564 34.096 307.9 34.8C306.236 35.504 304.396 35.856 302.38 35.856C299.788 35.856 297.484 35.312 295.468 34.224C293.452 33.104 291.884 31.568 290.764 29.616C289.644 27.664 289.084 25.456 289.084 22.992C289.084 20.528 289.612 18.32 290.668 16.368C291.756 14.416 293.244 12.896 295.132 11.808C297.02 10.72 299.164 10.176 301.564 10.176C303.804 10.176 305.82 10.688 307.612 11.712C309.436 12.736 310.876 14.16 311.932 15.984C313.02 17.808 313.596 19.888 313.66 22.224L292.924 26.256C293.564 28.304 294.716 29.92 296.38 31.104C298.076 32.256 300.092 32.832 302.428 32.832ZM301.564 13.104C299.804 13.104 298.22 13.52 296.812 14.352C295.436 15.152 294.348 16.288 293.548 17.76C292.78 19.2 292.396 20.864 292.396 22.752C292.396 23.232 292.412 23.584 292.444 23.808L310.252 20.352C309.868 18.24 308.892 16.512 307.324 15.168C305.756 13.792 303.836 13.104 301.564 13.104Z" fill="#FFFF00"/>
<path d="M291.141 34.08C290.501 34.656 289.717 35.104 288.789 35.424C287.861 35.712 286.885 35.856 285.861 35.856C283.493 35.856 281.669 35.216 280.389 33.936C279.109 32.656 278.469 30.848 278.469 28.512V4.84799H281.877V10.368H289.509V13.248H281.877V28.32C281.877 29.824 282.245 30.976 282.981 31.776C283.717 32.544 284.789 32.928 286.197 32.928C287.733 32.928 288.981 32.496 289.941 31.632L291.141 34.08Z" fill="#FFFF00"/>
<path d="M263.889 10.176C267.057 10.176 269.569 11.104 271.425 12.96C273.313 14.784 274.257 17.456 274.257 20.976V35.616H270.849V21.312C270.849 18.688 270.193 16.688 268.881 15.312C267.569 13.936 265.697 13.248 263.265 13.248C260.545 13.248 258.385 14.064 256.785 15.696C255.217 17.296 254.433 19.52 254.433 22.368V35.616H251.025V10.368H254.289V15.024C255.217 13.488 256.497 12.304 258.129 11.472C259.793 10.608 261.713 10.176 263.889 10.176Z" fill="#008DDA"/>
<path d="M246.334 10.368V35.616H243.07V30.624C242.046 32.32 240.686 33.616 238.99 34.512C237.326 35.408 235.438 35.856 233.326 35.856C230.958 35.856 228.814 35.312 226.894 34.224C224.974 33.136 223.47 31.616 222.382 29.664C221.294 27.712 220.75 25.488 220.75 22.992C220.75 20.496 221.294 18.272 222.382 16.32C223.47 14.368 224.974 12.864 226.894 11.808C228.814 10.72 230.958 10.176 233.326 10.176C235.374 10.176 237.214 10.608 238.846 11.472C240.51 12.304 241.87 13.536 242.926 15.168V10.368H246.334ZM233.614 32.832C235.374 32.832 236.958 32.432 238.366 31.632C239.806 30.8 240.926 29.632 241.726 28.128C242.558 26.624 242.974 24.912 242.974 22.992C242.974 21.072 242.558 19.36 241.726 17.856C240.926 16.352 239.806 15.2 238.366 14.4C236.958 13.568 235.374 13.152 233.614 13.152C231.822 13.152 230.206 13.568 228.766 14.4C227.358 15.2 226.238 16.352 225.406 17.856C224.606 19.36 224.206 21.072 224.206 22.992C224.206 24.912 224.606 26.624 225.406 28.128C226.238 29.632 227.358 30.8 228.766 31.632C230.206 32.432 231.822 32.832 233.614 32.832Z" fill="#FFFF00"/>
<path d="M220.854 35.856C218.582 35.856 216.822 35.216 215.574 33.936C214.358 32.656 213.75 30.88 213.75 28.608V0H217.158V28.32C217.158 29.824 217.51 30.976 218.214 31.776C218.918 32.544 219.974 32.928 221.382 32.928C222.278 32.928 223.046 32.784 223.686 32.496L223.926 35.328C222.934 35.68 221.91 35.856 220.854 35.856Z" fill="#FFFF00"/>
<path d="M210.841 35.856C208.569 35.856 206.809 35.216 205.561 33.936C204.345 32.656 203.737 30.88 203.737 28.608V0H207.145V28.32C207.145 29.824 207.497 30.976 208.201 31.776C208.905 32.544 209.961 32.928 211.369 32.928C212.265 32.928 213.033 32.784 213.673 32.496L213.913 35.328C212.921 35.68 211.897 35.856 210.841 35.856Z" fill="#FFFF00"/>
<path d="M195.647 10.368H199.055V35.616H195.647V10.368ZM197.375 4.848C196.671 4.848 196.079 4.608 195.599 4.128C195.119 3.648 194.879 3.072 194.879 2.4C194.879 1.76 195.119 1.2 195.599 0.719999C196.079 0.24 196.671 0 197.375 0C198.079 0 198.671 0.24 199.151 0.719999C199.631 1.168 199.871 1.712 199.871 2.352C199.871 3.056 199.631 3.648 199.151 4.128C198.671 4.608 198.079 4.848 197.375 4.848Z" fill="#FFFF00"/>
<path d="M184.82 15.312C185.62 13.616 186.804 12.336 188.372 11.472C189.972 10.608 191.94 10.176 194.276 10.176V13.488L193.46 13.44C190.804 13.44 188.724 14.256 187.22 15.888C185.716 17.52 184.964 19.808 184.964 22.752V35.616H181.556V10.368H184.82V15.312Z" fill="#FFFF00"/>
<path d="M172.057 18.288C174.265 18.768 175.961 19.728 177.145 21.168C178.361 22.576 178.969 24.4 178.969 26.64C178.969 29.52 177.897 31.744 175.753 33.312C173.641 34.848 170.505 35.616 166.345 35.616H150.889V2.01599H165.385C169.129 2.01599 172.025 2.76799 174.073 4.27199C176.153 5.77599 177.193 7.90399 177.193 10.656C177.193 12.512 176.729 14.096 175.801 15.408C174.905 16.688 173.657 17.648 172.057 18.288ZM154.441 4.94399V17.136H165.145C167.865 17.136 169.961 16.624 171.433 15.6C172.905 14.544 173.641 13.024 173.641 11.04C173.641 9.05599 172.905 7.55199 171.433 6.52799C169.961 5.47199 167.865 4.94399 165.145 4.94399H154.441ZM166.297 32.688C169.305 32.688 171.577 32.176 173.113 31.152C174.649 30.128 175.417 28.528 175.417 26.352C175.417 22.16 172.377 20.064 166.297 20.064H154.441V32.688H166.297Z" fill="#008DDA"/>
<path d="M138.252 35.856C136.204 35.856 134.236 35.568 132.348 34.992C130.492 34.384 129.036 33.632 127.98 32.736L129.516 30.048C130.572 30.88 131.9 31.568 133.5 32.112C135.1 32.624 136.764 32.88 138.492 32.88C140.796 32.88 142.492 32.528 143.58 31.824C144.7 31.088 145.26 30.064 145.26 28.752C145.26 27.824 144.956 27.104 144.348 26.592C143.74 26.048 142.972 25.648 142.044 25.392C141.116 25.104 139.884 24.832 138.348 24.576C136.3 24.192 134.652 23.808 133.404 23.424C132.156 23.008 131.084 22.32 130.188 21.36C129.324 20.4 128.892 19.072 128.892 17.376C128.892 15.264 129.772 13.536 131.532 12.192C133.292 10.848 135.74 10.176 138.876 10.176C140.508 10.176 142.14 10.4 143.772 10.848C145.404 11.264 146.748 11.824 147.804 12.528L146.316 15.264C144.236 13.824 141.756 13.104 138.876 13.104C136.7 13.104 135.052 13.488 133.932 14.256C132.844 15.024 132.3 16.032 132.3 17.28C132.3 18.24 132.604 19.008 133.212 19.584C133.852 20.16 134.636 20.592 135.564 20.88C136.492 21.136 137.772 21.408 139.404 21.696C141.42 22.08 143.036 22.464 144.252 22.848C145.468 23.232 146.508 23.888 147.372 24.816C148.236 25.744 148.668 27.024 148.668 28.656C148.668 30.864 147.74 32.624 145.884 33.936C144.06 35.216 141.516 35.856 138.252 35.856Z" fill="#FF2DF1"/>
<path d="M116.511 35.856C114.079 35.856 111.887 35.312 109.935 34.224C107.983 33.104 106.447 31.568 105.327 29.616C104.207 27.664 103.647 25.456 103.647 22.992C103.647 20.528 104.207 18.32 105.327 16.368C106.447 14.416 107.983 12.896 109.935 11.808C111.887 10.72 114.079 10.176 116.511 10.176C118.943 10.176 121.135 10.72 123.087 11.808C125.039 12.896 126.559 14.416 127.647 16.368C128.767 18.32 129.327 20.528 129.327 22.992C129.327 25.456 128.767 27.664 127.647 29.616C126.559 31.568 125.039 33.104 123.087 34.224C121.135 35.312 118.943 35.856 116.511 35.856ZM116.511 32.832C118.303 32.832 119.903 32.432 121.311 31.632C122.751 30.8 123.871 29.632 124.671 28.128C125.471 26.624 125.871 24.912 125.871 22.992C125.871 21.072 125.471 19.36 124.671 17.856C123.871 16.352 122.751 15.2 121.311 14.4C119.903 13.568 118.303 13.152 116.511 13.152C114.719 13.152 113.103 13.568 111.663 14.4C110.255 15.2 109.135 16.352 108.303 17.856C107.503 19.36 107.103 21.072 107.103 22.992C107.103 24.912 107.503 26.624 108.303 28.128C109.135 29.632 110.255 30.8 111.663 31.632C113.103 32.432 114.719 32.832 116.511 32.832Z" fill="#FF2DF1"/>
<path d="M98.1 10.368H101.508V35.616H98.1V10.368ZM99.828 4.848C99.124 4.848 98.532 4.608 98.052 4.128C97.572 3.648 97.332 3.072 97.332 2.4C97.332 1.76 97.572 1.2 98.052 0.719999C98.532 0.24 99.124 0 99.828 0C100.532 0 101.124 0.24 101.604 0.719999C102.084 1.168 102.324 1.712 102.324 2.352C102.324 3.056 102.084 3.648 101.604 4.128C101.124 4.608 100.532 4.848 99.828 4.848Z" fill="#FF2DF1"/>
<path d="M93.4088 0V35.616H90.1448V30.624C89.1208 32.32 87.7607 33.616 86.0648 34.512C84.4007 35.408 82.5128 35.856 80.4008 35.856C78.0328 35.856 75.8888 35.312 73.9688 34.224C72.0487 33.136 70.5448 31.616 69.4568 29.664C68.3688 27.712 67.8248 25.488 67.8248 22.992C67.8248 20.496 68.3688 18.272 69.4568 16.32C70.5448 14.368 72.0487 12.864 73.9688 11.808C75.8888 10.72 78.0328 10.176 80.4008 10.176C82.4488 10.176 84.2888 10.608 85.9208 11.472C87.5848 12.304 88.9448 13.536 90.0008 15.168V0H93.4088ZM80.6888 32.832C82.4488 32.832 84.0327 32.432 85.4408 31.632C86.8808 30.8 88.0008 29.632 88.8008 28.128C89.6328 26.624 90.0488 24.912 90.0488 22.992C90.0488 21.072 89.6328 19.36 88.8008 17.856C88.0008 16.352 86.8808 15.2 85.4408 14.4C84.0327 13.568 82.4488 13.152 80.6888 13.152C78.8968 13.152 77.2808 13.568 75.8408 14.4C74.4328 15.2 73.3128 16.352 72.4808 17.856C71.6808 19.36 71.2808 21.072 71.2808 22.992C71.2808 24.912 71.6808 26.624 72.4808 28.128C73.3128 29.632 74.4328 30.8 75.8408 31.632C77.2808 32.432 78.8968 32.832 80.6888 32.832Z" fill="#FF2DF1"/>
<path d="M57 32.832C58.568 32.832 60.008 32.56 61.32 32.016C62.664 31.44 63.8 30.608 64.728 29.52L66.648 31.728C65.528 33.072 64.136 34.096 62.472 34.8C60.808 35.504 58.968 35.856 56.952 35.856C54.36 35.856 52.056 35.312 50.04 34.224C48.024 33.104 46.456 31.568 45.336 29.616C44.216 27.664 43.656 25.456 43.656 22.992C43.656 20.528 44.184 18.32 45.24 16.368C46.328 14.416 47.816 12.896 49.704 11.808C51.592 10.72 53.736 10.176 56.136 10.176C58.376 10.176 60.392 10.688 62.184 11.712C64.008 12.736 65.448 14.16 66.504 15.984C67.592 17.808 68.168 19.888 68.232 22.224L47.496 26.256C48.136 28.304 49.288 29.92 50.952 31.104C52.648 32.256 54.664 32.832 57 32.832ZM56.136 13.104C54.376 13.104 52.792 13.52 51.384 14.352C50.008 15.152 48.92 16.288 48.12 17.76C47.352 19.2 46.968 20.864 46.968 22.752C46.968 23.232 46.984 23.584 47.016 23.808L64.824 20.352C64.44 18.24 63.464 16.512 61.896 15.168C60.328 13.792 58.408 13.104 56.136 13.104Z" fill="#FF2DF1"/>
<path d="M31.488 10.176C34.656 10.176 37.136 11.088 38.928 12.912C40.752 14.736 41.664 17.424 41.664 20.976V35.616H38.256V21.312C38.256 18.688 37.616 16.688 36.336 15.312C35.088 13.936 33.312 13.248 31.008 13.248C28.384 13.248 26.32 14.064 24.816 15.696C23.312 17.296 22.56 19.52 22.56 22.368V35.616H19.152V21.312C19.152 18.688 18.512 16.688 17.232 15.312C15.984 13.936 14.192 13.248 11.856 13.248C9.264 13.248 7.2 14.064 5.664 15.696C4.16 17.296 3.408 19.52 3.408 22.368V35.616H0V10.368H3.264V14.976C4.16 13.44 5.408 12.256 7.008 11.424C8.608 10.592 10.448 10.176 12.528 10.176C14.64 10.176 16.464 10.624 18 11.52C19.568 12.416 20.736 13.744 21.504 15.504C22.432 13.84 23.76 12.544 25.488 11.616C27.248 10.656 29.248 10.176 31.488 10.176Z" fill="#008DDA"/>
</svg>
