<svg width="265" height="212" viewBox="0 0 265 212" fill="none" xmlns="http://www.w3.org/2000/svg">
<g filter="url(#filter0_d_2016_28)">
<circle cx="133" cy="102" r="100" fill="black" fill-opacity="0.8" shape-rendering="crispEdges"/>
</g>
<path d="M10.176 133.576C9.536 133.576 9.024 133.384 8.64 133C8.32 132.616 8.16 132.104 8.16 131.464V88.072C8.16 87.368 8.32 86.856 8.64 86.536C9.024 86.152 9.536 85.96 10.176 85.96C10.816 85.96 11.296 86.152 11.616 86.536C11.936 86.856 12.096 87.368 12.096 88.072V97.384H11.136C12.352 93.608 14.496 90.696 17.568 88.648C20.704 86.6 24.32 85.576 28.416 85.576C28.992 85.576 29.472 85.704 29.856 85.96C30.304 86.152 30.528 86.568 30.528 87.208C30.528 87.848 30.368 88.36 30.048 88.744C29.728 89.064 29.184 89.256 28.416 89.32L27.264 89.416C22.528 89.864 18.816 91.464 16.128 94.216C13.504 96.968 12.192 100.616 12.192 105.16V131.464C12.192 132.104 12.032 132.616 11.712 133C11.392 133.384 10.88 133.576 10.176 133.576ZM41.5935 133.768C38.5855 133.768 35.8655 133.16 33.4335 131.944C31.0015 130.728 29.0815 129.096 27.6735 127.048C26.2655 124.936 25.5615 122.6 25.5615 120.04C25.5615 116.584 26.3935 113.896 28.0575 111.976C29.7855 109.992 32.6975 108.616 36.7935 107.848C40.9535 107.016 46.6495 106.6 53.8815 106.6H57.8175V110.152H54.0735C47.7375 110.152 42.8095 110.44 39.2895 111.016C35.8335 111.528 33.4015 112.488 31.9935 113.896C30.6495 115.24 29.9775 117.16 29.9775 119.656C29.9775 122.728 31.0335 125.256 33.1455 127.24C35.3215 129.16 38.2335 130.12 41.8815 130.12C44.8255 130.12 47.3855 129.416 49.5615 128.008C51.8015 126.536 53.5615 124.584 54.8415 122.152C56.1215 119.656 56.7615 116.84 56.7615 113.704V102.76C56.7615 98.152 55.8655 94.792 54.0735 92.68C52.2815 90.568 49.4015 89.512 45.4335 89.512C42.8735 89.512 40.4095 89.864 38.0415 90.568C35.7375 91.272 33.3055 92.36 30.7455 93.832C30.1695 94.152 29.6575 94.28 29.2095 94.216C28.8255 94.152 28.5055 93.992 28.2495 93.736C27.9935 93.416 27.8015 93.064 27.6735 92.68C27.6095 92.232 27.6415 91.816 27.7695 91.432C27.9615 91.048 28.2815 90.728 28.7295 90.472C31.3535 88.872 34.0735 87.688 36.8895 86.92C39.7055 86.152 42.4895 85.768 45.2415 85.768C48.7615 85.768 51.6735 86.376 53.9775 87.592C56.2815 88.808 57.9775 90.664 59.0655 93.16C60.2175 95.656 60.7935 98.856 60.7935 102.76V131.464C60.7935 132.104 60.6335 132.616 60.3135 133C59.9935 133.384 59.5135 133.576 58.8735 133.576C58.2335 133.576 57.7215 133.384 57.3375 133C57.0175 132.616 56.8575 132.104 56.8575 131.464V121.384H57.9135C57.2735 123.944 56.1855 126.152 54.6495 128.008C53.1135 129.864 51.2255 131.304 48.9855 132.328C46.8095 133.288 44.3455 133.768 41.5935 133.768ZM81.69 133.768C78.49 133.768 75.802 133.16 73.626 131.944C71.45 130.664 69.818 128.872 68.73 126.568C67.642 124.2 67.098 121.352 67.098 118.024V89.992H59.322C58.682 89.992 58.17 89.832 57.786 89.512C57.402 89.192 57.21 88.776 57.21 88.264C57.21 87.752 57.402 87.336 57.786 87.016C58.17 86.696 58.682 86.536 59.322 86.536H67.098V73.576C67.098 72.872 67.258 72.36 67.578 72.04C67.962 71.656 68.474 71.464 69.114 71.464C69.754 71.464 70.234 71.656 70.554 72.04C70.938 72.36 71.13 72.872 71.13 73.576V86.536H84.858C85.562 86.536 86.074 86.696 86.394 87.016C86.778 87.336 86.97 87.752 86.97 88.264C86.97 88.776 86.778 89.192 86.394 89.512C86.074 89.832 85.562 89.992 84.858 89.992H71.13V117.16C71.13 121.32 71.962 124.52 73.626 126.76C75.29 128.936 78.074 130.024 81.978 130.024C83.322 130.024 84.41 129.896 85.242 129.64C86.138 129.32 86.874 129.16 87.45 129.16C87.834 129.16 88.154 129.32 88.41 129.64C88.73 129.96 88.89 130.408 88.89 130.984C88.89 131.304 88.794 131.656 88.602 132.04C88.474 132.36 88.186 132.584 87.738 132.712C87.098 132.968 86.17 133.192 84.954 133.384C83.802 133.64 82.714 133.768 81.69 133.768ZM103.427 133.768C98.8193 133.768 94.8513 132.808 91.5233 130.888C88.1953 128.968 85.6033 126.248 83.7473 122.728C81.9553 119.144 81.0593 114.888 81.0593 109.96C81.0593 105.096 81.9553 100.872 83.7473 97.288C85.6033 93.64 88.1313 90.824 91.3313 88.84C94.5953 86.792 98.3393 85.768 102.563 85.768C105.571 85.768 108.227 86.28 110.531 87.304C112.899 88.328 114.883 89.8 116.483 91.72C118.147 93.64 119.395 95.976 120.227 98.728C121.123 101.48 121.571 104.584 121.571 108.04C121.571 108.872 121.379 109.512 120.995 109.96C120.675 110.344 120.163 110.536 119.459 110.536H83.6513V106.984H119.459L117.827 108.136C117.827 104.232 117.251 100.904 116.099 98.152C114.947 95.336 113.219 93.192 110.915 91.72C108.675 90.184 105.859 89.416 102.467 89.416C98.7553 89.416 95.5873 90.312 92.9633 92.104C90.4033 93.832 88.4513 96.2 87.1073 99.208C85.8273 102.216 85.1873 105.64 85.1873 109.48V109.96C85.1873 116.36 86.7553 121.32 89.8913 124.84C93.0913 128.296 97.5393 130.024 103.235 130.024C105.795 130.024 108.195 129.704 110.435 129.064C112.675 128.36 114.883 127.144 117.059 125.416C117.507 125.032 117.955 124.84 118.403 124.84C118.915 124.776 119.331 124.872 119.651 125.128C120.035 125.32 120.291 125.608 120.419 125.992C120.611 126.312 120.643 126.696 120.515 127.144C120.387 127.592 120.067 128.008 119.555 128.392C117.571 130.056 115.139 131.368 112.259 132.328C109.379 133.288 106.435 133.768 103.427 133.768Z" fill="#FF2DF1"/>
<path d="M124.877 133.288C123.853 133.288 122.989 132.936 122.285 132.232C121.581 131.528 121.229 130.664 121.229 129.64C121.229 128.552 121.581 127.688 122.285 127.048C122.989 126.344 123.853 125.992 124.877 125.992C125.965 125.992 126.829 126.344 127.469 127.048C128.109 127.688 128.429 128.552 128.429 129.64C128.429 130.664 128.109 131.528 127.469 132.232C126.829 132.936 125.965 133.288 124.877 133.288Z" fill="#008DDA"/>
<path d="M147.298 133.768C142.882 133.768 139.074 132.744 135.874 130.696C132.738 128.648 130.306 125.8 128.578 122.152C126.914 118.504 126.082 114.248 126.082 109.384C126.082 105.736 126.562 102.472 127.522 99.592C128.482 96.648 129.858 94.152 131.65 92.104C133.506 90.056 135.746 88.488 138.37 87.4C140.994 86.312 143.97 85.768 147.298 85.768C149.73 85.768 152.194 86.216 154.69 87.112C157.25 87.944 159.522 89.352 161.506 91.336C161.826 91.656 161.986 92.008 161.986 92.392C162.05 92.776 161.986 93.16 161.794 93.544C161.666 93.864 161.442 94.12 161.122 94.312C160.802 94.504 160.418 94.6 159.97 94.6C159.522 94.536 159.074 94.28 158.626 93.832C156.77 92.168 154.85 91.048 152.866 90.472C150.946 89.832 149.058 89.512 147.202 89.512C144.45 89.512 142.018 89.96 139.906 90.856C137.794 91.752 136.002 93.064 134.53 94.792C133.122 96.456 132.034 98.536 131.266 101.032C130.562 103.464 130.21 106.28 130.21 109.48C130.21 115.88 131.682 120.904 134.626 124.552C137.57 128.2 141.762 130.024 147.202 130.024C149.058 130.024 150.946 129.736 152.866 129.16C154.85 128.52 156.77 127.368 158.626 125.704C159.074 125.256 159.522 125.032 159.97 125.032C160.418 124.968 160.802 125.032 161.122 125.224C161.442 125.416 161.666 125.704 161.794 126.088C161.986 126.408 162.05 126.76 161.986 127.144C161.986 127.528 161.826 127.88 161.506 128.2C159.522 130.184 157.25 131.624 154.69 132.52C152.194 133.352 149.73 133.768 147.298 133.768ZM174.869 133.768C171.861 133.768 169.141 133.16 166.709 131.944C164.277 130.728 162.357 129.096 160.949 127.048C159.541 124.936 158.837 122.6 158.837 120.04C158.837 116.584 159.669 113.896 161.333 111.976C163.061 109.992 165.973 108.616 170.069 107.848C174.229 107.016 179.925 106.6 187.157 106.6H191.093V110.152H187.349C181.013 110.152 176.085 110.44 172.565 111.016C169.109 111.528 166.677 112.488 165.269 113.896C163.925 115.24 163.253 117.16 163.253 119.656C163.253 122.728 164.309 125.256 166.421 127.24C168.597 129.16 171.509 130.12 175.157 130.12C178.101 130.12 180.661 129.416 182.837 128.008C185.077 126.536 186.837 124.584 188.117 122.152C189.397 119.656 190.037 116.84 190.037 113.704V102.76C190.037 98.152 189.141 94.792 187.349 92.68C185.557 90.568 182.677 89.512 178.709 89.512C176.149 89.512 173.685 89.864 171.317 90.568C169.013 91.272 166.581 92.36 164.021 93.832C163.445 94.152 162.933 94.28 162.485 94.216C162.101 94.152 161.781 93.992 161.525 93.736C161.269 93.416 161.077 93.064 160.949 92.68C160.885 92.232 160.917 91.816 161.045 91.432C161.237 91.048 161.557 90.728 162.005 90.472C164.629 88.872 167.349 87.688 170.165 86.92C172.981 86.152 175.765 85.768 178.517 85.768C182.037 85.768 184.949 86.376 187.253 87.592C189.557 88.808 191.253 90.664 192.341 93.16C193.493 95.656 194.069 98.856 194.069 102.76V131.464C194.069 132.104 193.909 132.616 193.589 133C193.269 133.384 192.789 133.576 192.149 133.576C191.509 133.576 190.997 133.384 190.613 133C190.293 132.616 190.133 132.104 190.133 131.464V121.384H191.189C190.549 123.944 189.461 126.152 187.925 128.008C186.389 129.864 184.501 131.304 182.261 132.328C180.085 133.288 177.621 133.768 174.869 133.768ZM200.661 133.576C200.021 133.576 199.509 133.384 199.125 133C198.805 132.616 198.645 132.104 198.645 131.464V88.072C198.645 87.368 198.805 86.856 199.125 86.536C199.509 86.152 200.021 85.96 200.661 85.96C201.301 85.96 201.781 86.152 202.101 86.536C202.421 86.856 202.581 87.368 202.581 88.072V97.384H201.621C202.837 93.608 204.981 90.696 208.053 88.648C211.189 86.6 214.805 85.576 218.901 85.576C219.477 85.576 219.957 85.704 220.341 85.96C220.789 86.152 221.013 86.568 221.013 87.208C221.013 87.848 220.853 88.36 220.533 88.744C220.213 89.064 219.669 89.256 218.901 89.32L217.749 89.416C213.013 89.864 209.301 91.464 206.613 94.216C203.989 96.968 202.677 100.616 202.677 105.16V131.464C202.677 132.104 202.517 132.616 202.197 133C201.877 133.384 201.365 133.576 200.661 133.576ZM235.63 133.768C231.47 133.768 227.822 132.808 224.686 130.888C221.614 128.904 219.214 126.12 217.486 122.536C215.822 118.888 214.99 114.632 214.99 109.768C214.99 104.84 215.822 100.584 217.486 97C219.15 93.416 221.518 90.664 224.59 88.744C227.726 86.76 231.406 85.768 235.63 85.768C240.11 85.768 243.918 86.92 247.054 89.224C250.19 91.528 252.27 94.664 253.294 98.632H252.238V66.856C252.238 66.152 252.398 65.64 252.718 65.32C253.102 64.936 253.614 64.744 254.254 64.744C254.894 64.744 255.374 64.936 255.694 65.32C256.078 65.64 256.27 66.152 256.27 66.856V131.464C256.27 132.104 256.078 132.616 255.694 133C255.374 133.384 254.894 133.576 254.254 133.576C253.614 133.576 253.102 133.384 252.718 133C252.398 132.616 252.238 132.104 252.238 131.464V120.904H253.294C252.27 124.808 250.19 127.944 247.054 130.312C243.918 132.616 240.11 133.768 235.63 133.768ZM235.726 130.024C239.118 130.024 242.062 129.224 244.558 127.624C247.054 126.024 248.974 123.72 250.318 120.712C251.662 117.64 252.334 113.992 252.334 109.768C252.334 103.368 250.83 98.408 247.822 94.888C244.878 91.304 240.846 89.512 235.726 89.512C232.334 89.512 229.39 90.312 226.894 91.912C224.398 93.512 222.478 95.816 221.134 98.824C219.79 101.832 219.118 105.48 219.118 109.768C219.118 116.168 220.622 121.16 223.63 124.744C226.638 128.264 230.67 130.024 235.726 130.024Z" fill="#FFFF00"/>
<defs>
<filter id="filter0_d_2016_28" x="21" y="0" width="212" height="212" filterUnits="userSpaceOnUse" color-interpolation-filters="sRGB">
<feFlood flood-opacity="0" result="BackgroundImageFix"/>
<feColorMatrix in="SourceAlpha" type="matrix" values="0 0 0 0 0 0 0 0 0 0 0 0 0 0 0 0 0 0 127 0" result="hardAlpha"/>
<feMorphology radius="2" operator="dilate" in="SourceAlpha" result="effect1_dropShadow_2016_28"/>
<feOffset dx="-6" dy="4"/>
<feGaussianBlur stdDeviation="2"/>
<feComposite in2="hardAlpha" operator="out"/>
<feColorMatrix type="matrix" values="0 0 0 0 1 0 0 0 0 1 0 0 0 0 1 0 0 0 0.2 0"/>
<feBlend mode="normal" in2="BackgroundImageFix" result="effect1_dropShadow_2016_28"/>
<feBlend mode="normal" in="SourceGraphic" in2="effect1_dropShadow_2016_28" result="shape"/>
</filter>
</defs>
</svg>
