<svg width="275" height="208" viewBox="0 0 275 208" fill="none" xmlns="http://www.w3.org/2000/svg">
<g filter="url(#filter0_d_10_2)">
<path d="M137 200C192.228 200 237 155.228 237 100C237 44.7715 192.228 0 137 0C81.7715 0 37 44.7715 37 100C37 155.228 81.7715 200 137 200Z" fill="black" fill-opacity="0.8"/>
</g>
<path d="M22.176 116.584C22.176 120.056 21.336 122.884 19.656 125.068C18.032 127.252 15.708 128.344 12.684 128.344C7.98 128.344 4.732 126.048 2.94 121.456L4.284 120.448C6.076 124.592 8.904 126.664 12.768 126.664C15.064 126.664 16.884 125.768 18.228 123.976C19.628 122.184 20.328 119.776 20.328 116.752C20.328 115.016 20.048 113.588 19.488 112.468C18.928 111.292 18.228 110.34 17.388 109.612C16.548 108.884 15.624 108.296 14.616 107.848C13.664 107.4 12.768 106.98 11.928 106.588C10.92 106.196 9.968 105.72 9.072 105.16C8.232 104.6 7.476 103.9 6.804 103.06C6.188 102.22 5.684 101.24 5.292 100.12C4.956 99 4.788 97.628 4.788 96.004C4.788 94.492 5.012 93.092 5.46 91.804C5.964 90.46 6.636 89.284 7.476 88.276C8.316 87.268 9.268 86.484 10.332 85.924C11.452 85.364 12.656 85.084 13.944 85.084C16.072 85.084 17.836 85.616 19.236 86.68C20.692 87.744 21.812 89.144 22.596 90.88L21.252 91.804C19.684 88.444 17.248 86.764 13.944 86.764C11.872 86.764 10.136 87.632 8.736 89.368C7.336 91.104 6.636 93.288 6.636 95.92C6.636 97.32 6.776 98.524 7.056 99.532C7.392 100.484 7.84 101.324 8.4 102.052C9.016 102.724 9.744 103.312 10.584 103.816C11.424 104.32 12.404 104.796 13.524 105.244C14.532 105.692 15.54 106.224 16.548 106.84C17.612 107.4 18.564 108.128 19.404 109.024C20.244 109.864 20.916 110.9 21.42 112.132C21.924 113.364 22.176 114.848 22.176 116.584ZM28.0199 106.252C28.0199 109.22 28.2159 111.964 28.6079 114.484C29.0559 117.004 29.7279 119.16 30.6239 120.952C31.5759 122.744 32.7239 124.144 34.0679 125.152C35.4679 126.16 37.1479 126.664 39.1079 126.664C41.4599 126.664 43.3359 125.964 44.7359 124.564C46.1919 123.164 47.3119 121.484 48.0959 119.524L49.4399 120.28C48.6559 122.408 47.3959 124.284 45.6599 125.908C43.9799 127.532 41.7959 128.344 39.1079 128.344C36.9799 128.344 35.1039 127.84 33.4799 126.832C31.9119 125.768 30.5679 124.312 29.4479 122.464C28.3839 120.56 27.5719 118.292 27.0119 115.66C26.4519 112.972 26.1719 110.004 26.1719 106.756C26.1719 103.676 26.4519 100.82 27.0119 98.188C27.5719 95.5 28.3839 93.204 29.4479 91.3C30.5119 89.34 31.8279 87.828 33.3959 86.764C34.9639 85.644 36.7839 85.084 38.8559 85.084C41.0399 85.084 42.8599 85.616 44.3159 86.68C45.8279 87.688 47.0319 89.06 47.9279 90.796C48.8799 92.532 49.5519 94.548 49.9439 96.844C50.3359 99.14 50.5319 101.548 50.5319 104.068V106.252H28.0199ZM48.8519 104.572C48.8519 101.884 48.6279 99.448 48.1799 97.264C47.7879 95.08 47.1719 93.204 46.3319 91.636C45.5479 90.068 44.5119 88.864 43.2239 88.024C41.9919 87.128 40.5359 86.68 38.8559 86.68C36.8399 86.68 35.1319 87.324 33.7319 88.612C32.3879 89.9 31.2679 91.468 30.3719 93.316C29.5319 95.164 28.9159 97.124 28.5239 99.196C28.1879 101.268 28.0199 103.06 28.0199 104.572H48.8519ZM57.3963 96.676C57.3963 96.004 57.3683 95.22 57.3123 94.324C57.3123 93.372 57.2843 92.42 57.2283 91.468C57.2283 90.46 57.2003 89.508 57.1443 88.612C57.1443 87.716 57.1163 86.988 57.0603 86.428H58.9083C58.9643 86.988 58.9923 87.716 58.9923 88.612C59.0483 89.452 59.0763 90.376 59.0763 91.384C59.1323 92.336 59.1603 93.26 59.1603 94.156C59.1603 95.052 59.1603 95.836 59.1603 96.508H59.4123C60.1963 92.532 61.4003 89.732 63.0243 88.108C64.7043 86.428 66.5523 85.588 68.5683 85.588C69.0163 85.588 69.3523 85.616 69.5763 85.672V87.352C69.4643 87.296 69.2963 87.268 69.0723 87.268C68.8483 87.268 68.6803 87.268 68.5683 87.268C67.0003 87.268 65.6283 87.828 64.4523 88.948C63.2763 90.068 62.2963 91.524 61.5123 93.316C60.7843 95.108 60.2243 97.124 59.8323 99.364C59.4403 101.548 59.2443 103.76 59.2443 106V127H57.3963V96.676ZM80.8598 127H78.4238L67.7558 86.428H69.6878L79.5998 125.068H79.7678L89.3438 86.428H91.1918L80.8598 127ZM97.0843 73.828C96.5803 73.828 96.1323 73.632 95.7403 73.24C95.3483 72.848 95.1523 72.288 95.1523 71.56C95.1523 70.944 95.3483 70.44 95.7403 70.048C96.1323 69.6 96.5803 69.376 97.0843 69.376C97.5883 69.376 98.0363 69.6 98.4283 70.048C98.8203 70.44 99.0163 70.944 99.0163 71.56C99.0163 72.288 98.7923 72.848 98.3443 73.24C97.9523 73.632 97.5323 73.828 97.0843 73.828ZM96.1603 127V86.428H98.0083V127H96.1603ZM126.432 123.136C124.416 126.608 121.532 128.344 117.78 128.344C115.82 128.344 114.056 127.812 112.488 126.748C110.976 125.684 109.688 124.2 108.624 122.296C107.56 120.392 106.748 118.124 106.188 115.492C105.628 112.804 105.348 109.892 105.348 106.756C105.348 103.564 105.6 100.652 106.104 98.02C106.664 95.388 107.476 93.12 108.54 91.216C109.604 89.256 110.92 87.744 112.488 86.68C114.056 85.616 115.848 85.084 117.864 85.084C119.768 85.084 121.42 85.504 122.82 86.344C124.276 87.184 125.396 88.36 126.18 89.872L124.92 91.048C124.192 89.592 123.184 88.5 121.896 87.772C120.664 87.044 119.292 86.68 117.78 86.68C115.988 86.68 114.42 87.212 113.076 88.276C111.732 89.284 110.612 90.684 109.716 92.476C108.876 94.268 108.232 96.396 107.784 98.86C107.392 101.268 107.196 103.9 107.196 106.756C107.196 109.556 107.392 112.16 107.784 114.568C108.232 116.976 108.876 119.076 109.716 120.868C110.612 122.66 111.732 124.088 113.076 125.152C114.42 126.16 115.988 126.664 117.78 126.664C119.404 126.664 120.86 126.244 122.148 125.404C123.492 124.508 124.556 123.304 125.34 121.792L126.432 123.136ZM129.657 106.252C129.657 109.22 129.853 111.964 130.245 114.484C130.693 117.004 131.365 119.16 132.261 120.952C133.213 122.744 134.361 124.144 135.705 125.152C137.105 126.16 138.785 126.664 140.745 126.664C143.097 126.664 144.973 125.964 146.373 124.564C147.829 123.164 148.949 121.484 149.733 119.524L151.077 120.28C150.293 122.408 149.033 124.284 147.297 125.908C145.617 127.532 143.433 128.344 140.745 128.344C138.617 128.344 136.741 127.84 135.117 126.832C133.549 125.768 132.205 124.312 131.085 122.464C130.021 120.56 129.209 118.292 128.649 115.66C128.089 112.972 127.809 110.004 127.809 106.756C127.809 103.676 128.089 100.82 128.649 98.188C129.209 95.5 130.021 93.204 131.085 91.3C132.149 89.34 133.465 87.828 135.033 86.764C136.601 85.644 138.421 85.084 140.493 85.084C142.677 85.084 144.497 85.616 145.953 86.68C147.465 87.688 148.669 89.06 149.565 90.796C150.517 92.532 151.189 94.548 151.581 96.844C151.973 99.14 152.169 101.548 152.169 104.068V106.252H129.657ZM150.489 104.572C150.489 101.884 150.265 99.448 149.817 97.264C149.425 95.08 148.809 93.204 147.969 91.636C147.185 90.068 146.149 88.864 144.861 88.024C143.629 87.128 142.173 86.68 140.493 86.68C138.477 86.68 136.769 87.324 135.369 88.612C134.025 89.9 132.905 91.468 132.009 93.316C131.169 95.164 130.553 97.124 130.161 99.196C129.825 101.268 129.657 103.06 129.657 104.572H150.489ZM159.705 127.504C159.201 127.504 158.753 127.308 158.361 126.916C157.969 126.524 157.773 125.992 157.773 125.32C157.773 124.704 157.969 124.2 158.361 123.808C158.753 123.416 159.201 123.22 159.705 123.22C160.209 123.22 160.657 123.416 161.049 123.808C161.441 124.2 161.637 124.704 161.637 125.32C161.637 125.992 161.413 126.524 160.965 126.916C160.573 127.308 160.153 127.504 159.705 127.504ZM170.829 96.676C170.829 96.004 170.801 95.22 170.745 94.324C170.745 93.372 170.717 92.42 170.661 91.468C170.661 90.46 170.633 89.508 170.577 88.612C170.577 87.716 170.549 86.988 170.493 86.428H172.341C172.397 86.988 172.425 87.716 172.425 88.612C172.481 89.452 172.509 90.376 172.509 91.384C172.565 92.336 172.593 93.26 172.593 94.156C172.593 95.052 172.593 95.836 172.593 96.508H172.845C173.629 92.532 174.833 89.732 176.457 88.108C178.137 86.428 179.985 85.588 182.001 85.588C182.449 85.588 182.785 85.616 183.009 85.672V87.352C182.897 87.296 182.729 87.268 182.505 87.268C182.281 87.268 182.113 87.268 182.001 87.268C180.433 87.268 179.061 87.828 177.885 88.948C176.709 90.068 175.729 91.524 174.945 93.316C174.217 95.108 173.657 97.124 173.265 99.364C172.873 101.548 172.677 103.76 172.677 106V127H170.829V96.676ZM204.132 117.76C204.132 119.328 204.188 120.98 204.3 122.716C204.412 124.452 204.524 125.88 204.636 127H202.872C202.816 126.44 202.76 125.74 202.704 124.9C202.648 124.004 202.592 123.108 202.536 122.212C202.536 121.26 202.508 120.364 202.452 119.524C202.452 118.684 202.452 117.956 202.452 117.34H202.284C201.5 121.036 200.212 123.752 198.42 125.488C196.628 127.224 194.5 128.092 192.036 128.092C190.916 128.092 189.796 127.868 188.676 127.42C187.612 126.972 186.632 126.272 185.736 125.32C184.84 124.312 184.112 123.08 183.552 121.624C183.048 120.168 182.796 118.432 182.796 116.416C182.796 113.56 183.3 111.264 184.308 109.528C185.316 107.792 186.576 106.448 188.088 105.496C189.6 104.488 191.224 103.844 192.96 103.564C194.696 103.228 196.264 103.06 197.664 103.06H202.284V99.868C202.284 95.332 201.5 92.028 199.932 89.956C198.364 87.828 196.264 86.764 193.632 86.764C192.008 86.764 190.496 87.212 189.096 88.108C187.752 88.948 186.604 90.096 185.652 91.552L184.392 90.376C185.4 88.752 186.772 87.464 188.508 86.512C190.244 85.56 191.952 85.084 193.632 85.084C196.936 85.084 199.512 86.288 201.36 88.696C203.208 91.104 204.132 94.856 204.132 99.952V117.76ZM202.284 104.74H198.168C196.656 104.74 195.088 104.88 193.464 105.16C191.896 105.44 190.44 106 189.096 106.84C187.808 107.68 186.744 108.856 185.904 110.368C185.064 111.88 184.644 113.896 184.644 116.416C184.644 118.264 184.868 119.832 185.316 121.12C185.82 122.352 186.436 123.36 187.164 124.144C187.892 124.928 188.704 125.516 189.6 125.908C190.496 126.244 191.364 126.412 192.204 126.412C194.164 126.412 195.788 125.88 197.076 124.816C198.364 123.696 199.4 122.268 200.184 120.532C200.968 118.796 201.5 116.892 201.78 114.82C202.116 112.692 202.284 110.648 202.284 108.688V104.74ZM223.038 126.664C221.806 127.224 220.518 127.504 219.174 127.504C217.886 127.504 216.85 127.28 216.066 126.832C215.338 126.328 214.75 125.656 214.302 124.816C213.854 123.976 213.546 122.996 213.378 121.876C213.266 120.7 213.21 119.44 213.21 118.096V88.108H207.75V86.428H213.21V74.5H215.058V86.428H222.45V88.108H215.058V118.096C215.058 120.84 215.366 122.828 215.982 124.06C216.654 125.292 217.802 125.908 219.426 125.908C219.93 125.908 220.462 125.852 221.022 125.74C221.638 125.628 222.17 125.432 222.618 125.152L223.038 126.664ZM226.043 106.252C226.043 109.22 226.239 111.964 226.631 114.484C227.079 117.004 227.751 119.16 228.647 120.952C229.599 122.744 230.747 124.144 232.091 125.152C233.491 126.16 235.171 126.664 237.131 126.664C239.483 126.664 241.359 125.964 242.759 124.564C244.215 123.164 245.335 121.484 246.119 119.524L247.463 120.28C246.679 122.408 245.419 124.284 243.683 125.908C242.003 127.532 239.819 128.344 237.131 128.344C235.003 128.344 233.127 127.84 231.503 126.832C229.935 125.768 228.591 124.312 227.471 122.464C226.407 120.56 225.595 118.292 225.035 115.66C224.475 112.972 224.195 110.004 224.195 106.756C224.195 103.676 224.475 100.82 225.035 98.188C225.595 95.5 226.407 93.204 227.471 91.3C228.535 89.34 229.851 87.828 231.419 86.764C232.987 85.644 234.807 85.084 236.879 85.084C239.063 85.084 240.883 85.616 242.339 86.68C243.851 87.688 245.055 89.06 245.951 90.796C246.903 92.532 247.575 94.548 247.967 96.844C248.359 99.14 248.555 101.548 248.555 104.068V106.252H226.043ZM246.875 104.572C246.875 101.884 246.651 99.448 246.203 97.264C245.811 95.08 245.195 93.204 244.355 91.636C243.571 90.068 242.535 88.864 241.247 88.024C240.015 87.128 238.559 86.68 236.879 86.68C234.863 86.68 233.155 87.324 231.755 88.612C230.411 89.9 229.291 91.468 228.395 93.316C227.555 95.164 226.939 97.124 226.547 99.196C226.211 101.268 226.043 103.06 226.043 104.572H246.875ZM270.288 116.584C270.288 120.056 269.448 122.884 267.768 125.068C266.144 127.252 263.82 128.344 260.796 128.344C256.092 128.344 252.844 126.048 251.052 121.456L252.396 120.448C254.188 124.592 257.016 126.664 260.88 126.664C263.176 126.664 264.996 125.768 266.34 123.976C267.74 122.184 268.44 119.776 268.44 116.752C268.44 115.016 268.16 113.588 267.6 112.468C267.04 111.292 266.34 110.34 265.5 109.612C264.66 108.884 263.736 108.296 262.728 107.848C261.776 107.4 260.88 106.98 260.04 106.588C259.032 106.196 258.08 105.72 257.184 105.16C256.344 104.6 255.588 103.9 254.916 103.06C254.3 102.22 253.796 101.24 253.404 100.12C253.068 99 252.9 97.628 252.9 96.004C252.9 94.492 253.124 93.092 253.572 91.804C254.076 90.46 254.748 89.284 255.588 88.276C256.428 87.268 257.38 86.484 258.444 85.924C259.564 85.364 260.768 85.084 262.056 85.084C264.184 85.084 265.948 85.616 267.348 86.68C268.804 87.744 269.924 89.144 270.708 90.88L269.364 91.804C267.796 88.444 265.36 86.764 262.056 86.764C259.984 86.764 258.248 87.632 256.848 89.368C255.448 91.104 254.748 93.288 254.748 95.92C254.748 97.32 254.888 98.524 255.168 99.532C255.504 100.484 255.952 101.324 256.512 102.052C257.128 102.724 257.856 103.312 258.696 103.816C259.536 104.32 260.516 104.796 261.636 105.244C262.644 105.692 263.652 106.224 264.66 106.84C265.724 107.4 266.676 108.128 267.516 109.024C268.356 109.864 269.028 110.9 269.532 112.132C270.036 113.364 270.288 114.848 270.288 116.584Z" fill="#FF2DF1"/>
<defs>
<filter id="filter0_d_10_2" x="27" y="0" width="210" height="208" filterUnits="userSpaceOnUse" color-interpolation-filters="sRGB">
<feFlood flood-opacity="0" result="BackgroundImageFix"/>
<feColorMatrix in="SourceAlpha" type="matrix" values="0 0 0 0 0 0 0 0 0 0 0 0 0 0 0 0 0 0 127 0" result="hardAlpha"/>
<feOffset dx="-6" dy="4"/>
<feGaussianBlur stdDeviation="2"/>
<feComposite in2="hardAlpha" operator="out"/>
<feColorMatrix type="matrix" values="0 0 0 0 1 0 0 0 0 1 0 0 0 0 1 0 0 0 0.2 0"/>
<feBlend mode="normal" in2="BackgroundImageFix" result="effect1_dropShadow_10_2"/>
<feBlend mode="normal" in="SourceGraphic" in2="effect1_dropShadow_10_2" result="shape"/>
</filter>
</defs>
</svg>
