<svg width="230" height="210" viewBox="0 0 230 210" fill="none" xmlns="http://www.w3.org/2000/svg">
<g filter="url(#filter0_d_82_3)">
<circle cx="115" cy="100" r="100" fill="black" fill-opacity="0.8" shape-rendering="crispEdges"/>
</g>
<path d="M18.288 124.576C15.552 124.576 13.272 124.072 11.448 123.064C9.624 122.056 8.256 120.568 7.344 118.6C6.432 116.632 5.976 114.184 5.976 111.256V90.304C5.976 89.776 6.096 89.392 6.336 89.152C6.624 88.864 7.008 88.72 7.488 88.72C7.968 88.72 8.328 88.864 8.568 89.152C8.856 89.392 9 89.776 9 90.304V110.968C9 114.616 9.744 117.328 11.232 119.104C12.72 120.88 15.072 121.768 18.288 121.768C21.792 121.768 24.624 120.616 26.784 118.312C28.992 115.96 30.096 112.888 30.096 109.096V90.304C30.096 89.776 30.216 89.392 30.456 89.152C30.744 88.864 31.128 88.72 31.608 88.72C32.088 88.72 32.448 88.864 32.688 89.152C32.976 89.392 33.12 89.776 33.12 90.304V122.848C33.12 123.904 32.64 124.432 31.68 124.432C31.2 124.432 30.816 124.288 30.528 124C30.288 123.712 30.168 123.328 30.168 122.848V115.288H31.032C30.12 118.312 28.512 120.616 26.208 122.2C23.904 123.784 21.264 124.576 18.288 124.576ZM34.9144 124.504C34.6264 124.504 34.3384 124.408 34.0504 124.216C33.8104 124.024 33.6664 123.76 33.6184 123.424C33.6184 123.04 33.8104 122.608 34.1944 122.128L47.7304 105.064V106.936L35.0584 91.096C34.6744 90.616 34.4824 90.208 34.4824 89.872C34.5304 89.488 34.6744 89.2 34.9144 89.008C35.2024 88.816 35.4904 88.72 35.7784 88.72C36.1624 88.72 36.4984 88.816 36.7864 89.008C37.0744 89.152 37.3384 89.392 37.5784 89.728L49.3864 104.56H48.3064L60.1144 89.728C60.3544 89.392 60.6184 89.152 60.9064 89.008C61.1944 88.816 61.5304 88.72 61.9144 88.72C62.2024 88.72 62.4664 88.816 62.7064 89.008C62.9944 89.2 63.1384 89.488 63.1384 89.872C63.1864 90.208 63.0184 90.616 62.6344 91.096L50.1064 106.72V105.352L63.4984 122.128C63.8824 122.608 64.0504 123.04 64.0024 123.424C64.0024 123.76 63.8584 124.024 63.5704 124.216C63.3304 124.408 63.0664 124.504 62.7784 124.504C62.3944 124.504 62.0344 124.408 61.6984 124.216C61.4104 124.072 61.1224 123.832 60.8344 123.496L48.2344 107.656H49.3864L36.7864 123.496C36.5464 123.832 36.2584 124.072 35.9224 124.216C35.6344 124.408 35.2984 124.504 34.9144 124.504Z" fill="#FF2DF1"/>
<path d="M66.7114 124.216C65.9434 124.216 65.2954 123.952 64.7674 123.424C64.2394 122.896 63.9754 122.248 63.9754 121.48C63.9754 120.664 64.2394 120.016 64.7674 119.536C65.2954 119.008 65.9434 118.744 66.7114 118.744C67.5274 118.744 68.1754 119.008 68.6554 119.536C69.1354 120.016 69.3754 120.664 69.3754 121.48C69.3754 122.248 69.1354 122.896 68.6554 123.424C68.1754 123.952 67.5274 124.216 66.7114 124.216Z" fill="#FFFF00"/>
<path d="M83.0947 124.576C79.9747 124.576 77.2387 123.856 74.8867 122.416C72.5827 120.928 70.7827 118.84 69.4867 116.152C68.2387 113.416 67.6147 110.224 67.6147 106.576C67.6147 102.88 68.2387 99.688 69.4867 97C70.7347 94.312 72.5107 92.248 74.8147 90.808C77.1667 89.32 79.9267 88.576 83.0947 88.576C86.4547 88.576 89.3108 89.44 91.6627 91.168C94.0147 92.896 95.5747 95.248 96.3427 98.224H95.5507V74.392C95.5507 73.864 95.6707 73.48 95.9107 73.24C96.1987 72.952 96.5827 72.808 97.0627 72.808C97.5427 72.808 97.9028 72.952 98.1428 73.24C98.4307 73.48 98.5747 73.864 98.5747 74.392V122.848C98.5747 123.328 98.4307 123.712 98.1428 124C97.9028 124.288 97.5427 124.432 97.0627 124.432C96.5827 124.432 96.1987 124.288 95.9107 124C95.6707 123.712 95.5507 123.328 95.5507 122.848V114.928H96.3427C95.5747 117.856 94.0147 120.208 91.6627 121.984C89.3108 123.712 86.4547 124.576 83.0947 124.576ZM83.1667 121.768C85.7107 121.768 87.9188 121.168 89.7908 119.968C91.6627 118.768 93.1027 117.04 94.1108 114.784C95.1188 112.48 95.6228 109.744 95.6228 106.576C95.6228 101.776 94.4947 98.056 92.2387 95.416C90.0307 92.728 87.0067 91.384 83.1667 91.384C80.6227 91.384 78.4147 91.984 76.5427 93.184C74.6707 94.384 73.2307 96.112 72.2227 98.368C71.2147 100.624 70.7107 103.36 70.7107 106.576C70.7107 111.376 71.8387 115.12 74.0947 117.808C76.3507 120.448 79.3747 121.768 83.1667 121.768ZM116.673 124.576C113.217 124.576 110.241 123.856 107.745 122.416C105.249 120.976 103.305 118.936 101.913 116.296C100.569 113.608 99.8966 110.416 99.8966 106.72C99.8966 103.072 100.569 99.904 101.913 97.216C103.305 94.48 105.201 92.368 107.601 90.88C110.049 89.344 112.857 88.576 116.025 88.576C118.281 88.576 120.273 88.96 122.001 89.728C123.777 90.496 125.265 91.6 126.465 93.04C127.713 94.48 128.649 96.232 129.273 98.296C129.945 100.36 130.281 102.688 130.281 105.28C130.281 105.904 130.137 106.384 129.849 106.72C129.609 107.008 129.225 107.152 128.697 107.152H101.841V104.488H128.697L127.473 105.352C127.473 102.424 127.041 99.928 126.177 97.864C125.313 95.752 124.017 94.144 122.289 93.04C120.609 91.888 118.497 91.312 115.953 91.312C113.169 91.312 110.793 91.984 108.825 93.328C106.905 94.624 105.441 96.4 104.433 98.656C103.473 100.912 102.993 103.48 102.993 106.36V106.72C102.993 111.52 104.169 115.24 106.521 117.88C108.921 120.472 112.257 121.768 116.529 121.768C118.449 121.768 120.249 121.528 121.929 121.048C123.609 120.52 125.265 119.608 126.897 118.312C127.233 118.024 127.569 117.88 127.905 117.88C128.289 117.832 128.601 117.904 128.841 118.096C129.129 118.24 129.321 118.456 129.417 118.744C129.561 118.984 129.585 119.272 129.489 119.608C129.393 119.944 129.153 120.256 128.769 120.544C127.281 121.792 125.457 122.776 123.297 123.496C121.137 124.216 118.929 124.576 116.673 124.576ZM142.12 124.576C139.912 124.576 137.776 124.264 135.712 123.64C133.648 123.016 131.632 121.96 129.664 120.472C129.424 120.28 129.256 120.04 129.16 119.752C129.112 119.464 129.112 119.176 129.16 118.888C129.256 118.6 129.4 118.36 129.592 118.168C129.832 117.928 130.096 117.808 130.384 117.808C130.72 117.808 131.056 117.928 131.392 118.168C133.216 119.512 135.04 120.448 136.864 120.976C138.688 121.504 140.512 121.768 142.336 121.768C145.456 121.768 147.832 121.168 149.464 119.968C151.144 118.768 151.984 117.136 151.984 115.072C151.984 113.44 151.432 112.168 150.328 111.256C149.272 110.296 147.544 109.528 145.144 108.952L139.168 107.512C136.144 106.792 133.912 105.688 132.472 104.2C131.08 102.712 130.384 100.792 130.384 98.44C130.384 96.472 130.888 94.744 131.896 93.256C132.952 91.768 134.416 90.616 136.288 89.8C138.208 88.984 140.416 88.576 142.912 88.576C145.024 88.576 147.04 88.912 148.96 89.584C150.928 90.256 152.584 91.264 153.928 92.608C154.216 92.896 154.384 93.208 154.432 93.544C154.528 93.832 154.528 94.12 154.432 94.408C154.336 94.696 154.168 94.912 153.928 95.056C153.688 95.2 153.4 95.272 153.064 95.272C152.776 95.224 152.464 95.056 152.128 94.768C150.784 93.616 149.32 92.776 147.736 92.248C146.152 91.672 144.52 91.384 142.84 91.384C139.912 91.384 137.632 92.032 136 93.328C134.368 94.576 133.552 96.256 133.552 98.368C133.552 100 134.056 101.32 135.064 102.328C136.072 103.336 137.68 104.104 139.888 104.632L145.864 106.072C148.984 106.84 151.312 107.92 152.848 109.312C154.384 110.704 155.152 112.576 155.152 114.928C155.152 117.856 153.976 120.208 151.624 121.984C149.272 123.712 146.104 124.576 142.12 124.576ZM158.292 124.216C157.812 124.216 157.428 124.072 157.14 123.784C156.9 123.496 156.78 123.112 156.78 122.632V90.52C156.78 89.992 156.9 89.608 157.14 89.368C157.428 89.08 157.812 88.936 158.292 88.936C158.772 88.936 159.132 89.08 159.372 89.368C159.66 89.608 159.804 89.992 159.804 90.52V122.632C159.804 123.112 159.684 123.496 159.444 123.784C159.204 124.072 158.82 124.216 158.292 124.216ZM158.292 79.648C157.524 79.648 156.9 79.432 156.42 79C155.988 78.52 155.772 77.896 155.772 77.128C155.772 76.312 155.988 75.712 156.42 75.328C156.9 74.896 157.524 74.68 158.292 74.68C159.108 74.68 159.732 74.896 160.164 75.328C160.596 75.712 160.812 76.312 160.812 77.128C160.812 77.896 160.596 78.52 160.164 79C159.732 79.432 159.108 79.648 158.292 79.648ZM178.158 137.536C175.614 137.536 173.118 137.176 170.67 136.456C168.27 135.736 166.086 134.608 164.118 133.072C163.878 132.88 163.71 132.64 163.614 132.352C163.566 132.064 163.59 131.776 163.686 131.488C163.782 131.248 163.926 131.008 164.118 130.768C164.358 130.576 164.598 130.456 164.838 130.408C165.126 130.408 165.414 130.504 165.702 130.696C167.814 132.184 169.83 133.216 171.75 133.792C173.718 134.416 175.878 134.728 178.23 134.728C181.83 134.728 184.566 133.696 186.438 131.632C188.31 129.616 189.246 126.712 189.246 122.92V113.344H189.966C189.294 116.416 187.758 118.84 185.358 120.616C182.958 122.344 180.102 123.208 176.79 123.208C173.574 123.208 170.79 122.488 168.438 121.048C166.086 119.56 164.262 117.52 162.966 114.928C161.718 112.288 161.094 109.264 161.094 105.856C161.094 103.264 161.454 100.912 162.174 98.8C162.894 96.688 163.926 94.888 165.27 93.4C166.662 91.864 168.318 90.688 170.238 89.872C172.158 89.008 174.342 88.576 176.79 88.576C180.102 88.576 182.958 89.464 185.358 91.24C187.758 92.968 189.294 95.368 189.966 98.44H189.174V90.304C189.174 89.776 189.294 89.392 189.534 89.152C189.822 88.864 190.206 88.72 190.686 88.72C191.166 88.72 191.526 88.864 191.766 89.152C192.054 89.392 192.198 89.776 192.198 90.304V122.416C192.198 127.408 191.022 131.176 188.67 133.72C186.318 136.264 182.814 137.536 178.158 137.536ZM176.718 120.4C179.31 120.4 181.542 119.8 183.414 118.6C185.286 117.4 186.726 115.72 187.734 113.56C188.742 111.352 189.246 108.784 189.246 105.856C189.246 101.44 188.118 97.936 185.862 95.344C183.606 92.704 180.558 91.384 176.718 91.384C174.174 91.384 171.942 91.984 170.022 93.184C168.15 94.336 166.71 95.992 165.702 98.152C164.694 100.312 164.19 102.88 164.19 105.856C164.19 110.272 165.318 113.8 167.574 116.44C169.83 119.08 172.878 120.4 176.718 120.4ZM197.332 124.432C196.852 124.432 196.468 124.288 196.18 124C195.94 123.712 195.82 123.328 195.82 122.848V90.304C195.82 89.776 195.94 89.392 196.18 89.152C196.468 88.864 196.852 88.72 197.332 88.72C197.812 88.72 198.172 88.864 198.412 89.152C198.652 89.392 198.772 89.776 198.772 90.304V97.648H197.98C198.94 94.624 200.596 92.368 202.948 90.88C205.3 89.344 208.012 88.576 211.084 88.576C213.868 88.576 216.172 89.056 217.996 90.016C219.868 90.976 221.26 92.44 222.172 94.408C223.084 96.376 223.54 98.848 223.54 101.824V122.848C223.54 123.328 223.396 123.712 223.108 124C222.868 124.288 222.508 124.432 222.028 124.432C221.548 124.432 221.164 124.288 220.876 124C220.636 123.712 220.516 123.328 220.516 122.848V102.112C220.516 98.416 219.772 95.704 218.284 93.976C216.796 92.248 214.396 91.384 211.084 91.384C207.388 91.384 204.412 92.536 202.156 94.84C199.948 97.096 198.844 100.144 198.844 103.984V122.848C198.844 123.904 198.34 124.432 197.332 124.432Z" fill="#008DDA"/>
<defs>
<filter id="filter0_d_82_3" x="15" y="0" width="208" height="210" filterUnits="userSpaceOnUse" color-interpolation-filters="sRGB">
<feFlood flood-opacity="0" result="BackgroundImageFix"/>
<feColorMatrix in="SourceAlpha" type="matrix" values="0 0 0 0 0 0 0 0 0 0 0 0 0 0 0 0 0 0 127 0" result="hardAlpha"/>
<feOffset dx="4" dy="6"/>
<feGaussianBlur stdDeviation="2"/>
<feComposite in2="hardAlpha" operator="out"/>
<feColorMatrix type="matrix" values="0 0 0 0 1 0 0 0 0 1 0 0 0 0 1 0 0 0 0.1 0"/>
<feBlend mode="normal" in2="BackgroundImageFix" result="effect1_dropShadow_82_3"/>
<feBlend mode="normal" in="SourceGraphic" in2="effect1_dropShadow_82_3" result="shape"/>
</filter>
</defs>
</svg>
