<svg width="230" height="212" viewBox="0 0 230 212" fill="none" xmlns="http://www.w3.org/2000/svg">
<g filter="url(#filter0_d_82_3)">
<circle cx="115" cy="102" r="100" fill="black" fill-opacity="0.8" shape-rendering="crispEdges"/>
</g>
<path d="M18.288 126.576C15.552 126.576 13.272 126.072 11.448 125.064C9.624 124.056 8.256 122.568 7.344 120.6C6.432 118.632 5.976 116.184 5.976 113.256V92.304C5.976 91.776 6.096 91.392 6.336 91.152C6.624 90.864 7.008 90.72 7.488 90.72C7.968 90.72 8.328 90.864 8.568 91.152C8.856 91.392 9 91.776 9 92.304V112.968C9 116.616 9.744 119.328 11.232 121.104C12.72 122.88 15.072 123.768 18.288 123.768C21.792 123.768 24.624 122.616 26.784 120.312C28.992 117.96 30.096 114.888 30.096 111.096V92.304C30.096 91.776 30.216 91.392 30.456 91.152C30.744 90.864 31.128 90.72 31.608 90.72C32.088 90.72 32.448 90.864 32.688 91.152C32.976 91.392 33.12 91.776 33.12 92.304V124.848C33.12 125.904 32.64 126.432 31.68 126.432C31.2 126.432 30.816 126.288 30.528 126C30.288 125.712 30.168 125.328 30.168 124.848V117.288H31.032C30.12 120.312 28.512 122.616 26.208 124.2C23.904 125.784 21.264 126.576 18.288 126.576ZM34.9144 126.504C34.6264 126.504 34.3384 126.408 34.0504 126.216C33.8104 126.024 33.6664 125.76 33.6184 125.424C33.6184 125.04 33.8104 124.608 34.1944 124.128L47.7304 107.064V108.936L35.0584 93.096C34.6744 92.616 34.4824 92.208 34.4824 91.872C34.5304 91.488 34.6744 91.2 34.9144 91.008C35.2024 90.816 35.4904 90.72 35.7784 90.72C36.1624 90.72 36.4984 90.816 36.7864 91.008C37.0744 91.152 37.3384 91.392 37.5784 91.728L49.3864 106.56H48.3064L60.1144 91.728C60.3544 91.392 60.6184 91.152 60.9064 91.008C61.1944 90.816 61.5304 90.72 61.9144 90.72C62.2024 90.72 62.4664 90.816 62.7064 91.008C62.9944 91.2 63.1384 91.488 63.1384 91.872C63.1864 92.208 63.0184 92.616 62.6344 93.096L50.1064 108.72V107.352L63.4984 124.128C63.8824 124.608 64.0504 125.04 64.0024 125.424C64.0024 125.76 63.8584 126.024 63.5704 126.216C63.3304 126.408 63.0664 126.504 62.7784 126.504C62.3944 126.504 62.0344 126.408 61.6984 126.216C61.4104 126.072 61.1224 125.832 60.8344 125.496L48.2344 109.656H49.3864L36.7864 125.496C36.5464 125.832 36.2584 126.072 35.9224 126.216C35.6344 126.408 35.2984 126.504 34.9144 126.504Z" fill="#FF2DF1"/>
<path d="M66.7114 126.216C65.9434 126.216 65.2954 125.952 64.7674 125.424C64.2394 124.896 63.9754 124.248 63.9754 123.48C63.9754 122.664 64.2394 122.016 64.7674 121.536C65.2954 121.008 65.9434 120.744 66.7114 120.744C67.5274 120.744 68.1754 121.008 68.6554 121.536C69.1354 122.016 69.3754 122.664 69.3754 123.48C69.3754 124.248 69.1354 124.896 68.6554 125.424C68.1754 125.952 67.5274 126.216 66.7114 126.216Z" fill="#FFFF00"/>
<path d="M83.0947 126.576C79.9747 126.576 77.2387 125.856 74.8867 124.416C72.5827 122.928 70.7827 120.84 69.4867 118.152C68.2387 115.416 67.6147 112.224 67.6147 108.576C67.6147 104.88 68.2387 101.688 69.4867 99C70.7347 96.312 72.5107 94.248 74.8147 92.808C77.1667 91.32 79.9267 90.576 83.0947 90.576C86.4547 90.576 89.3108 91.44 91.6627 93.168C94.0147 94.896 95.5747 97.248 96.3427 100.224H95.5507V76.392C95.5507 75.864 95.6707 75.48 95.9107 75.24C96.1987 74.952 96.5827 74.808 97.0627 74.808C97.5427 74.808 97.9028 74.952 98.1428 75.24C98.4307 75.48 98.5747 75.864 98.5747 76.392V124.848C98.5747 125.328 98.4307 125.712 98.1428 126C97.9028 126.288 97.5427 126.432 97.0627 126.432C96.5827 126.432 96.1987 126.288 95.9107 126C95.6707 125.712 95.5507 125.328 95.5507 124.848V116.928H96.3427C95.5747 119.856 94.0147 122.208 91.6627 123.984C89.3108 125.712 86.4547 126.576 83.0947 126.576ZM83.1667 123.768C85.7107 123.768 87.9188 123.168 89.7908 121.968C91.6627 120.768 93.1027 119.04 94.1108 116.784C95.1188 114.48 95.6228 111.744 95.6228 108.576C95.6228 103.776 94.4947 100.056 92.2387 97.416C90.0307 94.728 87.0067 93.384 83.1667 93.384C80.6227 93.384 78.4147 93.984 76.5427 95.184C74.6707 96.384 73.2307 98.112 72.2227 100.368C71.2147 102.624 70.7107 105.36 70.7107 108.576C70.7107 113.376 71.8387 117.12 74.0947 119.808C76.3507 122.448 79.3747 123.768 83.1667 123.768ZM116.673 126.576C113.217 126.576 110.241 125.856 107.745 124.416C105.249 122.976 103.305 120.936 101.913 118.296C100.569 115.608 99.8966 112.416 99.8966 108.72C99.8966 105.072 100.569 101.904 101.913 99.216C103.305 96.48 105.201 94.368 107.601 92.88C110.049 91.344 112.857 90.576 116.025 90.576C118.281 90.576 120.273 90.96 122.001 91.728C123.777 92.496 125.265 93.6 126.465 95.04C127.713 96.48 128.649 98.232 129.273 100.296C129.945 102.36 130.281 104.688 130.281 107.28C130.281 107.904 130.137 108.384 129.849 108.72C129.609 109.008 129.225 109.152 128.697 109.152H101.841V106.488H128.697L127.473 107.352C127.473 104.424 127.041 101.928 126.177 99.864C125.313 97.752 124.017 96.144 122.289 95.04C120.609 93.888 118.497 93.312 115.953 93.312C113.169 93.312 110.793 93.984 108.825 95.328C106.905 96.624 105.441 98.4 104.433 100.656C103.473 102.912 102.993 105.48 102.993 108.36V108.72C102.993 113.52 104.169 117.24 106.521 119.88C108.921 122.472 112.257 123.768 116.529 123.768C118.449 123.768 120.249 123.528 121.929 123.048C123.609 122.52 125.265 121.608 126.897 120.312C127.233 120.024 127.569 119.88 127.905 119.88C128.289 119.832 128.601 119.904 128.841 120.096C129.129 120.24 129.321 120.456 129.417 120.744C129.561 120.984 129.585 121.272 129.489 121.608C129.393 121.944 129.153 122.256 128.769 122.544C127.281 123.792 125.457 124.776 123.297 125.496C121.137 126.216 118.929 126.576 116.673 126.576ZM142.12 126.576C139.912 126.576 137.776 126.264 135.712 125.64C133.648 125.016 131.632 123.96 129.664 122.472C129.424 122.28 129.256 122.04 129.16 121.752C129.112 121.464 129.112 121.176 129.16 120.888C129.256 120.6 129.4 120.36 129.592 120.168C129.832 119.928 130.096 119.808 130.384 119.808C130.72 119.808 131.056 119.928 131.392 120.168C133.216 121.512 135.04 122.448 136.864 122.976C138.688 123.504 140.512 123.768 142.336 123.768C145.456 123.768 147.832 123.168 149.464 121.968C151.144 120.768 151.984 119.136 151.984 117.072C151.984 115.44 151.432 114.168 150.328 113.256C149.272 112.296 147.544 111.528 145.144 110.952L139.168 109.512C136.144 108.792 133.912 107.688 132.472 106.2C131.08 104.712 130.384 102.792 130.384 100.44C130.384 98.472 130.888 96.744 131.896 95.256C132.952 93.768 134.416 92.616 136.288 91.8C138.208 90.984 140.416 90.576 142.912 90.576C145.024 90.576 147.04 90.912 148.96 91.584C150.928 92.256 152.584 93.264 153.928 94.608C154.216 94.896 154.384 95.208 154.432 95.544C154.528 95.832 154.528 96.12 154.432 96.408C154.336 96.696 154.168 96.912 153.928 97.056C153.688 97.2 153.4 97.272 153.064 97.272C152.776 97.224 152.464 97.056 152.128 96.768C150.784 95.616 149.32 94.776 147.736 94.248C146.152 93.672 144.52 93.384 142.84 93.384C139.912 93.384 137.632 94.032 136 95.328C134.368 96.576 133.552 98.256 133.552 100.368C133.552 102 134.056 103.32 135.064 104.328C136.072 105.336 137.68 106.104 139.888 106.632L145.864 108.072C148.984 108.84 151.312 109.92 152.848 111.312C154.384 112.704 155.152 114.576 155.152 116.928C155.152 119.856 153.976 122.208 151.624 123.984C149.272 125.712 146.104 126.576 142.12 126.576ZM158.292 126.216C157.812 126.216 157.428 126.072 157.14 125.784C156.9 125.496 156.78 125.112 156.78 124.632V92.52C156.78 91.992 156.9 91.608 157.14 91.368C157.428 91.08 157.812 90.936 158.292 90.936C158.772 90.936 159.132 91.08 159.372 91.368C159.66 91.608 159.804 91.992 159.804 92.52V124.632C159.804 125.112 159.684 125.496 159.444 125.784C159.204 126.072 158.82 126.216 158.292 126.216ZM158.292 81.648C157.524 81.648 156.9 81.432 156.42 81C155.988 80.52 155.772 79.896 155.772 79.128C155.772 78.312 155.988 77.712 156.42 77.328C156.9 76.896 157.524 76.68 158.292 76.68C159.108 76.68 159.732 76.896 160.164 77.328C160.596 77.712 160.812 78.312 160.812 79.128C160.812 79.896 160.596 80.52 160.164 81C159.732 81.432 159.108 81.648 158.292 81.648ZM178.158 139.536C175.614 139.536 173.118 139.176 170.67 138.456C168.27 137.736 166.086 136.608 164.118 135.072C163.878 134.88 163.71 134.64 163.614 134.352C163.566 134.064 163.59 133.776 163.686 133.488C163.782 133.248 163.926 133.008 164.118 132.768C164.358 132.576 164.598 132.456 164.838 132.408C165.126 132.408 165.414 132.504 165.702 132.696C167.814 134.184 169.83 135.216 171.75 135.792C173.718 136.416 175.878 136.728 178.23 136.728C181.83 136.728 184.566 135.696 186.438 133.632C188.31 131.616 189.246 128.712 189.246 124.92V115.344H189.966C189.294 118.416 187.758 120.84 185.358 122.616C182.958 124.344 180.102 125.208 176.79 125.208C173.574 125.208 170.79 124.488 168.438 123.048C166.086 121.56 164.262 119.52 162.966 116.928C161.718 114.288 161.094 111.264 161.094 107.856C161.094 105.264 161.454 102.912 162.174 100.8C162.894 98.688 163.926 96.888 165.27 95.4C166.662 93.864 168.318 92.688 170.238 91.872C172.158 91.008 174.342 90.576 176.79 90.576C180.102 90.576 182.958 91.464 185.358 93.24C187.758 94.968 189.294 97.368 189.966 100.44H189.174V92.304C189.174 91.776 189.294 91.392 189.534 91.152C189.822 90.864 190.206 90.72 190.686 90.72C191.166 90.72 191.526 90.864 191.766 91.152C192.054 91.392 192.198 91.776 192.198 92.304V124.416C192.198 129.408 191.022 133.176 188.67 135.72C186.318 138.264 182.814 139.536 178.158 139.536ZM176.718 122.4C179.31 122.4 181.542 121.8 183.414 120.6C185.286 119.4 186.726 117.72 187.734 115.56C188.742 113.352 189.246 110.784 189.246 107.856C189.246 103.44 188.118 99.936 185.862 97.344C183.606 94.704 180.558 93.384 176.718 93.384C174.174 93.384 171.942 93.984 170.022 95.184C168.15 96.336 166.71 97.992 165.702 100.152C164.694 102.312 164.19 104.88 164.19 107.856C164.19 112.272 165.318 115.8 167.574 118.44C169.83 121.08 172.878 122.4 176.718 122.4ZM197.332 126.432C196.852 126.432 196.468 126.288 196.18 126C195.94 125.712 195.82 125.328 195.82 124.848V92.304C195.82 91.776 195.94 91.392 196.18 91.152C196.468 90.864 196.852 90.72 197.332 90.72C197.812 90.72 198.172 90.864 198.412 91.152C198.652 91.392 198.772 91.776 198.772 92.304V99.648H197.98C198.94 96.624 200.596 94.368 202.948 92.88C205.3 91.344 208.012 90.576 211.084 90.576C213.868 90.576 216.172 91.056 217.996 92.016C219.868 92.976 221.26 94.44 222.172 96.408C223.084 98.376 223.54 100.848 223.54 103.824V124.848C223.54 125.328 223.396 125.712 223.108 126C222.868 126.288 222.508 126.432 222.028 126.432C221.548 126.432 221.164 126.288 220.876 126C220.636 125.712 220.516 125.328 220.516 124.848V104.112C220.516 100.416 219.772 97.704 218.284 95.976C216.796 94.248 214.396 93.384 211.084 93.384C207.388 93.384 204.412 94.536 202.156 96.84C199.948 99.096 198.844 102.144 198.844 105.984V124.848C198.844 125.904 198.34 126.432 197.332 126.432Z" fill="#008DDA"/>
<defs>
<filter id="filter0_d_82_3" x="15" y="0" width="212" height="212" filterUnits="userSpaceOnUse" color-interpolation-filters="sRGB">
<feFlood flood-opacity="0" result="BackgroundImageFix"/>
<feColorMatrix in="SourceAlpha" type="matrix" values="0 0 0 0 0 0 0 0 0 0 0 0 0 0 0 0 0 0 127 0" result="hardAlpha"/>
<feMorphology radius="2" operator="dilate" in="SourceAlpha" result="effect1_dropShadow_82_3"/>
<feOffset dx="6" dy="4"/>
<feGaussianBlur stdDeviation="2"/>
<feComposite in2="hardAlpha" operator="out"/>
<feColorMatrix type="matrix" values="0 0 0 0 1 0 0 0 0 1 0 0 0 0 1 0 0 0 0.2 0"/>
<feBlend mode="normal" in2="BackgroundImageFix" result="effect1_dropShadow_82_3"/>
<feBlend mode="normal" in="SourceGraphic" in2="effect1_dropShadow_82_3" result="shape"/>
</filter>
</defs>
</svg>
